<?xml version="1.0" encoding="UTF-8" standalone="no"?>
<!-- Created with Inkscape (http://www.inkscape.org/) -->

<svg
   version="1.1"
   id="svg1"
   width="328.48148"
   height="359.23868"
   viewBox="0 0 328.48148 359.23868"
   xmlns="http://www.w3.org/2000/svg"
   xmlns:svg="http://www.w3.org/2000/svg">
  <defs
     id="defs1" />
  <g
     id="layer1"
     style="display:inline"
     transform="translate(-505.42183,-360.46451)">
    <path
       style="fill:#c6a556;fill-opacity:1;stroke-width:1.00919"
       d="m 650.51298,360.46451 -123.38108,71.91486 47.04255,31.26734 77.1836,-44.05852 90.14144,57.70244 -0.5634,-61.39767 z"
       id="path1" />
    <path
       style="fill:#ffffff;fill-opacity:1;stroke-width:1.0171"
       d="m 527.49706,431.99153 -21.67366,11.84667 -0.28148,59.8112 68.68015,-39.87415 z"
       id="path2" />
    <path
       style="fill:#a8833d;fill-opacity:1;stroke-width:1.03345"
       d="m 739.63297,414.99026 52.46682,33.45547 -51.3324,30.19874 z"
       id="path3" />
    <path
       style="fill:#c6a556;fill-opacity:1;stroke-width:0.988629"
       d="m 791.87776,447.88104 -51.16568,29.27151 -0.19163,113.67769 51.54894,-25.06122 z"
       id="path4" />
    <path
       style="fill:#a8833d;fill-opacity:1;stroke-width:0.985232"
       d="m 792.26766,565.55143 -0.38691,57.00123 -51.45944,-32.34671 z"
       id="path5" />
    <path
       style="fill:#c6a556;fill-opacity:1"
       d="m 833.90335,648.5254 -43.42008,24.98142 -48.9715,-29.73978 -0.39653,-53.13507 z"
       id="path6" />
    <path
       style="fill:#a8833d;fill-opacity:1;stroke-width:1.00818"
       d="m 728.03803,582.40883 -43.34209,26.40544 57.32341,35.0072 -0.79893,-54.21115 z"
       id="path7" />
    <path
       style="fill:#c6a556;fill-opacity:1"
       d="m 653.6803,604.51053 56.50557,-32.11896 -55.11772,-33.30855 -54.32465,32.11896 z"
       id="path8" />
    <path
       style="display:inline;fill:#a8833d;fill-opacity:1;stroke-width:0.195335"
       d="m 528.65114,521.89819 c -0.0633,-1.02117 -0.16471,-8.47881 -0.2255,-16.57252 l -0.11049,-14.71585 21.94981,-12.97414 c 12.07241,-7.13578 21.97092,-12.94704 21.99671,-12.91392 0.0257,0.0331 0.0964,7.26801 0.15684,16.07751 l 0.10997,16.01723 -20.78561,12.8138 c -11.43208,7.0476 -21.27862,13.10873 -21.88116,13.46919 l -1.09555,0.65538 z"
       id="path13" />
    <path
       style="display:inline;fill:#c6a556;fill-opacity:1;stroke-width:0.566099"
       d="m 539.14475,594.09786 -33.4125,-20.96483 0.0259,-12.13511 0.0259,-12.13509 11.48093,-7.03793 11.48092,-7.0379 0.17356,-5.67507 0.17356,-5.67506 21.73208,-13.38147 21.73209,-13.38147 0.14366,29.37303 c 0.079,16.15515 0.079,42.79262 0,59.19438 l -0.14366,29.82136 z"
       id="path14" />
    <path
       style="display:inline;fill:#a6813b;fill-opacity:1;stroke-width:0.560779"
       d="m 579.36446,673.73521 -73.94261,-45.90884 0.0888,-27.61769 c 0.0488,-15.18973 0.1491,-27.67804 0.22286,-27.7518 0.21476,-0.21476 195.50343,119.51051 195.51223,119.86232 0.0107,0.42739 -47.5006,27.61513 -47.85161,27.38249 -0.0479,-0.0317 -33.36118,-20.71663 -74.02962,-45.96648 z"
       id="path15" />
    <path
       style="display:inline;fill:#c6a556;fill-opacity:1;stroke-width:0.0989718"
       d="m 676.37298,677.19245 c -13.5242,-8.43422 -24.60975,-15.35593 -24.63453,-15.38157 -0.0247,-0.0256 6.64473,-4.1821 14.82112,-9.2366 8.17639,-5.0545 14.95501,-9.24962 15.06359,-9.3225 0.1792,-0.12029 0.56979,0.0982 4.23274,2.36726 8.28662,5.13335 44.91851,27.77494 45.30803,28.00417 l 0.40493,0.23831 -0.98875,0.59709 c -1.56377,0.94435 -29.18391,17.78678 -29.41233,17.93528 -0.18916,0.12299 -2.14126,-1.07381 -24.7948,-15.20144 z"
       id="path16" />
  </g>
</svg>
