<svg id="animated-logo-main" width="85" height="90" viewBox="0 0 85 90" fill="none" xmlns="http://www.w3.org/2000/svg">
            <path d="M0.00438543 81.7705C-0.10299 79.8811 1.77442 78.2794 4.20509 78.1868H79.8348C82.2655 78.2794 84.1429 79.8811 84.0355 81.7705V86.1863C84.1429 88.0757 82.2655 89.6773 79.8348 89.77H4.20509C1.77558 89.6773 -0.101384 88.077 0.00438543 86.1885" fill="#2AAEFC"/>
            <path fill-rule="evenodd" clip-rule="evenodd" d="M0 61.7542V65.1849H3.0025V61.7542H0Z" fill="#2AAFFC"/>
            <path fill-rule="evenodd" clip-rule="evenodd" d="M0.00146484 6.86157V10.2924H3.00397V6.86157H0.00146484Z" fill="#2AAFFC"/>
            <path fill-rule="evenodd" clip-rule="evenodd" d="M0.00634766 65.185C0.00634766 61.4112 2.69374 58.3234 6.00835 58.3234V17.1539C2.69374 17.1539 0.00634766 14.0884 0.00634766 10.2923C0.00634766 6.51838 2.69374 3.43066 6.00835 3.43066H24.0144C33.9612 3.43066 42.0204 12.6475 42.0204 24.0155V51.4618C42.0204 62.8298 33.9642 72.0466 24.0144 72.0466H6.00835C2.69224 72.0466 0.00634766 68.9812 0.00634766 65.185ZM30.0164 51.4618V24.0155C30.0164 20.2193 27.332 17.1539 24.0144 17.1539H18.0124V58.3234H24.0144C27.329 58.3234 30.0164 55.258 30.0164 51.4618Z" fill="#2AAFFC"/>
            <path fill-rule="evenodd" clip-rule="evenodd" d="M1.50635 61.7543C1.50635 58.9188 3.52302 56.6081 6.00785 56.6081H24.0139C28.1597 56.6081 31.5164 52.7656 31.5164 48.0311V20.5847C31.5164 15.8502 28.1612 12.0077 24.0139 12.0077H6.00785C3.52302 12.0077 1.50635 9.69709 1.50635 6.86153C1.50635 4.02598 3.52302 1.71533 6.00785 1.71533H24.0139C33.1324 1.71533 40.5194 10.1551 40.5194 20.5847V48.0311C40.5194 58.4384 33.1354 66.9005 24.0139 66.9005H6.00785C3.52302 66.9005 1.50635 64.5899 1.50635 61.7543Z" fill="#2AAEFC"/>
            <path fill-rule="evenodd" clip-rule="evenodd" d="M7.5083 61.7544V6.86157H16.5113V61.7544H7.5083Z" fill="#2AAEFC"/>
            <path fill-rule="evenodd" clip-rule="evenodd" d="M0.00634766 61.7544C0.00634766 57.9805 2.69374 54.8928 6.00835 54.8928V13.7232C2.69374 13.7232 0.00634766 10.6578 0.00634766 6.8616C0.00634766 3.08772 2.69374 0 6.00835 0H24.0144C33.9612 0 42.0204 9.21684 42.0204 20.5848V48.0312C42.0204 59.3991 33.9642 68.616 24.0144 68.616H6.00835C2.69224 68.616 0.00634766 65.5506 0.00634766 61.7544ZM39.0194 48.0312V20.5848C39.0194 11.1158 32.3031 3.4308 24.0144 3.4308H6.00835C4.3518 3.4308 3.00735 4.96265 3.00735 6.8616C3.00735 8.76054 4.3518 10.2924 6.00835 10.2924H7.50885C8.33563 10.2924 9.00935 11.0695 9.00935 12.0078V56.6082C9.00935 57.5465 8.33563 58.3236 7.50885 58.3236H6.00835C4.3518 58.3236 3.00735 59.8554 3.00735 61.7544C3.00735 63.6533 4.3518 65.1852 6.00835 65.1852H24.0144C32.3046 65.1852 39.0194 57.5002 39.0194 48.0312ZM15.0114 56.6082V12.0078C15.0114 11.0695 15.6836 10.2924 16.5119 10.2924H24.0144C28.99 10.2924 33.0174 14.8897 33.0174 20.5848V48.0312C33.0174 53.7263 28.9885 58.3236 24.0144 58.3236H16.5119C15.6836 58.3236 15.0114 57.5465 15.0114 56.6082ZM30.0164 48.0312V20.5848C30.0164 16.7886 27.332 13.7232 24.0144 13.7232H18.0124V54.8928H24.0144C27.329 54.8928 30.0164 51.8274 30.0164 48.0312Z" fill="white"/>
            <path fill-rule="evenodd" clip-rule="evenodd" d="M42.0273 6.85278V10.2841H45.0268V6.85278H42.0273Z" fill="#2AAFFD"/>
            <path fill-rule="evenodd" clip-rule="evenodd" d="M81.0405 6.85278V10.2841H84.04V6.85278H81.0405Z" fill="#2AAFFD"/>
            <path fill-rule="evenodd" clip-rule="evenodd" d="M57.3002 67.2435L42.2955 12.3432C41.3052 8.73007 43.0697 4.88533 46.2327 3.74272C49.3957 2.62241 52.7642 4.63485 53.7515 8.24969L63.0289 42.1952L72.3048 8.24798C73.2907 4.63314 76.6607 2.6207 79.8237 3.74101C82.9867 4.88533 84.7512 8.72835 83.7609 12.3415L68.7562 67.2417C67.0067 73.6479 59.0482 73.6479 57.3002 67.2435Z" fill="#2AAFFD"/>
            <path fill-rule="evenodd" clip-rule="evenodd" d="M58.7317 63.3079L43.727 8.40763C42.9842 5.68492 44.3091 2.80266 46.6799 1.95685C49.0521 1.11104 51.5789 2.61909 52.3201 5.3418L63.029 44.5028L73.7363 5.3418C74.4761 2.61909 77.0029 1.10933 79.3766 1.95685C81.7474 2.80266 83.0723 5.68492 82.3295 8.40763L67.3248 63.3079C66.0149 68.1117 60.0431 68.1117 58.7317 63.3079Z" fill="#2AAEFC"/>
            <path fill-rule="evenodd" clip-rule="evenodd" d="M57.3002 63.8123L42.2955 8.91204C41.3052 5.29892 43.0697 1.45418 46.2327 0.31157C49.3957 -0.808738 52.7642 1.2037 53.7515 4.81854L63.0289 38.7641L72.3048 4.81682C73.2907 1.20198 76.6607 -0.810454 79.8237 0.309855C82.9867 1.45418 84.7512 5.2972 83.7609 8.91032L68.7562 63.8106C67.0067 70.2168 59.0482 70.2168 57.3002 63.8123ZM65.8918 62.8052L80.8965 7.90496C81.3902 6.07438 80.5064 4.15287 78.9279 3.60387C77.3464 3.03256 75.6614 4.03964 75.1677 5.8462L64.4604 45.0313C64.0238 46.6319 62.0341 46.6319 61.5975 45.0313L50.8872 5.8462C50.3935 4.03964 48.7085 3.03256 47.1255 3.60387C45.547 4.15287 44.6632 6.07438 45.1569 7.90496L60.1616 62.8052C61.0348 65.9843 65.0201 65.9843 65.8918 62.8052Z" fill="white"/>
            <path d="M0.00438543 81.7705C-0.10299 79.8811 1.77442 78.2794 4.20509 78.1868H79.8348C82.2655 78.2794 84.1429 79.8811 84.0355 81.7705V86.1863C84.1429 88.0757 82.2655 89.6773 79.8348 89.77H4.20509C1.77558 89.6773 -0.101384 88.077 0.00438543 86.1885" fill="#BD9F67"/>
            <path fill-rule="evenodd" clip-rule="evenodd" d="M0 61.7542V65.1849H3.0025V61.7542H0Z" fill="#2AAFFC"/>
            <path fill-rule="evenodd" clip-rule="evenodd" d="M0.00146484 6.86157V10.2924H3.00397V6.86157H0.00146484Z" fill="#2AAFFC"/>
            <path fill-rule="evenodd" clip-rule="evenodd" d="M0.00634766 65.185C0.00634766 61.4112 2.69374 58.3234 6.00835 58.3234V17.1539C2.69374 17.1539 0.00634766 14.0884 0.00634766 10.2923C0.00634766 6.51838 2.69374 3.43066 6.00835 3.43066H24.0144C33.9612 3.43066 42.0204 12.6475 42.0204 24.0155V51.4618C42.0204 62.8298 33.9642 72.0466 24.0144 72.0466H6.00835C2.69224 72.0466 0.00634766 68.9812 0.00634766 65.185ZM30.0164 51.4618V24.0155C30.0164 20.2193 27.332 17.1539 24.0144 17.1539H18.0124V58.3234H24.0144C27.329 58.3234 30.0164 55.258 30.0164 51.4618Z" fill="#CEC4B2"/>
            <path fill-rule="evenodd" clip-rule="evenodd" d="M1.50635 61.7543C1.50635 58.9188 3.52302 56.6081 6.00785 56.6081H24.0139C28.1597 56.6081 31.5164 52.7656 31.5164 48.0311V20.5847C31.5164 15.8502 28.1612 12.0077 24.0139 12.0077H6.00785C3.52302 12.0077 1.50635 9.69709 1.50635 6.86153C1.50635 4.02598 3.52302 1.71533 6.00785 1.71533H24.0139C33.1324 1.71533 40.5194 10.1551 40.5194 20.5847V48.0311C40.5194 58.4384 33.1354 66.9005 24.0139 66.9005H6.00785C3.52302 66.9005 1.50635 64.5899 1.50635 61.7543Z" fill="#BD9F67"/>
            <path fill-rule="evenodd" clip-rule="evenodd" d="M7.5083 61.7544V6.86157H16.5113V61.7544H7.5083Z" fill="#BD9F67"/>
            <path fill-rule="evenodd" clip-rule="evenodd" d="M0.00634766 61.7544C0.00634766 57.9805 2.69374 54.8928 6.00835 54.8928V13.7232C2.69374 13.7232 0.00634766 10.6578 0.00634766 6.8616C0.00634766 3.08772 2.69374 0 6.00835 0H24.0144C33.9612 0 42.0204 9.21684 42.0204 20.5848V48.0312C42.0204 59.3991 33.9642 68.616 24.0144 68.616H6.00835C2.69224 68.616 0.00634766 65.5506 0.00634766 61.7544ZM39.0194 48.0312V20.5848C39.0194 11.1158 32.3031 3.4308 24.0144 3.4308H6.00835C4.3518 3.4308 3.00735 4.96265 3.00735 6.8616C3.00735 8.76054 4.3518 10.2924 6.00835 10.2924H7.50885C8.33563 10.2924 9.00935 11.0695 9.00935 12.0078V56.6082C9.00935 57.5465 8.33563 58.3236 7.50885 58.3236H6.00835C4.3518 58.3236 3.00735 59.8554 3.00735 61.7544C3.00735 63.6533 4.3518 65.1852 6.00835 65.1852H24.0144C32.3046 65.1852 39.0194 57.5002 39.0194 48.0312ZM15.0114 56.6082V12.0078C15.0114 11.0695 15.6836 10.2924 16.5119 10.2924H24.0144C28.99 10.2924 33.0174 14.8897 33.0174 20.5848V48.0312C33.0174 53.7263 28.9885 58.3236 24.0144 58.3236H16.5119C15.6836 58.3236 15.0114 57.5465 15.0114 56.6082ZM30.0164 48.0312V20.5848C30.0164 16.7886 27.332 13.7232 24.0144 13.7232H18.0124V54.8928H24.0144C27.329 54.8928 30.0164 51.8274 30.0164 48.0312Z" fill="white"/>
            <path fill-rule="evenodd" clip-rule="evenodd" d="M42.0273 6.85278V10.2841H45.0268V6.85278H42.0273Z" fill="#2AAFFD"/>
            <path fill-rule="evenodd" clip-rule="evenodd" d="M81.0405 6.85278V10.2841H84.04V6.85278H81.0405Z" fill="#2AAFFD"/>
            <path fill-rule="evenodd" clip-rule="evenodd" d="M57.3002 67.2435L42.2955 12.3432C41.3052 8.73007 43.0697 4.88533 46.2327 3.74272C49.3957 2.62241 52.7642 4.63485 53.7515 8.24969L63.0289 42.1952L72.3048 8.24798C73.2907 4.63314 76.6607 2.6207 79.8237 3.74101C82.9867 4.88533 84.7512 8.72835 83.7609 12.3415L68.7562 67.2417C67.0067 73.6479 59.0482 73.6479 57.3002 67.2435Z" fill="#CEC4B2"/>
            <path fill-rule="evenodd" clip-rule="evenodd" d="M58.7317 63.3079L43.727 8.40763C42.9842 5.68492 44.3091 2.80266 46.6799 1.95685C49.0521 1.11104 51.5789 2.61909 52.3201 5.3418L63.029 44.5028L73.7363 5.3418C74.4761 2.61909 77.0029 1.10933 79.3766 1.95685C81.7474 2.80266 83.0723 5.68492 82.3295 8.40763L67.3248 63.3079C66.0149 68.1117 60.0431 68.1117 58.7317 63.3079Z" fill="#BD9F67"/>
            <path fill-rule="evenodd" clip-rule="evenodd" d="M57.3002 63.8123L42.2955 8.91204C41.3052 5.29892 43.0697 1.45418 46.2327 0.31157C49.3957 -0.808738 52.7642 1.2037 53.7515 4.81854L63.0289 38.7641L72.3048 4.81682C73.2907 1.20198 76.6607 -0.810454 79.8237 0.309855C82.9867 1.45418 84.7512 5.2972 83.7609 8.91032L68.7562 63.8106C67.0067 70.2168 59.0482 70.2168 57.3002 63.8123ZM65.8918 62.8052L80.8965 7.90496C81.3902 6.07438 80.5064 4.15287 78.9279 3.60387C77.3464 3.03256 75.6614 4.03964 75.1677 5.8462L64.4604 45.0313C64.0238 46.6319 62.0341 46.6319 61.5975 45.0313L50.8872 5.8462C50.3935 4.03964 48.7085 3.03256 47.1255 3.60387C45.547 4.15287 44.6632 6.07438 45.1569 7.90496L60.1616 62.8052C61.0348 65.9843 65.0201 65.9843 65.8918 62.8052Z" fill="white"/>
            </svg>