<svg id="animated-logo-second" width="211" height="70" viewBox="0 0 211 70" fill="none" xmlns="http://www.w3.org/2000/svg">
            <path fill-rule="evenodd" clip-rule="evenodd" d="M39.3896 59.9998V63.3331H42.0146V59.9998H39.3896Z" fill="#BD9F67"/>
            <path fill-rule="evenodd" clip-rule="evenodd" d="M0 50.0001V23.3335C0 12.2885 7.04886 3.3335 15.7575 3.3335H21.01C29.7147 3.3335 36.7675 12.2885 36.7675 23.3335V50.0001C36.7675 52.0668 36.5193 54.0668 36.0584 55.9551L35.8496 56.6668H36.7675C39.6656 56.6668 42.02 59.6451 42.02 63.3334C42.02 67.0218 39.6629 70.0001 36.7675 70.0001H15.7575C7.04754 70.0001 0 61.0451 0 50.0001ZM26.2625 50.0001V23.3335C26.2625 19.6451 23.9133 16.6668 21.01 16.6668H15.7575C12.8516 16.6668 10.505 19.6451 10.505 23.3335V50.0001C10.505 53.6884 12.8529 56.6668 15.7575 56.6668H21.01C23.9107 56.6668 26.2625 53.6884 26.2625 50.0001Z" fill="#CEC4B2"/>
            <path fill-rule="evenodd" clip-rule="evenodd" d="M1.31299 46.6665V19.9998C1.31299 9.8665 7.77488 1.6665 15.7574 1.6665H21.0099C28.9897 1.6665 35.4542 9.8665 35.4542 19.9998V46.6665C35.4542 56.7781 28.9924 64.9998 21.0099 64.9998H15.7574C7.77356 64.9998 1.31299 56.7781 1.31299 46.6665ZM27.5755 46.6665V19.9998C27.5755 15.3998 24.6393 11.6665 21.0099 11.6665H15.7574C12.1266 11.6665 9.19174 15.3998 9.19174 19.9998V46.6665C9.19174 51.2665 12.1279 54.9998 15.7574 54.9998H21.0099C24.638 54.9998 27.5755 51.2665 27.5755 46.6665Z" fill="#BD9F67"/>
            <path fill-rule="evenodd" clip-rule="evenodd" d="M11.8184 60C11.8184 57.245 13.5832 55 15.7577 55H36.7677C38.941 55 40.7071 57.245 40.7071 60C40.7071 62.755 38.941 65 36.7677 65H15.7577C13.5832 65 11.8184 62.755 11.8184 60Z" fill="#BD9F67"/>
            <path fill-rule="evenodd" clip-rule="evenodd" d="M0 46.6666V20C0 8.95499 7.04886 0 15.7575 0H21.01C29.7147 0 36.7675 8.95499 36.7675 20V46.6666C36.7675 48.7333 36.5193 50.7333 36.0584 52.6216L35.8496 53.3333H36.7675C39.6656 53.3333 42.02 56.3116 42.02 59.9999C42.02 63.6883 39.6629 66.6666 36.7675 66.6666H15.7575C7.04754 66.6666 0 57.7116 0 46.6666ZM39.3938 59.9999C39.3938 58.1549 38.2133 56.6666 36.7675 56.6666H33.8064C32.8124 56.6666 32.1768 55.3116 32.6522 54.1999L33.1249 53.1116L33.549 51.6233C33.9325 50.0683 34.1413 48.4016 34.1413 46.6683V20C34.1413 10.8 28.2637 3.33333 21.01 3.33333H15.7575C8.49986 3.33333 2.62625 10.8 2.62625 20V46.6666C2.62625 55.8666 8.49855 63.3333 15.7575 63.3333H36.7675C38.2159 63.3333 39.3938 61.8449 39.3938 59.9999ZM7.87875 46.6666V20C7.87875 14.4667 11.3992 9.99999 15.7575 9.99999H21.01C25.3643 9.99999 28.8888 14.4667 28.8888 20V46.6666C28.8888 52.2 25.363 56.6666 21.01 56.6666H15.7575C11.4019 56.6666 7.87875 52.2 7.87875 46.6666ZM26.2625 46.6666V20C26.2625 16.3117 23.9133 13.3333 21.01 13.3333H15.7575C12.8516 13.3333 10.505 16.3117 10.505 20V46.6666C10.505 50.355 12.8529 53.3333 15.7575 53.3333H21.01C23.9107 53.3333 26.2625 50.355 26.2625 46.6666Z" fill="white"/>
            <path fill-rule="evenodd" clip-rule="evenodd" d="M42 46.6668V10.0002C42 6.33349 44.7185 3.3335 48.0714 3.3335C51.4213 3.3335 54.1429 6.33349 54.1429 10.0002V46.6668C54.1429 52.2001 58.2168 56.6668 63.25 56.6668C68.2787 56.6668 72.3571 52.2001 72.3571 46.6668V10.0002C72.3571 6.33349 75.0756 3.3335 78.4286 3.3335C81.7785 3.3335 84.5 6.33349 84.5 10.0002V46.6668C84.5 59.5551 74.9906 70.0001 63.25 70.0001C51.5048 70.0001 42 59.5551 42 46.6668Z" fill="#CEC4B2"/>
            <path fill-rule="evenodd" clip-rule="evenodd" d="M43.5181 43.3331V6.6665C43.5181 3.9115 45.5581 1.6665 48.0716 1.6665C50.5837 1.6665 52.6252 3.9115 52.6252 6.6665V43.3331C52.6252 49.7781 57.3791 54.9998 63.2502 54.9998C69.1198 54.9998 73.8752 49.7781 73.8752 43.3331V6.6665C73.8752 3.9115 75.9152 1.6665 78.4288 1.6665C80.9408 1.6665 82.9824 3.9115 82.9824 6.6665V43.3331C82.9824 55.2881 74.153 64.9998 63.2502 64.9998C52.3459 64.9998 43.5181 55.2881 43.5181 43.3331Z" fill="#BD9F67"/>
            <path fill-rule="evenodd" clip-rule="evenodd" d="M42 43.3333V6.66666C42 3 44.7185 0 48.0714 0C51.4213 0 54.1429 3 54.1429 6.66666V43.3333C54.1429 48.8666 58.2168 53.3333 63.25 53.3333C68.2787 53.3333 72.3571 48.8666 72.3571 43.3333V6.66666C72.3571 3 75.0756 0 78.4286 0C81.7785 0 84.5 3 84.5 6.66666V43.3333C84.5 56.2216 74.9906 66.6666 63.25 66.6666C51.5048 66.6666 42 56.2216 42 43.3333ZM81.4643 43.3333V6.66666C81.4643 4.82166 80.0997 3.33333 78.4286 3.33333C76.7529 3.33333 75.3929 4.82166 75.3929 6.66666V43.3333C75.3929 50.7116 69.9574 56.6666 63.25 56.6666C56.5396 56.6666 51.1071 50.7116 51.1071 43.3333V6.66666C51.1071 4.82166 49.7426 3.33333 48.0714 3.33333C46.3957 3.33333 45.0357 4.82166 45.0357 6.66666V43.3333C45.0357 54.3783 53.1836 63.3333 63.25 63.3333C73.3119 63.3333 81.4643 54.3783 81.4643 43.3333Z" fill="white"/>
            <path fill-rule="evenodd" clip-rule="evenodd" d="M86 60V63.3333H128.494V60H86Z" fill="white"/>
            <path fill-rule="evenodd" clip-rule="evenodd" d="M86.0034 6.6665V9.99983H128.497V6.6665H86.0034Z" fill="white"/>
            <path fill-rule="evenodd" clip-rule="evenodd" d="M119.387 33.3333V36.6666H122.424V33.3333H119.387Z" fill="white"/>
            <path fill-rule="evenodd" clip-rule="evenodd" d="M86.0107 63.3334C86.0107 60.1118 88.0914 57.4218 90.8564 56.8001L92.0796 56.6668L92.078 16.6668L90.8579 16.5335C88.0914 15.9118 86.0123 13.2218 86.0123 10.0002C86.0123 6.33349 88.7303 3.3335 92.0826 3.3335H122.43C125.779 3.3335 128.5 6.33349 128.5 10.0002C128.5 13.6885 125.776 16.6668 122.43 16.6668H104.22V30.0001H116.361C119.71 30.0001 122.431 32.9785 122.431 36.6668C122.431 40.3335 119.707 43.3335 116.361 43.3335H104.22V56.6668H122.43C125.779 56.6668 128.5 59.6668 128.5 63.3334C128.5 67.0218 125.776 70.0001 122.43 70.0001H92.0811C88.7287 70.0001 86.0107 67.0218 86.0107 63.3334Z" fill="#CEC4B2"/>
            <path fill-rule="evenodd" clip-rule="evenodd" d="M93.5972 59.9998V6.6665H102.703V59.9998H93.5972Z" fill="#BD9F67"/>
            <path fill-rule="evenodd" clip-rule="evenodd" d="M87.5283 6.6665C87.5283 3.9115 89.568 1.6665 92.0811 1.6665H122.428C124.94 1.6665 126.981 3.9115 126.981 6.6665C126.981 9.4215 124.94 11.6665 122.428 11.6665H92.0811C89.568 11.6665 87.5283 9.4215 87.5283 6.6665Z" fill="#BD9F67"/>
            <path fill-rule="evenodd" clip-rule="evenodd" d="M87.5283 60C87.5283 57.245 89.568 55 92.0811 55H122.428C124.94 55 126.981 57.245 126.981 60C126.981 62.755 124.94 65 122.428 65H92.0811C89.568 65 87.5283 62.755 87.5283 60Z" fill="#BD9F67"/>
            <path fill-rule="evenodd" clip-rule="evenodd" d="M93.5972 33.3335C93.5972 30.5785 95.6368 28.3335 98.1499 28.3335H116.361C118.873 28.3335 120.914 30.5785 120.914 33.3335C120.914 36.0885 118.873 38.3335 116.361 38.3335H98.1499C95.6368 38.3335 93.5972 36.0885 93.5972 33.3335Z" fill="#BD9F67"/>
            <path fill-rule="evenodd" clip-rule="evenodd" d="M86.0107 59.9999C86.0107 56.7783 88.0914 54.0883 90.8564 53.4666L92.0796 53.3333L92.078 13.3333L90.8579 13.2C88.0914 12.5783 86.0123 9.88832 86.0123 6.66666C86.0123 3 88.7303 0 92.0826 0H122.43C125.779 0 128.5 3 128.5 6.66666C128.5 10.355 125.776 13.3333 122.43 13.3333H104.22V26.6666H116.361C119.71 26.6666 122.431 29.645 122.431 33.3333C122.431 37 119.707 40 116.361 40H104.22V53.3333H122.43C125.779 53.3333 128.5 56.3333 128.5 59.9999C128.5 63.6883 125.776 66.6666 122.43 66.6666H92.0811C88.7287 66.6666 86.0107 63.6883 86.0107 59.9999ZM125.463 59.9999C125.463 58.1549 124.099 56.6666 122.428 56.6666H102.703C101.865 56.6666 101.185 55.9116 101.185 54.9999V38.3333C101.185 37.4 101.865 36.6666 102.703 36.6666H116.361C118.035 36.6666 119.396 35.1783 119.396 33.3333C119.396 31.4883 118.032 30 116.361 30H102.703C101.865 30 101.185 29.245 101.185 28.3333V11.6667C101.185 10.755 101.865 9.99999 102.703 9.99999H122.43C124.104 9.99999 125.465 8.51166 125.465 6.66666C125.465 4.845 124.101 3.33333 122.43 3.33333H92.0811C90.4057 3.33333 89.0459 4.845 89.0459 6.66666C89.0459 8.51166 90.4057 9.99999 92.0811 9.99999H93.5971C94.4333 9.99999 95.1147 10.755 95.1147 11.6667V54.9999C95.1147 55.9116 94.4333 56.6666 93.5971 56.6666H92.0811C90.4057 56.6666 89.0459 58.1549 89.0459 59.9999C89.0459 61.8449 90.4057 63.3333 92.0811 63.3333H122.428C124.102 63.3333 125.463 61.8449 125.463 59.9999Z" fill="white"/>
            <path fill-rule="evenodd" clip-rule="evenodd" d="M130.002 63.3334V56.6668C130.002 53.0001 132.72 50.0001 136.074 50.0001C139.425 50.0001 142.147 53.0001 142.147 56.6668H154.967C157.947 56.6668 160.355 54.0218 160.355 50.7551C160.355 48.0435 158.703 45.7101 156.329 45.0218L143.098 41.2218C135.374 39.0001 130 31.3335 130 22.5768C130.002 11.9552 137.847 3.3335 147.534 3.3335H160.36C163.71 3.3335 166.432 6.33349 166.432 10.0002V16.6668C166.432 20.3551 163.707 23.3335 160.36 23.3335C157.006 23.3335 154.287 20.3551 154.287 16.6668H147.534C144.554 16.6668 142.147 19.3118 142.147 22.5785C142.147 25.2901 143.804 27.6451 146.168 28.3118L159.414 32.1118C167.126 34.3568 172.5 42.0001 172.5 50.7568C172.502 61.3784 164.663 70.0001 154.967 70.0001H136.074C132.72 70.0001 130.002 67.0218 130.002 63.3334Z" fill="#CEC4B2"/>
            <path fill-rule="evenodd" clip-rule="evenodd" d="M131.52 59.9998V53.3331C131.52 50.5781 133.56 48.3331 136.074 48.3331C138.586 48.3331 140.628 50.5781 140.628 53.3331V54.9998H154.967C158.787 54.9998 161.873 51.5998 161.873 47.4215C161.873 43.9548 159.758 40.9548 156.716 40.0665L143.484 36.2665C136.429 34.2431 131.52 27.2448 131.52 19.2432C131.52 9.53316 138.687 1.6665 147.534 1.6665H160.359C162.872 1.6665 164.914 3.9115 164.914 6.6665V13.3332C164.914 16.0882 162.872 18.3332 160.359 18.3332C157.845 18.3332 155.805 16.0882 155.805 13.3332V11.6665H147.534C143.716 11.6665 140.628 15.0665 140.628 19.2448C140.628 22.7115 142.752 25.7348 145.785 26.5998L159.03 30.3998C166.075 32.4448 170.982 39.4215 170.982 47.4231C170.983 57.1331 163.825 64.9998 154.967 64.9998H136.074C133.56 64.9998 131.52 62.7548 131.52 59.9998Z" fill="#BD9F67"/>
            <path fill-rule="evenodd" clip-rule="evenodd" d="M130.002 59.9999V53.3333C130.002 49.6666 132.72 46.6666 136.074 46.6666C139.425 46.6666 142.147 49.6666 142.147 53.3333H154.967C157.947 53.3333 160.355 50.6883 160.355 47.4216C160.355 44.71 158.703 42.3766 156.329 41.6883L143.098 37.8883C135.374 35.6666 130 28 130 19.2433C130.002 8.62166 137.847 0 147.534 0H160.36C163.71 0 166.432 3 166.432 6.66666V13.3333C166.432 17.0217 163.707 20 160.36 20C157.006 20 154.287 17.0217 154.287 13.3333H147.534C144.554 13.3333 142.147 15.9783 142.147 19.245C142.147 21.9566 143.804 24.3116 146.168 24.9783L159.414 28.7783C167.126 31.0233 172.5 38.6666 172.5 47.4233C172.502 58.0449 164.663 66.6666 154.967 66.6666H136.074C132.72 66.6666 130.002 63.6883 130.002 59.9999ZM169.465 47.4216C169.465 40.1766 165.025 33.8666 158.644 31.9983L145.401 28.1983C141.697 27.1533 139.11 23.465 139.11 19.2433C139.11 14.1333 142.877 9.99999 147.534 9.99999H155.805C156.642 9.99999 157.323 10.755 157.323 11.6667V13.3333C157.323 15.1783 158.684 16.6667 160.36 16.6667C162.034 16.6667 163.396 15.1783 163.396 13.3333V6.66666C163.396 4.82166 162.031 3.33333 160.36 3.33333H147.534C139.525 3.33333 133.038 10.4667 133.038 19.245C133.038 26.49 137.483 32.845 143.867 34.6683L157.1 38.4683C160.81 39.535 163.391 43.2016 163.391 47.4233C163.391 52.5333 159.625 56.6683 154.967 56.6683H140.628C139.79 56.6683 139.11 55.9133 139.11 55.0016V53.3349C139.11 51.4899 137.745 50.0016 136.074 50.0016C134.398 50.0016 133.038 51.4899 133.038 53.3349V60.0016C133.038 61.8466 134.398 63.3349 136.074 63.3349H154.967C162.986 63.3333 169.465 56.1999 169.465 47.4216Z" fill="white"/>
            <path fill-rule="evenodd" clip-rule="evenodd" d="M168.009 6.6665V9.99983H210.5V6.6665H168.009Z" fill="white"/>
            <path fill-rule="evenodd" clip-rule="evenodd" d="M183.937 63.3334V16.6668H173.313C170.379 16.6668 168 13.6885 168 10.0002C168 6.33349 170.379 3.3335 173.313 3.3335H205.186C208.117 3.3335 210.499 6.33349 210.499 10.0002C210.499 13.6885 208.114 16.6668 205.186 16.6668H194.561V63.3334C194.561 67.0218 192.177 70.0001 189.249 70.0001C186.316 70.0001 183.937 67.0218 183.937 63.3334Z" fill="#CEC4B2"/>
            <path fill-rule="evenodd" clip-rule="evenodd" d="M169.33 6.6665C169.33 3.9115 171.115 1.6665 173.314 1.6665H205.187C207.385 1.6665 209.172 3.9115 209.172 6.6665C209.172 9.4215 207.385 11.6665 205.187 11.6665H173.314C171.115 11.6665 169.33 9.4215 169.33 6.6665Z" fill="#BD9F67"/>
            <path fill-rule="evenodd" clip-rule="evenodd" d="M185.266 59.9998V6.6665C185.266 3.9115 187.051 1.6665 189.25 1.6665C191.448 1.6665 193.235 3.9115 193.235 6.6665V59.9998C193.235 62.7548 191.448 64.9998 189.25 64.9998C187.051 64.9998 185.266 62.7548 185.266 59.9998Z" fill="#BD9F67"/>
            <path fill-rule="evenodd" clip-rule="evenodd" d="M183.937 59.9999V13.3333H173.313C170.379 13.3333 168 10.355 168 6.66666C168 3 170.379 0 173.313 0H205.186C208.117 0 210.499 3 210.499 6.66666C210.499 10.355 208.114 13.3333 205.186 13.3333H194.561V59.9999C194.561 63.6883 192.177 66.6666 189.249 66.6666C186.316 66.6666 183.937 63.6883 183.937 59.9999ZM191.906 59.9999V11.6667C191.906 10.755 192.501 9.99999 193.235 9.99999H205.187C206.652 9.99999 207.844 8.51166 207.844 6.66666C207.844 4.845 206.649 3.33333 205.187 3.33333H173.314C171.848 3.33333 170.658 4.82166 170.658 6.66666C170.658 8.51166 171.848 9.99999 173.314 9.99999H185.267C185.999 9.99999 186.595 10.755 186.595 11.6667V59.9999C186.595 61.8449 187.785 63.3333 189.251 63.3333C190.715 63.3333 191.906 61.8449 191.906 59.9999Z" fill="white"/>
            </svg>