<svg width="144" height="80" viewBox="0 0 144 80" fill="none" xmlns="http://www.w3.org/2000/svg">
<path d="M18.24 49.71L20.34 51.84C22.53 54.03 23.76 57.18 23.76 60.57C23.76 66.72 19.02 72.48 12.66 72.48H2.73L0.6 70.35V46.65H10.53C13.71 46.65 16.32 47.82 18.24 49.71ZM1.95 48V69H10.53C16.29 69 20.28 63.69 20.28 58.44C20.28 53.22 16.95 48 10.53 48H1.95ZM9.93 64.65H6.9V52.35H9.93C13.5 52.35 15.3 55.35 15.3 58.32C15.3 61.44 13.5 64.65 9.93 64.65ZM13.53 56.1C13.08 55.92 12.57 55.83 12.06 55.83H10.38V63.27C12.84 63 13.95 60.57 13.95 58.32C13.95 57.48 13.8 56.73 13.53 56.1ZM35.9487 54.78L38.0787 56.91C38.9187 57.75 39.6087 58.83 40.0587 60.12L40.5087 61.74L40.5987 62.4V63.93L41.0487 64.38L40.7787 65.94C40.0887 70.29 35.9187 72.78 31.7187 72.78C28.9887 72.78 26.7087 71.85 25.0887 70.23L22.9887 68.1C21.3687 66.51 20.4387 64.2 20.4387 61.5C20.4387 56.1 24.1887 52.35 29.5887 52.35C32.0787 52.35 34.3287 53.16 35.9487 54.78ZM37.3287 63.6H32.4987C32.2587 63.93 31.4487 65.1 29.5887 65.1C27.7887 65.1 26.9187 63.99 26.6787 62.52H37.1187V60.27C36.5187 56.16 33.7287 53.7 29.5887 53.7C24.9087 53.7 21.7887 56.82 21.7887 61.5C21.7887 66.18 24.9087 69.3 29.5887 69.3C33.8487 69.3 36.8187 66.72 37.3287 63.6ZM32.2587 59.97H26.7987C27.1587 58.77 27.9987 57.9 29.5887 57.9C31.1187 57.9 31.8387 58.68 32.1687 59.4C32.2287 59.55 32.2287 59.7 32.2587 59.97ZM48.4235 52.65H56.5235L58.6535 54.78L51.5735 72.48H44.5535L42.4535 70.35L35.3735 52.65H43.4435L45.5735 54.78L46.5935 57.3L48.4235 52.65ZM48.5435 69L54.5435 54H49.3535L45.9635 62.52L42.5435 54H37.3535L43.3535 69H48.5435ZM66.2508 46.35C69.8508 46.35 72.9108 47.58 75.0408 49.71L77.1408 51.84C79.3008 53.97 80.5308 57 80.5308 60.63C80.5308 63.06 79.9608 65.58 78.5508 67.71L83.2908 72.48H74.5608L73.8108 71.7C72.0708 72.45 70.1808 72.78 68.3808 72.78C64.7508 72.78 61.7208 71.55 59.5908 69.39L57.4608 67.29C55.3308 65.16 54.1008 62.1 54.1008 58.5C54.1008 51.27 59.0208 46.35 66.2508 46.35ZM55.4508 58.5C55.4508 64.98 59.7708 69.3 66.2508 69.3C68.4108 69.3 70.3608 68.82 71.9508 67.95L73.0008 69H77.9208L74.6508 65.73C76.1808 63.9 77.0508 61.41 77.0508 58.5C77.0508 52.02 72.7308 47.7 66.2508 47.7C59.7708 47.7 55.4508 52.02 55.4508 58.5ZM60.4008 58.5C60.4008 54.72 62.5608 52.05 66.2508 52.05C69.9708 52.05 72.1008 54.69 72.1008 58.5C72.1008 59.97 71.8008 61.26 71.2008 62.28H66.2808L68.5608 64.56C67.8708 64.83 67.0908 64.95 66.2508 64.95C62.5608 64.95 60.4008 62.28 60.4008 58.5ZM70.2708 55.86C69.7008 55.65 69.0708 55.53 68.3808 55.53C65.2908 55.53 63.8808 57.72 63.8808 60.63V60.93H70.3608C70.6308 60.21 70.7508 59.37 70.7508 58.5C70.7508 57.48 70.5708 56.61 70.2708 55.86ZM65.6508 63.57L63.9708 61.89C64.0608 62.37 64.1808 62.85 64.3608 63.24C64.7508 63.42 65.2008 63.51 65.6508 63.57ZM87.6938 52.65H95.1938L97.3238 54.78V72.48H89.8238L89.6738 72.33C88.7438 72.69 87.7238 72.78 86.8538 72.78C85.0238 72.78 83.1038 71.88 81.8438 70.62L79.7138 68.49C78.5438 67.35 77.7938 65.76 77.7938 63.9V52.65H85.2938L87.4238 54.78V63.21C87.6338 63 87.6938 62.7 87.6938 62.25V52.65ZM93.8438 69V54H89.0438V62.25C89.0438 64.02 88.0838 64.77 86.4938 64.77C84.9038 64.77 83.9438 64.02 83.9438 62.25V54H79.1438V63.9C79.3838 68.43 83.4938 69.3 84.7238 69.3C87.3938 69.3 88.4738 68.31 89.0438 67.32V69H93.8438ZM110.568 54.78L112.698 56.91C113.538 57.75 114.228 58.83 114.678 60.12L115.128 61.74L115.218 62.4V63.93L115.668 64.38L115.398 65.94C114.708 70.29 110.538 72.78 106.338 72.78C103.608 72.78 101.328 71.85 99.7078 70.23L97.6078 68.1C95.9878 66.51 95.0578 64.2 95.0578 61.5C95.0578 56.1 98.8078 52.35 104.208 52.35C106.698 52.35 108.948 53.16 110.568 54.78ZM111.948 63.6H107.118C106.878 63.93 106.068 65.1 104.208 65.1C102.408 65.1 101.538 63.99 101.298 62.52H111.738V60.27C111.138 56.16 108.348 53.7 104.208 53.7C99.5278 53.7 96.4078 56.82 96.4078 61.5C96.4078 66.18 99.5278 69.3 104.208 69.3C108.468 69.3 111.438 66.72 111.948 63.6ZM106.878 59.97H101.418C101.778 58.77 102.618 57.9 104.208 57.9C105.738 57.9 106.458 58.68 106.788 59.4C106.848 59.55 106.848 59.7 106.878 59.97ZM125.286 54.42L127.416 56.55C128.406 57.54 129.066 58.98 129.066 60.93V62.28L127.116 62.31L127.836 63.03C128.706 63.9 129.306 65.07 129.306 66.63C129.306 71.13 125.556 72.78 121.536 72.78C119.436 72.78 116.976 72.09 115.356 70.47L113.226 68.34C112.206 67.32 111.516 65.91 111.516 64.05V62.7H114.156C112.926 61.65 112.146 60.15 112.146 58.2C112.146 54.06 115.626 52.35 119.376 52.35C121.506 52.35 123.786 52.92 125.286 54.42ZM125.826 64.5C125.826 62.19 124.296 60.81 120.576 60.03C118.866 59.67 118.266 59.28 118.266 58.56C118.266 57.84 118.626 57.33 119.376 57.33C120.126 57.33 120.786 57.9 120.786 58.8H125.586C125.586 55.32 122.976 53.7 119.376 53.7C115.806 53.7 113.496 55.32 113.496 58.2C113.496 60.45 114.936 62.31 117.516 62.94C119.796 63.51 121.086 64.05 121.086 64.71C121.086 65.37 120.516 65.67 119.376 65.67C118.326 65.67 117.666 65.07 117.666 64.05H112.866C112.866 67.32 115.806 69.3 119.406 69.3C123.426 69.3 125.826 67.71 125.826 64.5ZM137.726 52.65H139.766L141.896 54.78V61.68H137.726V63.75H140.096L142.226 65.88V72.78H138.776C135.536 72.78 133.316 72.36 131.966 71.01L129.836 68.88C128.636 67.68 128.096 65.76 128.096 62.7V61.68H127.646L125.516 59.55V52.65H128.096V48.9H135.596L137.726 51.03V52.65ZM134.246 62.7V58.2H138.416V54H134.246V50.25H129.446V54H126.866V58.2H129.446V62.7C129.446 67.68 130.466 69.3 136.646 69.3H138.746V65.1H136.646C134.636 65.1 134.246 64.32 134.246 62.7Z" fill="white"/>
<path d="M16.7686 8.53793C17.1662 8.31002 17.2605 8.18828 17.2605 7.53108V6.5828C17.2629 6.02079 17.1154 5.86884 16.6874 6.11141M16.7686 8.53793L14.3783 10.1843L14.4787 10.1295L16.7546 11.3654M16.7686 8.53793L16.6194 8.27766C16.6203 8.27715 16.6212 8.27664 16.6221 8.27613M16.7686 8.53793L16.6249 8.2746L16.6221 8.27613M16.6874 6.11141L12.1399 8.84731M16.6874 6.11141L16.8421 6.36847L16.8386 6.37057M16.6874 6.11141L16.8353 6.3724C16.8364 6.37178 16.8375 6.37117 16.8386 6.37057M12.1399 8.84731C11.7981 9.07523 11.6882 9.21344 11.6882 9.6226V10.3823C11.6882 10.7924 11.7973 10.9141 12.1399 11.142M12.1399 8.84731L12.3064 9.09693C12.3045 9.0982 12.3026 9.09946 12.3007 9.10072M12.1399 8.84731L12.2946 9.10438L12.3007 9.10072M12.1399 11.142L16.6874 13.888C17.1121 14.1315 17.2613 13.9795 17.2613 13.4166V12.3722C17.2613 11.7187 17.1793 11.597 16.7546 11.3654M12.1399 11.142L12.295 10.8852L12.3007 10.8887M12.1399 11.142L12.3061 10.8922C12.3043 10.891 12.3025 10.8898 12.3007 10.8887M16.7546 11.3654L16.6115 11.629L16.6113 11.6289C16.8225 11.7441 16.8735 11.7961 16.9012 11.8493C16.9365 11.917 16.9613 12.04 16.9613 12.3722V13.4166C16.9613 13.5373 16.9536 13.6228 16.942 13.6808M16.7546 11.3654L16.611 11.6288L14.0914 10.2606L13.9346 10.1754V9.99696V9.92099V9.74295L14.0908 9.65766L16.6221 8.27613M16.6221 8.27613C16.8176 8.16384 16.8683 8.1132 16.8974 8.05721C16.9334 7.98792 16.9605 7.86123 16.9605 7.53108V6.5828V6.58149C16.961 6.46177 16.9539 6.37681 16.9426 6.31904M16.9426 6.31904C16.972 6.30704 16.9914 6.30202 17.0023 6.30039C17.0046 6.30003 17.0057 6.29998 17.0057 6.29998C17.0057 6.29999 16.9995 6.30033 16.9887 6.29781C16.9717 6.29379 16.9536 6.28488 16.9391 6.27228C16.9285 6.26311 16.9245 6.2563 16.9244 6.25631C16.9244 6.25633 16.9315 6.26861 16.9395 6.30391C16.9406 6.30873 16.9416 6.31377 16.9426 6.31904ZM16.9426 6.31904C16.9163 6.32977 16.882 6.3461 16.8386 6.37057M16.8386 6.37057L12.3007 9.10072M12.3007 9.10072C12.137 9.21028 12.0743 9.27063 12.0415 9.3241C12.0132 9.37001 11.9882 9.44213 11.9882 9.6226V10.3823C11.9882 10.564 12.0133 10.6296 12.0387 10.6695C12.0706 10.7196 12.1318 10.776 12.3007 10.8887M12.3007 10.8887L16.8394 13.6294M16.8394 13.6294C16.8385 13.6288 16.8376 13.6283 16.8366 13.6278L16.6874 13.888L16.8425 13.6312L16.8394 13.6294ZM16.8394 13.6294C16.8822 13.6538 16.916 13.67 16.942 13.6808M16.942 13.6808C16.941 13.6856 16.94 13.6903 16.939 13.6947C16.9307 13.7305 16.9234 13.7429 16.9235 13.7429C16.9235 13.7429 16.9274 13.7364 16.9377 13.7275C16.9521 13.7151 16.97 13.7062 16.9871 13.7022C17.0025 13.6986 17.0089 13.7008 17.0013 13.6996C16.9906 13.698 16.9714 13.693 16.942 13.6808Z" fill="white" stroke="white" stroke-width="0.6"/>
<path d="M21.8457 4.61913L21.8458 4.61917L21.8483 4.61069C21.903 4.41796 21.9507 4.36187 21.9757 4.34212C21.9961 4.32593 22.0439 4.3 22.2065 4.3H23.2624C23.289 4.3 23.3102 4.30116 23.3268 4.30281C23.3221 4.33469 23.3119 4.3788 23.2932 4.43797L23.293 4.43836L19.8354 15.3799L19.8353 15.3799L19.8329 15.3884C19.7781 15.5814 19.7304 15.6378 19.7054 15.6578C19.685 15.6739 19.6374 15.7 19.4747 15.7H18.4188C18.3948 15.7 18.3754 15.6991 18.36 15.6977C18.3641 15.6641 18.3733 15.6179 18.3905 15.5558L21.8457 4.61913Z" fill="white" stroke="white" stroke-width="0.6"/>
<path d="M27.6025 9.71872L25.0899 8.35227C25.0899 8.35224 25.0898 8.3522 25.0897 8.35217C24.8774 8.23617 24.8217 8.18327 24.7911 8.12716C24.7547 8.06043 24.727 7.93818 24.727 7.60996V6.57786C24.727 6.45539 24.7375 6.3711 24.7516 6.31699C24.776 6.32793 24.8087 6.34536 24.8506 6.37272L24.8505 6.37288L24.8596 6.37838L29.3885 9.11737C29.5481 9.22445 29.6132 9.28878 29.6471 9.34386C29.6764 9.39147 29.7 9.46129 29.7 9.62299V10.3818C29.7 10.5443 29.6765 10.62 29.6451 10.6729C29.6106 10.7309 29.5448 10.7982 29.3888 10.9027L24.86 13.6316L24.8588 13.6323C24.8126 13.6605 24.7773 13.6773 24.7519 13.6872C24.7378 13.6355 24.727 13.5531 24.727 13.4315V12.4451C24.727 12.1373 24.7566 12.0081 24.7962 11.9335C24.8306 11.8688 24.8911 11.8095 25.079 11.7011L27.6031 10.3214L27.7592 10.236V10.0581V9.98227V9.80392L27.6025 9.71872Z" fill="white" stroke="white" stroke-width="0.6"/>
<mask id="path-5-inside-1_296_1597" fill="white">
<path d="M50.2833 0V2.59615C50.2822 3.28445 49.8973 3.94433 49.213 4.43103C48.5288 4.91773 47.601 5.19151 46.6333 5.19231H36.9C35.2866 5.19231 33.7393 5.64818 32.5984 6.45963C31.4576 7.27109 30.8167 8.37166 30.8167 9.51923C30.8167 10.6668 31.4576 11.7674 32.5984 12.5788C33.7393 13.3903 35.2866 13.8462 36.9 13.8462H66.1C67.0677 13.847 67.9954 14.1207 68.6797 14.6074C69.364 15.0941 69.7489 15.754 69.75 16.4423V19.0385H17.4333C16.7882 19.039 16.1697 19.2215 15.7136 19.546C15.2574 19.8705 15.0008 20.3104 15 20.7692V43.2692C15.0008 43.7281 15.2574 44.168 15.7136 44.4925C16.1697 44.8169 16.7882 44.9995 17.4333 45H85.5667C86.2118 44.9995 86.8303 44.8169 87.2865 44.4925C87.7426 44.168 87.9992 43.7281 88 43.2692V20.7692C87.9992 20.3104 87.7426 19.8705 87.2865 19.546C86.8303 19.2215 86.2118 19.039 85.5667 19.0385H72.1833V16.4423C72.1815 15.2951 71.54 14.1953 70.3996 13.3841C69.2591 12.573 67.7128 12.1167 66.1 12.1154H36.9C35.932 12.1154 35.0036 11.8419 34.3191 11.355C33.6346 10.8681 33.25 10.2078 33.25 9.51923C33.25 8.83069 33.6346 8.17035 34.3191 7.68347C35.0036 7.1966 35.932 6.92308 36.9 6.92308H46.6333C48.2462 6.92179 49.7924 6.4655 50.9329 5.65433C52.0734 4.84315 52.7149 3.74333 52.7167 2.59615V0H50.2833ZM17.4318 20.7692H17.4333H85.5667V39.8077H17.4333L17.4318 20.7692ZM19.8667 22.5V24.2308H22.3V22.5H19.8667ZM24.7333 22.5V24.2308H27.1667V22.5H24.7333ZM29.6 22.5V24.2308H32.0333V22.5H29.6ZM34.4667 22.5V24.2308H36.9V22.5H34.4667ZM39.3333 22.5V24.2308H41.7667V22.5H39.3333ZM44.2 22.5V24.2308H46.6333V22.5H44.2ZM49.0667 22.5V24.2308H51.5V22.5H49.0667ZM53.9333 22.5V24.2308H56.3667V22.5H53.9333ZM58.8 22.5V24.2308H61.2333V22.5H58.8ZM63.6667 22.5V24.2308H66.1V22.5H63.6667ZM68.5333 22.5V24.2308H70.9667V22.5H68.5333ZM73.4 22.5V24.2308H75.8333V22.5H73.4ZM78.2667 22.5V24.2308H83.1333V22.5H78.2667ZM19.8667 25.9615V27.6923H23.5167V25.9615H19.8667ZM25.95 25.9615V27.6923H28.3833V25.9615H25.95ZM30.8167 25.9615V27.6923H33.25V25.9615H30.8167ZM35.6833 25.9615V27.6923H38.1167V25.9615H35.6833ZM40.55 25.9615V27.6923H42.9833V25.9615H40.55ZM45.4167 25.9615V27.6923H47.85V25.9615H45.4167ZM50.2833 25.9615V27.6923H52.7167V25.9615H50.2833ZM55.15 25.9615V27.6923H57.5833V25.9615H55.15ZM60.0167 25.9615V27.6923H62.45V25.9615H60.0167ZM64.8833 25.9615V27.6923H67.3167V25.9615H64.8833ZM69.75 25.9615V27.6923H72.1833V25.9615H69.75ZM74.6167 25.9615V27.6923H77.05V25.9615H74.6167ZM79.4833 25.9615V27.6923H83.1333V25.9615H79.4833ZM19.8667 29.4231V31.1538H24.7333V29.4231H19.8667ZM27.1667 29.4231V31.1538H29.6V29.4231H27.1667ZM32.0333 29.4231V31.1538H34.4667V29.4231H32.0333ZM36.9 29.4231V31.1538H39.3333V29.4231H36.9ZM41.7667 29.4231V31.1538H44.2V29.4231H41.7667ZM46.6333 29.4231V31.1538H49.0667V29.4231H46.6333ZM51.5 29.4231V31.1538H53.9333V29.4231H51.5ZM56.3667 29.4231V31.1538H58.8V29.4231H56.3667ZM61.2333 29.4231V31.1538H63.6667V29.4231H61.2333ZM66.1 29.4231V31.1538H68.5333V29.4231H66.1ZM70.9667 29.4231V31.1538H73.4V29.4231H70.9667ZM75.8333 29.4231V31.1538H80.7V32.8846H83.1333V29.4231H75.8333ZM19.8667 32.8846V34.6154H27.1667V32.8846H19.8667ZM29.6 32.8846V34.6154H32.0333V32.8846H29.6ZM34.4667 32.8846V34.6154H36.9V32.8846H34.4667ZM39.3333 32.8846V34.6154H41.7667V32.8846H39.3333ZM44.2 32.8846V34.6154H46.6333V32.8846H44.2ZM49.0667 32.8846V34.6154H51.5V32.8846H49.0667ZM53.9333 32.8846V34.6154H56.3667V32.8846H53.9333ZM58.8 32.8846V34.6154H61.2333V32.8846H58.8ZM63.6667 32.8846V34.6154H66.1V32.8846H63.6667ZM68.5333 32.8846V34.6154H70.9667V32.8846H68.5333ZM73.4 32.8846V34.6154H75.8333V32.8846H73.4ZM78.2667 34.6154V36.3462H75.8333V38.0769H83.1333V36.3462H80.7V34.6154H78.2667ZM19.8667 36.3462V38.0769H22.3V36.3462H19.8667ZM24.7333 36.3462V38.0769H27.1667V36.3462H24.7333ZM29.6 36.3462V38.0769H32.0333V36.3462H29.6ZM34.4667 36.3462V38.0769H63.6667V36.3462H34.4667ZM66.1 36.3462V38.0769H68.5333V36.3462H66.1ZM70.9667 36.3462V38.0769H73.4V36.3462H70.9667ZM17.4333 41.5385H85.5667V43.2692H17.4333V41.5385Z"/>
</mask>
<path d="M50.2833 0V2.59615C50.2822 3.28445 49.8973 3.94433 49.213 4.43103C48.5288 4.91773 47.601 5.19151 46.6333 5.19231H36.9C35.2866 5.19231 33.7393 5.64818 32.5984 6.45963C31.4576 7.27109 30.8167 8.37166 30.8167 9.51923C30.8167 10.6668 31.4576 11.7674 32.5984 12.5788C33.7393 13.3903 35.2866 13.8462 36.9 13.8462H66.1C67.0677 13.847 67.9954 14.1207 68.6797 14.6074C69.364 15.0941 69.7489 15.754 69.75 16.4423V19.0385H17.4333C16.7882 19.039 16.1697 19.2215 15.7136 19.546C15.2574 19.8705 15.0008 20.3104 15 20.7692V43.2692C15.0008 43.7281 15.2574 44.168 15.7136 44.4925C16.1697 44.8169 16.7882 44.9995 17.4333 45H85.5667C86.2118 44.9995 86.8303 44.8169 87.2865 44.4925C87.7426 44.168 87.9992 43.7281 88 43.2692V20.7692C87.9992 20.3104 87.7426 19.8705 87.2865 19.546C86.8303 19.2215 86.2118 19.039 85.5667 19.0385H72.1833V16.4423C72.1815 15.2951 71.54 14.1953 70.3996 13.3841C69.2591 12.573 67.7128 12.1167 66.1 12.1154H36.9C35.932 12.1154 35.0036 11.8419 34.3191 11.355C33.6346 10.8681 33.25 10.2078 33.25 9.51923C33.25 8.83069 33.6346 8.17035 34.3191 7.68347C35.0036 7.1966 35.932 6.92308 36.9 6.92308H46.6333C48.2462 6.92179 49.7924 6.4655 50.9329 5.65433C52.0734 4.84315 52.7149 3.74333 52.7167 2.59615V0H50.2833ZM17.4318 20.7692H17.4333H85.5667V39.8077H17.4333L17.4318 20.7692ZM19.8667 22.5V24.2308H22.3V22.5H19.8667ZM24.7333 22.5V24.2308H27.1667V22.5H24.7333ZM29.6 22.5V24.2308H32.0333V22.5H29.6ZM34.4667 22.5V24.2308H36.9V22.5H34.4667ZM39.3333 22.5V24.2308H41.7667V22.5H39.3333ZM44.2 22.5V24.2308H46.6333V22.5H44.2ZM49.0667 22.5V24.2308H51.5V22.5H49.0667ZM53.9333 22.5V24.2308H56.3667V22.5H53.9333ZM58.8 22.5V24.2308H61.2333V22.5H58.8ZM63.6667 22.5V24.2308H66.1V22.5H63.6667ZM68.5333 22.5V24.2308H70.9667V22.5H68.5333ZM73.4 22.5V24.2308H75.8333V22.5H73.4ZM78.2667 22.5V24.2308H83.1333V22.5H78.2667ZM19.8667 25.9615V27.6923H23.5167V25.9615H19.8667ZM25.95 25.9615V27.6923H28.3833V25.9615H25.95ZM30.8167 25.9615V27.6923H33.25V25.9615H30.8167ZM35.6833 25.9615V27.6923H38.1167V25.9615H35.6833ZM40.55 25.9615V27.6923H42.9833V25.9615H40.55ZM45.4167 25.9615V27.6923H47.85V25.9615H45.4167ZM50.2833 25.9615V27.6923H52.7167V25.9615H50.2833ZM55.15 25.9615V27.6923H57.5833V25.9615H55.15ZM60.0167 25.9615V27.6923H62.45V25.9615H60.0167ZM64.8833 25.9615V27.6923H67.3167V25.9615H64.8833ZM69.75 25.9615V27.6923H72.1833V25.9615H69.75ZM74.6167 25.9615V27.6923H77.05V25.9615H74.6167ZM79.4833 25.9615V27.6923H83.1333V25.9615H79.4833ZM19.8667 29.4231V31.1538H24.7333V29.4231H19.8667ZM27.1667 29.4231V31.1538H29.6V29.4231H27.1667ZM32.0333 29.4231V31.1538H34.4667V29.4231H32.0333ZM36.9 29.4231V31.1538H39.3333V29.4231H36.9ZM41.7667 29.4231V31.1538H44.2V29.4231H41.7667ZM46.6333 29.4231V31.1538H49.0667V29.4231H46.6333ZM51.5 29.4231V31.1538H53.9333V29.4231H51.5ZM56.3667 29.4231V31.1538H58.8V29.4231H56.3667ZM61.2333 29.4231V31.1538H63.6667V29.4231H61.2333ZM66.1 29.4231V31.1538H68.5333V29.4231H66.1ZM70.9667 29.4231V31.1538H73.4V29.4231H70.9667ZM75.8333 29.4231V31.1538H80.7V32.8846H83.1333V29.4231H75.8333ZM19.8667 32.8846V34.6154H27.1667V32.8846H19.8667ZM29.6 32.8846V34.6154H32.0333V32.8846H29.6ZM34.4667 32.8846V34.6154H36.9V32.8846H34.4667ZM39.3333 32.8846V34.6154H41.7667V32.8846H39.3333ZM44.2 32.8846V34.6154H46.6333V32.8846H44.2ZM49.0667 32.8846V34.6154H51.5V32.8846H49.0667ZM53.9333 32.8846V34.6154H56.3667V32.8846H53.9333ZM58.8 32.8846V34.6154H61.2333V32.8846H58.8ZM63.6667 32.8846V34.6154H66.1V32.8846H63.6667ZM68.5333 32.8846V34.6154H70.9667V32.8846H68.5333ZM73.4 32.8846V34.6154H75.8333V32.8846H73.4ZM78.2667 34.6154V36.3462H75.8333V38.0769H83.1333V36.3462H80.7V34.6154H78.2667ZM19.8667 36.3462V38.0769H22.3V36.3462H19.8667ZM24.7333 36.3462V38.0769H27.1667V36.3462H24.7333ZM29.6 36.3462V38.0769H32.0333V36.3462H29.6ZM34.4667 36.3462V38.0769H63.6667V36.3462H34.4667ZM66.1 36.3462V38.0769H68.5333V36.3462H66.1ZM70.9667 36.3462V38.0769H73.4V36.3462H70.9667ZM17.4333 41.5385H85.5667V43.2692H17.4333V41.5385Z" fill="#FEFEFE" stroke="white" stroke-width="2" mask="url(#path-5-inside-1_296_1597)"/>
</svg>
