<svg width="584" height="260" viewBox="0 0 584 260" fill="none" xmlns="http://www.w3.org/2000/svg">
<path d="M289.331 12.7593C298.451 29.3279 305.067 49.678 307.667 77.1413C308.033 86.3092 308.03 95.3586 307.969 104.563C307.972 106.902 307.975 109.242 307.978 111.652C307.894 140.253 305.505 166.063 297.353 187.425C293.207 197.061 288.528 204.007 283.54 210.674C283.859 213.035 284.177 215.396 284.505 217.828C291.81 224.572 300.349 219.105 307.667 215.443C307.667 225.673 307.667 235.903 307.667 246.442C296.203 259.169 284.568 264.318 272.11 255.841C266.002 248.809 261.645 239.727 258.448 224.981C258.051 221.879 258.051 221.879 257.645 218.713C256.719 212.613 256.719 212.613 254.313 210.395C252.986 209.5 252.986 209.5 251.632 208.588C241.857 200.632 235.42 185.108 230.461 162.984C226.942 145.248 227.068 128.251 227.083 108.736C227.056 105.65 227.028 102.564 227 99.3844C226.976 69.467 230.186 46.8134 238.626 25.157C250.85 -1.00338 275.23 -9.43368 289.331 12.7593Z" fill="#2AAFFC"/>
<path d="M0 6.07479C10.9178 5.78095 10.9178 5.78095 22.0561 5.48117C25.4694 5.35147 25.4694 5.35147 28.9517 5.21914C30.7887 5.19136 32.6257 5.16717 34.4627 5.14726C35.3894 5.09867 36.3162 5.05008 37.271 5.00002C48.6848 4.9858 57.4813 15.0374 65.6547 34.1234C73.6153 54.668 75.1365 76.5162 74.9908 104.171C74.9795 107.012 74.9682 109.854 74.9566 112.782C74.6454 143.288 72.0608 164.025 63.1583 186.322C54.4994 205.443 45.372 211.433 33.8962 210.976C33.0306 210.969 32.1651 210.962 31.2734 210.954C28.08 210.917 24.8868 210.818 21.6936 210.726C14.5347 210.579 7.37581 210.432 0 210.28C0 142.893 0 75.5047 0 6.07479Z" fill="#2AAFFD"/>
<path d="M319.109 56C327.003 56 334.897 56 343.029 56C343.076 63.4532 343.123 70.9065 343.172 78.5856C343.223 85.7939 343.278 93.002 343.333 100.21C343.37 105.225 343.403 110.239 343.433 115.254C343.477 122.457 343.532 129.659 343.59 136.861C343.601 139.108 343.612 141.355 343.624 143.67C343.643 145.759 343.662 147.849 343.681 150.001C343.694 151.84 343.707 153.679 343.72 155.573C343.883 161.13 343.883 161.13 345.9 167.51C349.249 168.696 349.249 168.696 352.598 167.51C354.577 160.147 354.758 158.377 354.816 150.001C354.835 147.912 354.854 145.822 354.874 143.67C354.885 141.423 354.896 139.176 354.907 136.861C354.926 134.554 354.945 132.247 354.964 129.87C355.021 122.498 355.065 115.125 355.109 107.751C355.146 102.754 355.183 97.7575 355.221 92.7606C355.315 80.5073 355.391 68.2543 355.468 56C363.362 56 371.256 56 379.389 56C379.704 95.1471 380.02 134.294 380.345 174.628C382.871 174.628 385.397 174.628 388 174.628C388 185.589 388 196.55 388 207.843C383.515 212.292 380.308 213.384 375.621 213.33C374.63 213.387 374.63 213.387 373.62 213.446C369.081 213.456 366.009 211.414 362.166 205.471C360.013 199.243 360.013 199.243 358.339 193.608C357.391 192.434 357.391 192.434 356.425 191.235C356.193 192.667 355.961 194.098 355.722 195.573C353.369 205.585 349.246 209.123 344.943 212.588C337.896 215.051 331.253 215.371 325.377 204.451C322.919 198.281 321.558 191.96 320.066 184.118C319.75 182.552 319.434 180.986 319.109 179.373C319.022 175.423 318.997 171.464 319 167.509C319 165.039 319.001 162.569 319.001 160.025C319.006 157.351 319.01 154.677 319.016 151.921C319.017 149.19 319.018 146.458 319.02 143.644C319.025 134.892 319.037 126.141 319.049 117.39C319.054 111.468 319.058 105.546 319.062 99.6234C319.072 85.0822 319.091 70.5412 319.109 56Z" fill="#2AADFA"/>
<path d="M450.851 66.4963C456.089 76.8283 458.749 87.8129 461 103.46C461 116.029 461 128.599 461 141.549C447.799 141.549 434.599 141.549 420.998 141.549C422.361 168.781 422.361 168.781 426.713 174.877C429.68 175.401 432.43 174.586 435.285 172.496C437.402 166.212 438.06 161.206 439.094 153.452C446.323 153.452 453.552 153.452 461 153.452C461 170.67 459.299 180.765 454.672 193.456C445.235 214.86 433.503 214.859 421.402 213.515C414.102 211.777 406.817 202.772 401.95 189.16C395.897 162.802 393.724 138.816 395.722 108.76C398.08 88.9972 403.093 74.2574 410.079 63.595C422.583 47.6954 438.861 47.667 450.851 66.4963Z" fill="#2AAEFB"/>
<path d="M136.622 64.7138C141.859 75.3246 145.47 85.4723 148 101.06C148 114.376 148 127.692 148 141.412C134.968 141.412 121.936 141.412 108.51 141.412C108.856 161.518 108.856 161.518 113.326 174.642C116.655 176.621 116.655 176.621 120.068 174.642C123.659 167.716 124.73 164.292 125.847 153.28C133.157 153.28 140.468 153.28 148 153.28C147.041 174.547 146.144 182.388 140.174 196.302C130.198 215.764 118.808 215.388 106.583 212.62C98.6338 209.11 92.5233 199.306 87.3199 184.137C81.725 160.877 81.4067 134.548 82.504 108.181C84.211 93.449 87.358 82.3883 92.1358 72.5764C92.6076 71.5575 93.0794 70.5386 93.5655 69.4888C105.354 46.0411 123.768 47.9429 136.622 64.7138Z" fill="#2AAFFC"/>
<path d="M523.285 67.1577C527.998 77.1253 527.998 77.1253 529.465 84.4174C529.465 90.7057 529.465 96.994 529.465 103.473C522.825 103.473 516.185 103.473 509.343 103.473C508.869 99.9357 508.869 99.9357 508.385 96.3271C505.65 91.8385 503.48 90.9649 500.241 91.1166C499.52 91.132 498.798 91.1473 498.055 91.1631C495.968 91.556 494.107 92.5255 492.097 93.9452C492.097 97.0893 492.097 100.233 492.097 103.473C497.51 106.388 502.886 108.646 508.385 110.321C515.522 112.831 522.708 115.783 527.608 129.972C531.597 144.686 531.364 162.405 530.423 179.695C528.111 195.164 523.164 201.862 517.36 208.492C511.516 214.078 505.844 213.652 499.642 213.786C498.597 213.855 497.552 213.924 496.476 213.996C488.231 214.155 482.006 209.993 474.97 199.346C471.393 189.932 469.17 180.239 469 167.171C469.033 165.016 469.067 162.86 469.101 160.639C472.394 160.294 475.687 160.082 478.982 159.895C479.918 159.795 480.853 159.695 481.817 159.593C484.37 159.484 486.71 159.484 489.222 160.639C491.18 166.492 491.18 166.492 492.097 172.549C494.57 175.623 496.403 175.247 499.163 175.229C500.08 175.235 500.996 175.241 501.94 175.247C504.247 174.968 506.181 174.185 508.385 172.549C508.385 169.405 508.385 166.261 508.385 163.021C507.255 162.447 507.255 162.447 506.102 161.861C502.668 160.096 499.239 158.284 495.81 156.471C494.624 155.869 493.438 155.267 492.216 154.647C481.377 148.852 481.377 148.852 476.766 139.202C476.055 137.728 475.343 136.254 474.61 134.736C471.171 124.353 470.526 112.547 470.651 99.4441C471.475 87.09 474.487 78.1748 477.964 69.5303C491.033 48.8561 510.034 44.5069 523.285 67.1577Z" fill="#2AAEFB"/>
<path d="M155 58C163.528 58 172.056 58 180.843 58C181.783 67.2246 182.72 76.4503 183.653 85.6795C184.125 90.3454 184.601 95.009 185.077 99.6725C185.526 104.122 185.526 104.122 185.984 108.661C186.259 111.377 186.535 114.094 186.819 116.893C187.56 125.125 188.066 133.308 188.5 141.672C189.132 141.672 189.763 141.672 190.414 141.672C190.518 140.094 190.623 138.517 190.73 136.891C191.881 120.211 193.437 104.028 195.26 87.7334C195.646 84.2087 195.646 84.2087 196.039 80.6129C197.934 63.4697 197.934 63.4697 199.029 58C206.609 58 214.19 58 222 58C220.137 75.0587 218.254 92.04 216.197 108.95C215.782 112.369 215.782 112.369 215.358 115.857C211.435 147.771 207.119 179.359 202.857 211C193.381 211 183.906 211 174.143 211C170.554 182.761 170.554 182.761 169.448 174.031C167.598 159.541 165.628 145.222 163.52 130.954C162.275 122.271 161.22 113.483 160.204 104.617C160.018 103.018 159.831 101.418 159.638 99.7706C158.025 85.8893 156.523 71.9481 155 58Z" fill="#2AAEFC"/>
<path d="M555.277 8C560.016 8 564.755 8 569.638 8C569.638 24.5134 569.638 41.0268 569.638 58.0407C574.378 58.0407 579.117 58.0407 584 58.0407C584 71.4087 584 84.7767 584 98.5498C579.261 98.5498 574.521 98.5498 569.638 98.5498C569.696 109.475 569.779 120.392 569.878 131.314C569.891 134.417 569.905 137.519 569.919 140.716C569.95 143.695 569.981 146.675 570.012 149.745C570.032 152.49 570.052 155.235 570.073 158.064C570.698 166.681 571.657 169.554 574.426 174.802C576.901 175.947 576.901 175.947 579.452 175.398C580.953 175.201 582.454 175.005 584 174.802C584 185.811 584 196.82 584 208.163C578.308 212.224 573.156 213.798 567.245 213.822C566.476 213.88 565.707 213.939 564.915 213.999C559.318 214.067 555.185 211.077 550.489 203.397C545.972 191.78 545.425 178.635 545.515 163.065C545.519 160.392 545.519 160.392 545.523 157.666C545.534 152.01 545.558 146.354 545.582 140.697C545.592 136.848 545.601 132.999 545.609 129.15C545.63 119.744 545.663 110.339 545.702 100.933C543.49 100.933 541.279 100.933 539 100.933C539 85.992 539 71.0512 539 55.6578C541.844 55.6578 544.687 55.6578 547.617 55.6578C548.18 51.1608 548.18 51.1608 548.754 46.573C550.53 33.2303 552.883 20.7209 555.277 8Z" fill="#2AAEFB"/>
<path d="M271.828 48.5204C275.579 53.5036 278.339 58.4249 280.49 67.5182C280.782 73.5739 280.918 79.0356 280.907 85.0875C280.912 86.7797 280.917 88.4718 280.922 90.2153C280.929 93.7881 280.927 97.3609 280.919 100.934C280.911 106.371 280.939 111.802 280.969 117.239C280.971 120.721 280.97 124.202 280.967 127.684C280.983 130.1 280.983 130.1 281 132.565C280.931 144.355 279.604 151.019 276.64 160.132C272.603 167.033 267.886 166.7 263.167 164.882C259.435 160.165 256.959 153.138 255.468 143.509C255.084 133.063 255.11 122.606 255.111 112.123C255.107 107.03 255.072 101.942 255.035 96.8498C255.03 93.5846 255.026 90.3193 255.024 87.054C255.016 84.105 255.008 81.1559 255 78.1175C255.556 68.3412 256.825 63.2797 259.317 55.6446C263.519 48.7333 266.819 46.9754 271.828 48.5204Z" fill="#09142E"/>
<path d="M25 51C39.9928 51 39.9928 51 44.3587 62.1317C46.1097 69.9262 45.9798 76.0181 45.989 84.9674C45.9917 86.6228 45.9944 88.2782 45.9972 89.9837C45.9991 93.4764 45.9939 96.9691 45.9822 100.462C45.9671 105.785 45.982 111.105 46 116.429C45.9981 119.831 45.9945 123.233 45.989 126.636C45.9858 129.716 45.9827 132.796 45.9794 135.969C45.5924 144.719 44.8655 149.168 42.8044 156.141C37.0764 167.288 32.9592 163.31 25 163.31C25 126.248 25 89.1853 25 51Z" fill="#09142F"/>
<path d="M118.438 90.1048C121.692 92.2248 123.118 97.1546 125 104.657C125 109.06 125 113.463 125 118C119.72 118 114.44 118 109 118C109 101.988 109 101.988 110.412 95.6505C113.116 90.667 115.217 89.6269 118.438 90.1048Z" fill="#0A1631"/>
<path d="M431.441 90.1618C433.235 91.1882 433.235 91.1882 435.588 95.5451C437 101.913 437 101.913 437 118C431.72 118 426.44 118 421 118C421.941 101.913 421.941 101.913 423.412 95.5451C426.241 90.1722 428.094 89.6281 431.441 90.1618Z" fill="#091530"/>
</svg>
