<svg width="400" height="400" viewBox="0 0 1280 1280" fill="none" xmlns="http://www.w3.org/2000/svg">
<path d="M651.332 359.488C655.096 361.621 658.742 363.901 662.375 366.25C669.514 370.811 676.695 375.292 683.938 379.687C684.886 380.263 685.834 380.839 686.812 381.432C689.874 383.289 692.937 385.145 696 387C716.2 399.238 736.378 411.503 756.309 424.178C761.287 427.329 766.303 430.411 771.344 433.461C771.98 433.846 772.617 434.231 773.273 434.628C776.457 436.554 779.644 438.474 782.834 440.389C784.005 441.095 785.177 441.802 786.348 442.508C787.389 443.133 788.431 443.758 789.504 444.403C792 446 792 446 794 448C794.206 450.945 794.206 450.945 794.144 454.803C794.136 455.511 794.127 456.219 794.119 456.948C794.089 459.333 794.045 461.717 794.001 464.101C793.978 465.806 793.956 467.511 793.935 469.216C793.9 471.944 793.865 474.673 793.826 477.401C793.729 484.177 793.667 490.953 793.626 497.73C793.62 498.713 793.614 499.697 793.608 500.709C793.583 504.768 793.56 508.826 793.537 512.884C793.47 524.403 793.371 535.919 793.174 547.436C793.018 556.582 792.933 565.725 792.931 574.871C792.927 579.711 792.887 584.545 792.761 589.383C791.361 608.351 791.361 608.351 796.944 625.755C801.566 629.978 806.639 632.25 812.552 634.14C816.248 635.438 819.229 637.419 822.5 639.562C823.48 640.162 824.459 640.761 825.469 641.379C827.733 642.829 829.877 644.352 832 646C830.511 649.912 828.455 651.263 824.898 653.355C823.858 653.974 822.817 654.593 821.745 655.231C820.633 655.876 819.521 656.522 818.375 657.187C817.247 657.849 816.118 658.511 814.956 659.193C812.691 660.519 810.423 661.84 808.153 663.157C805.413 664.758 802.7 666.394 799.996 668.055C798.602 668.891 797.208 669.727 795.813 670.562C795.197 670.95 794.582 671.338 793.949 671.737C791.033 673.439 789.417 674.068 786.047 673.515C782.309 671.656 778.897 669.517 775.438 667.187C773.92 666.187 772.402 665.188 770.883 664.191C769.688 663.406 769.688 663.406 768.47 662.606C754.473 653.504 740.072 645.044 725.685 636.582C718.091 632.107 710.532 627.577 703 623C702.115 622.464 701.229 621.928 700.317 621.375C697.662 619.762 695.017 618.133 692.375 616.5C691.156 615.761 691.156 615.761 689.913 615.007C688.792 614.308 688.792 614.308 687.648 613.594C686.99 613.188 686.332 612.783 685.654 612.365C683.729 610.776 682.958 609.281 682 607C691.666 600.877 701.407 594.876 711.188 588.937C712.274 588.27 713.361 587.603 714.48 586.916C715.512 586.292 716.543 585.669 717.605 585.027C718.984 584.188 718.984 584.188 720.391 583.332C723.004 581.998 725.091 581.314 728 581C730.168 581.996 730.168 581.996 732.188 583.437C734.845 585.476 734.845 585.476 738 586C738 549.04 738 512.08 738 474C736.35 473.34 734.7 472.68 733 472C731.567 471.198 730.154 470.359 728.762 469.488C727.954 468.985 727.147 468.483 726.315 467.965C725.448 467.42 724.581 466.874 723.688 466.312C722.769 465.739 721.85 465.166 720.904 464.576C717.933 462.721 714.966 460.861 712 459C708.042 456.52 704.084 454.041 700.125 451.562C699.131 450.939 698.137 450.316 697.113 449.675C689.068 444.642 680.969 439.703 672.839 434.81C666.823 431.174 661.028 427.381 655.402 423.16C652.159 421.594 650.477 422.185 647 423C644.231 424.213 644.231 424.213 641.492 425.816C640.437 426.408 639.382 426.999 638.294 427.609C637.166 428.253 636.038 428.898 634.875 429.562C633.683 430.235 632.49 430.907 631.298 431.578C628.16 433.348 625.03 435.129 621.902 436.914C620.021 437.988 618.139 439.06 616.257 440.131C610.412 443.46 604.572 446.799 598.738 450.148C593.699 453.037 588.643 455.896 583.579 458.741C582.48 459.358 582.48 459.358 581.359 459.989C579.572 460.993 577.786 461.996 576 463C575.766 482.306 575.59 501.612 575.482 520.919C575.43 529.884 575.36 538.848 575.246 547.812C575.146 555.626 575.081 563.44 575.059 571.255C575.046 575.393 575.016 579.529 574.943 583.666C574.875 587.562 574.854 591.457 574.869 595.354C574.866 596.782 574.846 598.209 574.808 599.636C574.457 607.659 574.457 607.659 578.187 614.372C580.721 616.171 583.221 617.618 586 619C587.087 619.693 588.173 620.387 589.293 621.101C590.248 621.675 591.203 622.249 592.188 622.84C593.286 623.502 594.384 624.165 595.516 624.848C596.084 625.189 596.652 625.529 597.237 625.88C600.305 627.72 603.367 629.572 606.43 631.422C607.056 631.799 607.682 632.177 608.327 632.566C616.015 637.208 623.656 641.927 631.297 646.646C633.265 647.86 635.235 649.07 637.208 650.275C639.082 651.433 640.941 652.616 642.784 653.823C643.657 654.383 644.53 654.942 645.43 655.519C646.193 656.022 646.956 656.524 647.742 657.042C650.691 658.293 651.979 658.017 655 657C656.956 655.946 658.869 654.811 660.746 653.621C661.831 652.947 662.916 652.274 664.033 651.58C665.739 650.509 667.442 649.435 669.141 648.354C670.794 647.306 672.457 646.276 674.121 645.246C675.105 644.624 676.089 644.002 677.103 643.361C680.378 641.822 682.424 641.616 686 642C688.224 643.226 690.1 644.441 692.125 645.937C700.361 651.733 708.957 656.898 717.586 662.077C718.814 662.814 720.04 663.551 721.267 664.29C722.914 665.281 724.564 666.269 726.214 667.257C728.581 668.738 730.802 670.281 733 672C732.797 673.799 732.797 673.799 732 676C729.957 677.625 729.957 677.625 727.242 679.215C726.236 679.811 725.23 680.408 724.194 681.023C723.099 681.655 722.004 682.286 720.875 682.937C719.744 683.603 718.614 684.268 717.449 684.953C709.335 689.718 701.144 694.349 692.916 698.912C687.375 702.008 681.952 705.245 676.582 708.625C675.31 709.42 674.037 710.215 672.765 711.01C670.296 712.554 667.845 714.122 665.401 715.704C664.268 716.416 663.134 717.126 662 717.836C661.01 718.47 660.02 719.105 659 719.759C655.143 721.354 653.015 721.031 649 720C646.184 718.64 646.184 718.64 643.438 716.894C642.405 716.248 641.373 715.601 640.309 714.934C639.217 714.234 638.125 713.534 637 712.812C635.845 712.084 634.689 711.357 633.533 710.632C631.168 709.147 628.805 707.657 626.445 706.164C621.359 702.958 616.209 699.858 611.063 696.75C600.963 690.621 590.967 684.34 581 678C569.276 670.548 557.488 663.209 545.648 655.942C536.705 650.448 527.814 644.876 518.958 639.242C517.129 638.082 515.296 636.928 513.461 635.777C512.463 635.149 511.465 634.522 510.438 633.875C509.198 633.098 509.198 633.098 507.934 632.305C506 631 506 631 504 629C503.796 626.396 503.717 623.898 503.725 621.293C503.72 620.498 503.715 619.702 503.71 618.883C503.696 616.246 503.697 613.609 503.699 610.972C503.695 609.144 503.691 607.316 503.686 605.487C503.679 601.651 503.679 597.815 503.684 593.98C503.69 589.059 503.673 584.138 503.65 579.217C503.635 575.44 503.634 571.663 503.638 567.885C503.637 566.071 503.632 564.256 503.622 562.442C503.609 559.906 503.616 557.372 503.628 554.836C503.62 554.083 503.612 553.33 503.605 552.555C503.656 547.468 503.656 547.468 505.406 545.087C507.222 543.848 509.032 542.68 510.941 541.59C511.69 541.157 512.438 540.725 513.209 540.279C513.986 539.836 514.762 539.394 515.563 538.937C517.107 538.053 518.65 537.167 520.191 536.277C520.874 535.888 521.557 535.498 522.26 535.097C524.156 533.991 524.156 533.991 526 532C526.246 528.991 526.374 526.068 526.414 523.055C526.433 522.169 526.453 521.284 526.473 520.373C526.533 517.54 526.579 514.708 526.625 511.875C526.663 509.957 526.702 508.039 526.742 506.121C526.838 501.414 526.922 496.707 527 492C526.221 492.462 526.221 492.462 525.427 492.934C523.064 494.325 520.689 495.694 518.313 497.062C517.496 497.548 516.679 498.033 515.838 498.533C515.042 498.987 514.246 499.442 513.426 499.91C512.698 500.334 511.97 500.758 511.22 501.195C508.445 502.201 506.828 501.659 504 501C503.651 493.595 503.385 486.191 503.223 478.779C503.145 475.336 503.039 471.899 502.868 468.459C501.795 446.284 501.795 446.284 505.41 440.9C508.83 437.725 512.648 436.052 517.056 434.659C520.203 433.592 522.969 431.979 525.875 430.375C526.546 430.024 527.217 429.673 527.908 429.312C535.124 425.496 542.06 421.207 549.042 416.984C558.818 411.081 568.696 405.371 578.598 399.683C584.748 396.15 590.877 392.58 597 389C606.629 383.373 616.271 377.768 625.946 372.221C630.52 369.598 635.084 366.971 639.574 364.207C640.222 363.814 640.871 363.421 641.539 363.017C643.155 362.033 644.76 361.031 646.363 360.027C649 359 649 359 651.332 359.488Z" fill="#CEAE5F"/>
<path d="M575 465C574.996 465.751 574.992 466.502 574.988 467.276C574.892 485.563 574.852 503.849 574.873 522.137C574.882 530.98 574.872 539.823 574.818 548.667C574.771 556.376 574.76 564.084 574.79 571.793C574.805 575.875 574.802 579.955 574.757 584.036C574.716 587.881 574.721 591.723 574.762 595.567C574.769 596.975 574.759 598.384 574.731 599.791C574.447 607.736 574.447 607.736 578.192 614.361C580.725 616.158 583.226 617.612 586 619C587.087 619.693 588.173 620.387 589.293 621.101C590.248 621.675 591.203 622.249 592.187 622.84C593.286 623.503 594.384 624.165 595.516 624.848C596.084 625.189 596.652 625.529 597.237 625.88C600.305 627.72 603.367 629.572 606.43 631.422C607.056 631.8 607.682 632.177 608.327 632.566C616.015 637.209 623.656 641.927 631.297 646.646C633.264 647.86 635.235 649.07 637.208 650.275C639.082 651.433 640.941 652.616 642.784 653.823C643.657 654.383 644.53 654.943 645.43 655.52C646.193 656.022 646.956 656.524 647.742 657.042C650.691 658.293 651.979 658.017 655 657C656.956 655.946 658.869 654.811 660.746 653.621C661.831 652.948 662.916 652.274 664.033 651.58C665.739 650.509 667.442 649.435 669.141 648.354C670.794 647.306 672.457 646.276 674.121 645.246C675.105 644.624 676.089 644.002 677.103 643.361C680.378 641.822 682.424 641.616 686 642C688.223 643.226 690.099 644.441 692.125 645.937C700.36 651.734 708.957 656.898 717.586 662.077C718.814 662.814 720.04 663.551 721.267 664.29C722.914 665.281 724.564 666.27 726.214 667.258C728.581 668.738 730.802 670.281 733 672C732.797 673.799 732.797 673.799 732 676C729.957 677.625 729.957 677.625 727.242 679.215C726.236 679.811 725.23 680.408 724.194 681.023C723.099 681.655 722.003 682.287 720.875 682.937C719.744 683.603 718.613 684.268 717.448 684.954C709.335 689.719 701.144 694.349 692.915 698.912C687.375 702.008 681.952 705.245 676.582 708.625C675.31 709.42 674.037 710.215 672.765 711.01C670.296 712.554 667.845 714.122 665.401 715.705C664.268 716.416 663.134 717.126 662 717.836C661.01 718.471 660.02 719.105 659 719.759C655.143 721.354 653.015 721.031 649 720C646.184 718.64 646.184 718.64 643.437 716.895C642.405 716.248 641.373 715.601 640.309 714.935C639.217 714.234 638.125 713.534 637 712.812C635.845 712.084 634.689 711.357 633.533 710.632C631.167 709.147 628.805 707.657 626.445 706.165C621.359 702.958 616.209 699.858 611.062 696.75C600.963 690.621 590.967 684.34 581 678C569.276 670.548 557.488 663.209 545.648 655.943C536.705 650.448 527.814 644.876 518.958 639.243C517.129 638.082 515.296 636.928 513.461 635.777C512.463 635.15 511.465 634.522 510.437 633.875C509.611 633.357 508.785 632.839 507.934 632.305C506 631 506 631 504 629C503.796 626.396 503.717 623.898 503.725 621.293C503.718 620.1 503.718 620.1 503.71 618.883C503.696 616.246 503.697 613.61 503.699 610.973C503.695 609.144 503.691 607.316 503.686 605.487C503.679 601.651 503.679 597.816 503.684 593.98C503.69 589.059 503.673 584.138 503.65 579.217C503.635 575.44 503.634 571.663 503.637 567.886C503.637 566.071 503.632 564.257 503.622 562.442C503.609 559.907 503.616 557.372 503.628 554.836C503.62 554.083 503.612 553.33 503.604 552.555C503.656 547.468 503.656 547.468 505.406 545.087C507.222 543.849 509.032 542.68 510.941 541.59C511.69 541.157 512.438 540.725 513.209 540.279C514.374 539.615 514.374 539.615 515.562 538.937C517.107 538.054 518.65 537.167 520.191 536.277C520.874 535.888 521.557 535.499 522.26 535.097C524.156 533.991 524.156 533.991 526 532C526.075 528.949 526.034 525.978 525.922 522.934C525.893 521.067 525.869 519.201 525.848 517.334C525.809 514.39 525.751 511.455 525.626 508.513C524.999 492.713 524.999 492.713 528.259 488.292C531.488 485.353 535.193 483.529 539.176 481.809C541.806 480.643 544.219 479.158 546.68 477.672C548.409 476.694 550.141 475.72 551.875 474.75C553.623 473.767 555.371 472.783 557.117 471.797C557.942 471.335 558.767 470.873 559.616 470.396C562.554 468.675 565.348 466.773 568.118 464.794C570.678 463.714 572.345 464.387 575 465Z" fill="#A6803A"/>
<path d="M792 569C792 569.99 792 570.98 792 572C792.66 572 793.32 572 794 572C793.968 572.612 793.936 573.225 793.903 573.855C793.589 580.28 793.419 586.698 793.329 593.13C793.277 595.523 793.189 597.915 793.064 600.305C791.961 613.548 791.961 613.548 796.928 625.239C801.683 629.072 806.932 631.597 812.546 633.929C816.102 635.481 819.234 637.472 822.5 639.562C823.48 640.162 824.459 640.761 825.469 641.379C827.733 642.829 829.877 644.353 832 646C830.511 649.912 828.455 651.263 824.898 653.355C823.858 653.974 822.817 654.593 821.745 655.231C820.077 656.199 820.077 656.199 818.375 657.188C816.683 658.18 816.683 658.18 814.956 659.193C812.691 660.519 810.423 661.84 808.153 663.157C805.413 664.759 802.7 666.394 799.996 668.055C798.602 668.891 797.208 669.727 795.812 670.562C795.197 670.95 794.582 671.338 793.949 671.737C791.033 673.439 789.417 674.068 786.047 673.516C782.309 671.656 778.897 669.517 775.438 667.188C773.92 666.187 772.402 665.188 770.883 664.191C770.086 663.668 769.29 663.145 768.47 662.606C754.473 653.504 740.072 645.045 725.685 636.582C718.091 632.107 710.532 627.577 703 623C701.672 622.196 701.672 622.196 700.317 621.375C697.662 619.762 695.017 618.133 692.375 616.5C691.563 616.007 690.75 615.515 689.913 615.008C689.166 614.541 688.419 614.074 687.648 613.594C686.661 612.986 686.661 612.986 685.654 612.365C683.729 610.777 682.958 609.281 682 607C691.666 600.877 701.407 594.876 711.188 588.938C712.274 588.27 713.361 587.603 714.48 586.916C715.512 586.293 716.543 585.669 717.605 585.027C718.984 584.188 718.984 584.188 720.391 583.332C723.003 581.999 725.093 581.318 728 581C730.098 581.961 730.098 581.961 732.062 583.375C734.752 585.282 736.807 586.241 740 587C740.454 587.536 740.907 588.072 741.375 588.625C742.982 590.307 742.982 590.307 745.637 589.832C749.686 588.83 752.844 587.128 756.438 585.062C761.238 582.316 765.614 580.327 771 579C771 578.34 771 577.68 771 577C772.052 576.636 772.052 576.636 773.125 576.266C777.732 574.638 782.215 572.992 786.562 570.75C790 569 790 569 792 569Z" fill="#C6A354"/>
<path d="M575 465C575 512.85 575 560.7 575 610C571.487 611.171 570.224 610.495 566.914 609.082C565 608 565 608 562.602 606.047C560.04 604.032 557.705 602.784 554.75 601.438C547.796 598.063 541.469 593.884 535.027 589.629C530.976 586.958 526.823 584.495 522.59 582.121C522.065 581.751 521.541 581.381 521 581C521 580.34 521 579.68 521 579C520.385 578.818 519.77 578.637 519.137 578.449C518.328 578.198 517.52 577.947 516.688 577.688C515.887 577.444 515.086 577.2 514.262 576.949C512 576 512 576 510.52 574.457C508.501 572.521 506.709 572.461 504 572C503.913 567.896 503.86 563.792 503.812 559.688C503.787 558.52 503.762 557.353 503.736 556.151C503.722 554.473 503.722 554.473 503.707 552.762C503.691 551.73 503.676 550.699 503.659 549.636C504 547 504 547 505.272 545.291C507.109 543.919 508.95 542.727 510.941 541.59C511.69 541.158 512.438 540.725 513.209 540.279C514.374 539.615 514.374 539.615 515.562 538.938C517.107 538.054 518.65 537.167 520.191 536.277C520.874 535.888 521.557 535.499 522.26 535.098C524.156 533.991 524.156 533.991 526 532C526.075 528.95 526.034 525.978 525.922 522.934C525.893 521.067 525.869 519.201 525.848 517.334C525.809 514.391 525.751 511.455 525.626 508.514C524.999 492.714 524.999 492.714 528.259 488.293C531.488 485.354 535.193 483.529 539.176 481.809C541.806 480.643 544.219 479.158 546.68 477.672C548.409 476.694 550.141 475.72 551.875 474.75C553.623 473.767 555.371 472.783 557.117 471.797C557.942 471.335 558.767 470.873 559.616 470.397C562.554 468.676 565.348 466.773 568.118 464.794C570 464 570 464 575 465Z" fill="#C6A455"/>
<path d="M794 450C794 490.26 794 530.52 794 572C793.34 572 792.68 572 792 572C792 571.01 792 570.02 792 569C790.606 569.741 790.606 569.741 789.184 570.496C787.935 571.144 786.686 571.791 785.437 572.438C784.828 572.763 784.219 573.089 783.592 573.424C779.344 575.604 775.758 576.565 771 577C771 577.66 771 578.32 771 579C769.824 579.495 768.649 579.99 767.437 580.5C764.283 581.877 761.265 583.386 758.273 585.082C757.294 585.631 757.294 585.631 756.295 586.192C754.991 586.929 753.694 587.68 752.406 588.445C749.354 590.161 747.256 591.002 743.73 590.981C740.36 589.77 739.678 589.159 738 586C737.56 582.771 737.611 579.564 737.644 576.31C737.641 575.327 737.639 574.345 737.637 573.332C737.634 570.081 737.653 566.83 737.672 563.578C737.675 561.316 737.677 559.054 737.678 556.792C737.682 552.048 737.697 547.303 737.719 542.559C737.747 536.488 737.758 530.418 737.762 524.347C737.767 519.674 737.776 515 737.788 510.326C737.794 508.089 737.799 505.851 737.803 503.614C737.809 500.478 737.823 497.343 737.839 494.208C737.84 493.289 737.841 492.371 737.842 491.424C737.877 486.205 737.995 481.131 739 476C742.031 474.289 742.031 474.289 743.949 473.673C746.172 472.944 748.052 471.974 750.094 470.836C750.807 470.44 751.52 470.045 752.255 469.637C752.996 469.221 753.737 468.804 754.5 468.375C755.28 467.94 756.061 467.505 756.864 467.057C762.641 463.815 768.341 460.456 773.965 456.957C776.818 455.204 779.655 453.662 782.738 452.371C790.191 449.238 790.191 449.238 794 450Z" fill="#D5B666"/>
<path d="M656.77 538.481C661.047 540.492 665.038 542.839 669.062 545.313C670.361 546.102 670.361 546.102 671.685 546.907C674.461 548.598 677.231 550.299 680 552C681.876 553.146 683.753 554.292 685.629 555.438C687.461 556.562 689.293 557.687 691.125 558.813C692.384 559.584 692.384 559.584 693.668 560.37C699.599 564.038 705.325 567.949 711 572C709.6 575.471 708.283 576.728 704.949 578.375C704.116 578.797 703.282 579.219 702.423 579.654C701.069 580.32 701.069 580.32 699.688 581C697.777 581.969 695.868 582.942 693.961 583.918C692.977 584.421 691.993 584.925 690.979 585.443C686.189 587.947 681.498 590.618 676.812 593.313C675.977 593.791 675.142 594.27 674.282 594.764C669.21 597.687 664.202 600.695 659.233 603.79C657.049 604.973 655.469 605.75 653 606C651.011 605.202 651.011 605.202 648.902 603.895C648.11 603.412 647.318 602.929 646.502 602.431C645.656 601.897 644.81 601.363 643.938 600.813C643.055 600.269 642.172 599.725 641.263 599.165C638.5 597.457 635.749 595.731 633 594C631.316 592.948 629.633 591.896 627.949 590.844C618.585 584.972 609.284 578.998 600 573C600.09 571.242 600.09 571.242 601 569C603.176 567.525 605.239 566.324 607.562 565.125C609.02 564.34 610.475 563.552 611.93 562.762C612.734 562.328 613.538 561.894 614.366 561.447C619.36 558.704 624.269 555.813 629.188 552.938C630.222 552.338 631.256 551.738 632.322 551.12C636.68 548.583 641.011 546.04 645.215 543.254C645.807 542.865 646.399 542.477 647.009 542.077C648.49 541.09 649.953 540.078 651.414 539.063C654 538 654 538 656.77 538.481Z" fill="#B18C43"/>
<path d="M348 745C353.656 744.929 359.312 744.871 364.968 744.835C366.888 744.82 368.808 744.8 370.729 744.774C373.504 744.737 376.279 744.72 379.055 744.707C379.9 744.692 380.745 744.676 381.616 744.66C393.055 744.657 404.72 748.944 413 757C420.364 766.369 424.648 776.643 423.816 788.652C422.162 800.543 416.433 810.588 407 818C398.298 823.504 389.652 825.318 379.504 825.231C378.63 825.23 377.756 825.23 376.855 825.229C375.024 825.226 373.193 825.218 371.362 825.206C368.546 825.187 365.731 825.185 362.916 825.186C361.133 825.181 359.35 825.175 357.566 825.168C356.722 825.167 355.877 825.166 355.007 825.165C349.116 825.116 349.116 825.116 348 824C347.905 821.536 347.874 819.099 347.887 816.635C347.886 815.864 347.886 815.093 347.886 814.299C347.887 811.74 347.895 809.181 347.902 806.621C347.904 804.851 347.906 803.082 347.907 801.312C347.911 796.645 347.92 791.977 347.931 787.31C347.942 782.551 347.946 777.792 347.951 773.033C347.962 763.689 347.979 754.344 348 745ZM365 760C364.975 766.96 364.957 773.92 364.945 780.88C364.94 783.25 364.933 785.62 364.925 787.99C364.913 791.388 364.907 794.786 364.902 798.184C364.897 799.25 364.892 800.317 364.887 801.416C364.887 802.397 364.887 803.378 364.887 804.388C364.884 805.257 364.882 806.125 364.88 807.02C364.781 809.001 364.781 809.001 366 810C377.496 810.589 389.891 811.172 399 803C403.974 796.913 406.339 790.868 406 783C405.194 775.556 402.656 770.596 397.25 765.313C389.979 760.139 383.663 759.58 375 759.813C373.552 759.833 373.552 759.833 372.074 759.854C369.716 759.889 367.358 759.938 365 760Z" fill="#FBFCFC"/>
<path d="M653.371 744.863C654.074 744.867 654.776 744.871 655.5 744.875C656.203 744.871 656.905 744.867 657.629 744.863C662.873 744.873 662.873 744.873 664 746C664.107 747.528 664.146 749.06 664.158 750.592C664.168 751.57 664.178 752.549 664.189 753.557C664.196 754.623 664.203 755.69 664.211 756.789C664.239 759.032 664.268 761.276 664.297 763.519C664.338 767.068 664.375 770.616 664.401 774.164C664.429 777.581 664.475 780.997 664.523 784.414C664.527 785.468 664.53 786.523 664.533 787.609C664.657 795.061 665.472 800.092 670.5 805.875C675.366 810.011 680.91 809.454 687 809C692.218 807.454 694.272 804.684 697.02 800.23C699.638 794.273 699.209 787.521 699.316 781.133C699.337 780.098 699.358 779.063 699.379 777.997C699.445 774.706 699.504 771.416 699.563 768.125C699.606 765.888 699.649 763.651 699.693 761.414C699.8 755.943 699.902 750.471 700 745C702.646 744.973 705.292 744.953 707.938 744.937C708.692 744.929 709.447 744.92 710.225 744.912C712.15 744.903 714.075 744.947 716 745C717.643 746.642 717.152 748.539 717.177 750.804C717.196 752.342 717.196 752.342 717.216 753.912C717.223 755.031 717.231 756.151 717.238 757.304C717.246 758.453 717.254 759.602 717.263 760.786C717.277 763.229 717.287 765.672 717.295 768.115C717.312 771.824 717.356 775.533 717.4 779.242C717.411 781.617 717.419 783.992 717.426 786.367C717.443 787.466 717.461 788.566 717.479 789.698C717.445 802.052 713.456 811.544 704.75 820.25C695.29 826.27 684.397 828.568 673.344 826.504C663.52 823.82 655.915 818.791 650.777 809.879C648.303 805.046 646.875 801.117 646.871 795.626C646.867 794.528 646.864 793.431 646.861 792.3C646.863 791.115 646.865 789.931 646.867 788.711C646.866 786.889 646.866 786.889 646.864 785.031C646.864 782.464 646.865 779.897 646.87 777.33C646.875 773.384 646.87 769.438 646.863 765.492C646.864 763.002 646.865 760.513 646.867 758.023C646.865 756.835 646.863 755.646 646.861 754.422C646.864 753.33 646.867 752.239 646.871 751.114C646.871 750.149 646.872 749.183 646.873 748.188C647.123 743.889 649.654 744.87 653.371 744.863Z" fill="#FBFCFC"/>
<path d="M623.187 746.063C632.241 752.87 636.985 761.947 639 773C640.378 785.544 639.138 798.828 631 809C632.382 812.21 633.924 814.049 636.625 816.25C637.257 816.771 637.888 817.292 638.539 817.828C639.021 818.215 639.503 818.602 640 819C638.022 823.686 636.429 825.586 632 828C631.359 827.411 630.719 826.822 630.059 826.215C624.86 821.419 624.86 821.419 618.25 819.875C616.257 820.565 614.274 821.283 612.309 822.047C602.284 824.935 590.157 823.984 581 819C571.625 813.247 565.241 804.54 562.441 793.871C560.279 779.803 561.553 766.437 569.273 754.324C581.724 737.564 606.116 735.211 623.187 746.063ZM579.437 760.852C573.899 769.129 572.96 779.31 574.461 788.965C576.313 797.603 579.536 803.583 586.625 808.938C591.501 811.917 594.93 812.138 600.625 812.125C601.772 812.128 602.92 812.13 604.102 812.133C606.94 812.199 606.94 812.199 609 811C607.691 807.878 607.691 807.878 605 806C605.362 803.321 605.74 801.39 607.25 799.125C609 798 609 798 611.312 798.063C614.62 799.216 617.169 800.959 620 803C626.934 793.292 627.019 783.539 626 772C624.397 764.497 620.448 758.035 614.07 753.684C601.819 747.244 587.925 750.281 579.437 760.852Z" fill="#FEFEFE"/>
<path d="M844.566 748.461C849.504 751.941 849.504 751.941 850.902 754.926C851.045 757.947 849.814 758.988 847.812 761.188C846.894 762.23 846.894 762.23 845.957 763.293C843.849 765.132 842.785 765.844 840 766C837.965 765.039 837.965 765.039 835.938 763.625C831.722 760.728 828.691 759.861 823.562 759.875C822.615 759.873 821.668 759.87 820.691 759.867C818.299 759.985 816.287 760.319 814 761C813.897 762.217 813.794 763.434 813.688 764.688C813.629 765.372 813.571 766.057 813.512 766.762C814.269 770.234 816.155 772.067 819 774C823.444 775.988 828.091 777.384 832.721 778.873C840.842 781.617 848.35 785.489 853 793C855.625 799.8 855.459 806.111 853 813C848.234 820.247 843.093 824.574 834.68 826.543C822.721 828.583 810.29 826.55 800 820C797.561 818.106 795.252 816.112 793 814C793.496 809.784 794.568 807.913 797.75 805.125C798.763 804.201 798.763 804.201 799.797 803.258C802 802 802 802 804.496 802.121C807.184 803.065 809.036 804.236 811.312 805.938C817.437 810.132 821.988 811.553 829.375 810.313C833.22 809.533 833.714 809.43 836 806C836.507 801.945 836.507 801.945 834.789 798.434C832.633 796.706 830.677 795.957 828.062 795.063C827.091 794.724 826.119 794.385 825.117 794.035C823.023 793.34 820.924 792.66 818.82 791.996C809.945 789.174 803.389 785.808 798 778C795.155 772.068 795 765.839 796.652 759.496C799.265 752.868 803.177 748.909 809.512 745.746C821.333 740.906 833.434 742.124 844.566 748.461Z" fill="#FCFCFC"/>
<path d="M732 745C739.245 744.975 746.49 744.957 753.735 744.945C756.201 744.94 758.668 744.933 761.135 744.925C764.672 744.913 768.209 744.907 771.746 744.902C772.856 744.897 773.967 744.892 775.111 744.887C776.642 744.887 776.642 744.887 778.205 744.887C779.109 744.884 780.012 744.882 780.944 744.88C783 745 783 745 784 746C784.125 747.976 784.176 749.958 784.187 751.938C784.202 753.019 784.216 754.101 784.23 755.215C784 758 784 758 782 760C779.491 760.175 777.094 760.232 774.586 760.195C773.856 760.193 773.127 760.19 772.375 760.187C770.041 760.176 767.708 760.151 765.375 760.125C763.794 760.115 762.214 760.106 760.633 760.098C756.755 760.077 752.878 760.038 749 760C749 765.61 749 771.22 749 777C750.998 776.977 752.996 776.954 755.055 776.93C756.987 776.916 758.92 776.902 760.853 776.89C762.859 776.875 764.865 776.85 766.871 776.824C768.128 776.818 769.385 776.811 770.68 776.805C771.842 776.794 773.005 776.784 774.203 776.773C777 777 777 777 779 779C779.195 781.82 779.195 781.82 779.125 785.125C779.107 786.221 779.089 787.317 779.07 788.445C779.047 789.288 779.024 790.132 779 791C776.182 792.409 773.827 792.112 770.68 792.098C769.423 792.095 768.166 792.091 766.871 792.088C765.552 792.08 764.234 792.071 762.875 792.063C761.535 792.058 760.195 792.053 758.855 792.049C755.57 792.037 752.285 792.019 749 792C749.495 800.415 749.495 800.415 750 809C752.371 809.061 754.741 809.121 757.184 809.184C759.47 809.245 761.757 809.309 764.044 809.372C765.638 809.416 767.232 809.458 768.825 809.497C771.112 809.555 773.398 809.619 775.684 809.684C776.4 809.7 777.117 809.717 777.855 809.734C782.886 809.886 782.886 809.886 784 811C784.073 813.187 784.084 815.375 784.062 817.563C784.053 818.76 784.044 819.958 784.035 821.192C784.024 822.118 784.012 823.045 784 824C781.568 825.216 780.009 825.127 777.291 825.13C776.313 825.133 775.335 825.136 774.328 825.139C773.27 825.137 772.212 825.135 771.121 825.133C770.039 825.134 768.956 825.135 767.841 825.136C765.55 825.137 763.26 825.135 760.969 825.131C757.449 825.125 753.929 825.13 750.408 825.137C748.187 825.136 745.967 825.135 743.746 825.133C742.156 825.136 742.156 825.136 740.533 825.139C739.558 825.136 738.584 825.133 737.58 825.13C736.718 825.129 735.855 825.128 734.967 825.127C733 825 733 825 732 824C731.905 821.536 731.874 819.099 731.886 816.635C731.886 815.864 731.886 815.093 731.886 814.299C731.887 811.74 731.895 809.181 731.902 806.621C731.904 804.851 731.906 803.082 731.907 801.312C731.91 796.645 731.92 791.977 731.931 787.31C731.942 782.551 731.946 777.792 731.951 773.033C731.962 763.689 731.979 754.345 732 745Z" fill="#FCFCFC"/>
<path d="M528 433C529.679 433.634 531.35 434.293 533 435C533 435.66 533 436.32 533 437C533.718 437.262 534.436 437.523 535.176 437.793C538.104 439.044 540.54 440.549 543.187 442.313C547.554 445.147 551.961 447.547 556.641 449.813C561.629 452.323 566.067 455.035 570 459C570.99 459.66 571.98 460.32 573 461C571.744 464.767 570.641 465.076 567.25 467.004C566.256 467.575 565.263 468.147 564.239 468.735C563.17 469.338 562.101 469.941 561 470.563C558.807 471.819 556.614 473.075 554.422 474.332C553.335 474.952 552.247 475.571 551.127 476.21C546.113 479.08 541.148 482.03 536.18 484.979C533.166 486.759 530.163 488.498 527 490C527 490.66 527 491.32 527 492C524.118 493.711 521.217 495.39 518.312 497.063C517.496 497.548 516.679 498.033 515.838 498.533C515.042 498.988 514.246 499.442 513.426 499.91C512.334 500.546 512.334 500.546 511.22 501.196C508.445 502.201 506.828 501.659 504 501C503.651 493.595 503.385 486.191 503.223 478.78C503.145 475.336 503.039 471.899 502.868 468.459C501.792 446.225 501.792 446.225 505.456 440.874C509.441 437.218 513.897 435.577 519 434C519.768 433.608 520.537 433.215 521.328 432.811C523.824 431.6 525.388 432.236 528 433Z" fill="#FBFBFA"/>
<path d="M432.943 744.88C433.793 744.882 434.644 744.884 435.52 744.887C436.961 744.887 436.961 744.887 438.432 744.887C439.999 744.895 439.999 744.895 441.598 744.902C442.662 744.904 443.726 744.905 444.822 744.907C448.235 744.912 451.649 744.925 455.063 744.938C457.37 744.943 459.678 744.947 461.986 744.951C467.658 744.962 473.329 744.979 479 745C479.027 747.313 479.046 749.625 479.063 751.938C479.074 753.225 479.086 754.513 479.098 755.84C479 759 479 759 478 760C475.781 760.088 473.56 760.107 471.34 760.098C470.343 760.096 470.343 760.096 469.326 760.094C467.197 760.088 465.067 760.075 462.938 760.063C461.497 760.058 460.056 760.053 458.615 760.049C455.077 760.039 451.539 760.019 448 760C448 765.28 448 770.56 448 776C450.672 776.074 450.672 776.074 453.398 776.149C455.724 776.224 458.05 776.299 460.375 776.375C461.551 776.406 462.726 776.437 463.938 776.469C465.059 776.508 466.18 776.546 467.336 776.586C468.373 776.617 469.41 776.649 470.478 776.681C473 777 473 777 475 779C475.266 781.531 475.266 781.531 475.25 784.5C475.258 785.97 475.258 785.97 475.266 787.469C475 790 475 790 473 792C470.386 792.227 470.386 792.227 467.117 792.195C465.951 792.189 464.784 792.183 463.582 792.176C461.747 792.151 461.747 792.151 459.875 792.125C458.644 792.116 457.413 792.107 456.145 792.098C453.096 792.074 450.048 792.038 447 792C447.495 800.415 447.495 800.415 448 809C450.154 809.061 452.308 809.121 454.527 809.184C456.606 809.245 458.684 809.309 460.762 809.372C462.211 809.416 463.659 809.458 465.107 809.497C467.185 809.555 469.262 809.619 471.34 809.684C472.591 809.72 473.843 809.757 475.133 809.795C478 810 478 810 479 811C479.099 813.165 479.13 815.333 479.125 817.5C479.129 819.279 479.129 819.279 479.133 821.094C479 824 479 824 478 825C476.568 825.098 475.131 825.128 473.696 825.13C472.324 825.134 472.324 825.134 470.925 825.139C469.432 825.136 469.432 825.136 467.91 825.133C466.895 825.134 465.88 825.135 464.835 825.136C462.684 825.137 460.532 825.135 458.381 825.131C455.08 825.125 451.779 825.13 448.479 825.137C446.393 825.136 444.308 825.135 442.223 825.133C440.734 825.136 440.734 825.136 439.214 825.139C438.297 825.136 437.379 825.133 436.434 825.13C435.624 825.129 434.814 825.128 433.98 825.127C432 825 432 825 430 824C429.977 813.847 429.959 803.695 429.948 793.542C429.943 788.828 429.936 784.115 429.925 779.401C429.914 774.856 429.908 770.31 429.905 765.765C429.903 764.027 429.9 762.289 429.894 760.551C429.887 758.125 429.886 755.7 429.887 753.274C429.883 752.548 429.879 751.822 429.876 751.075C429.888 745.069 429.888 745.069 432.943 744.88Z" fill="#FBFCFC"/>
<path d="M487.598 744.902C489.086 744.909 490.574 744.921 492.062 744.938C492.821 744.942 493.58 744.947 494.361 744.951C496.241 744.963 498.12 744.981 500 745C502.797 751.053 505.217 757.149 507.383 763.453C507.683 764.316 507.983 765.18 508.293 766.069C509.241 768.795 510.183 771.522 511.125 774.25C512.075 776.992 513.026 779.733 513.978 782.474C514.568 784.171 515.155 785.868 515.741 787.566C517.075 791.416 518.439 795.234 520 799C523.72 790.239 527.195 781.402 530.562 772.5C531.031 771.272 531.5 770.043 531.982 768.777C534.563 761.971 537.001 755.147 539.219 748.213C540 746 540 746 541 745C543.332 744.901 545.666 744.87 548 744.875C549.279 744.872 550.558 744.87 551.875 744.867C555 745 555 745 556 746C556.454 751.117 555.118 755.266 553.359 759.992C553.081 760.764 552.802 761.535 552.516 762.33C551.603 764.848 550.677 767.362 549.75 769.875C549.115 771.616 548.481 773.357 547.847 775.098C546.227 779.539 544.594 783.974 542.957 788.408C542.032 790.914 541.111 793.421 540.191 795.929C538.81 799.694 537.422 803.456 536.027 807.216C535.511 808.61 534.995 810.004 534.481 811.398C533.769 813.326 533.05 815.251 532.328 817.176C531.723 818.799 531.723 818.799 531.106 820.454C530 823 530 823 528 825C524.848 825.301 524.848 825.301 521.062 825.312C519.816 825.329 518.569 825.346 517.285 825.363C514 825 514 825 512.48 823.922C510.36 821.169 509.248 818.107 508.031 814.887C507.754 814.173 507.477 813.459 507.192 812.723C506.286 810.381 505.393 808.035 504.5 805.688C503.876 804.064 503.252 802.44 502.628 800.817C498.617 790.363 494.682 779.882 490.812 769.375C490.145 767.566 490.145 767.566 489.465 765.721C487.087 759.204 484.893 752.675 483 746C484 745 484 745 487.598 744.902Z" fill="#FBFCFB"/>
<path d="M686 642C688.223 643.226 690.099 644.442 692.125 645.938C700.361 651.734 708.957 656.898 717.586 662.077C718.814 662.814 720.04 663.552 721.267 664.29C722.914 665.281 724.564 666.27 726.214 667.258C728.581 668.738 730.802 670.281 733 672C732.835 673.773 732.835 673.773 732 676C729.687 677.815 729.687 677.815 726.645 679.637C725.547 680.296 724.449 680.956 723.318 681.635C722.742 681.972 722.166 682.309 721.573 682.656C719.827 683.679 718.096 684.725 716.365 685.775C707.033 691.316 707.033 691.316 701 692C701 691.34 701 690.68 701 690C700.353 689.934 699.706 689.869 699.039 689.801C694.708 688.66 691.208 686.465 687.375 684.188C686.552 683.704 685.729 683.221 684.881 682.723C678.701 679.068 672.583 675.313 666.5 671.5C665.29 670.744 665.29 670.744 664.056 669.973C663.305 669.498 662.555 669.022 661.781 668.531C661.122 668.114 660.463 667.697 659.783 667.268C657.983 665.988 656.549 664.567 655 663C652.9 661.824 652.9 661.824 651 661C651 660.34 651 659.68 651 659C652.004 658.443 653.008 657.886 654.043 657.313C655.425 656.542 656.806 655.771 658.188 655C658.91 654.598 659.632 654.196 660.376 653.782C663.89 651.81 667.36 649.806 670.746 647.621C671.319 647.253 671.892 646.885 672.482 646.506C674.039 645.493 675.586 644.464 677.133 643.434C680.504 641.748 682.278 641.431 686 642Z" fill="#D7B86A"/>
<path d="M863.474 744.88C864.573 744.882 865.672 744.884 866.805 744.887C868.046 744.887 869.287 744.887 870.566 744.887C871.931 744.892 873.295 744.897 874.66 744.902C876.049 744.904 877.437 744.906 878.826 744.907C882.487 744.911 886.148 744.92 889.81 744.931C893.543 744.942 897.276 744.946 901.01 744.951C908.34 744.962 915.67 744.979 923 745C923.027 747.313 923.046 749.625 923.062 751.938C923.074 753.225 923.086 754.513 923.098 755.84C923 759 923 759 922 760C920.438 760.087 918.873 760.107 917.309 760.098C916.364 760.095 915.42 760.091 914.447 760.088C913.454 760.08 912.461 760.071 911.438 760.063C910.44 760.058 909.443 760.054 908.416 760.049C905.944 760.037 903.472 760.021 901 760C901.002 760.8 901.004 761.599 901.007 762.423C901.027 769.943 901.042 777.462 901.052 784.982C901.057 788.848 901.064 792.715 901.075 796.581C901.086 800.309 901.092 804.037 901.095 807.766C901.097 809.191 901.1 810.616 901.106 812.042C901.113 814.032 901.113 816.022 901.114 818.012C901.116 819.146 901.118 820.281 901.12 821.45C901 824 901 824 900 825C897.303 825.073 894.633 825.093 891.938 825.063C891.179 825.058 890.42 825.054 889.639 825.049C887.759 825.037 885.88 825.019 884 825C882.638 822.275 882.88 820.132 882.886 817.082C882.887 815.841 882.887 814.599 882.887 813.321C882.892 811.961 882.897 810.602 882.902 809.242C882.904 807.855 882.906 806.468 882.907 805.081C882.91 801.428 882.92 797.775 882.931 794.122C882.942 790.395 882.946 786.668 882.951 782.942C882.962 775.628 882.979 768.314 883 761C882.339 760.975 881.678 760.95 880.996 760.924C878.018 760.809 875.04 760.686 872.062 760.563C871.022 760.523 869.981 760.484 868.908 760.443C867.919 760.402 866.929 760.36 865.91 760.317C864.535 760.262 864.535 760.262 863.133 760.205C861 760 861 760 860 759C859.901 756.835 859.87 754.667 859.875 752.5C859.872 751.314 859.87 750.128 859.867 748.906C860.044 745.047 860.044 745.047 863.474 744.88Z" fill="#FCFCFC"/>
<path d="M724 581C729.749 581.401 733.236 583.806 737.654 587.313C739.509 589.638 739.362 591.162 739.341 594.114C739.34 595.675 739.34 595.675 739.34 597.268C739.324 598.39 739.309 599.512 739.293 600.668C739.289 601.818 739.284 602.968 739.28 604.153C739.263 607.831 739.226 611.509 739.188 615.188C739.172 617.679 739.159 620.171 739.146 622.662C739.113 628.775 739.063 634.887 739 641C734.332 641.3 731.756 640.696 727.789 638.246C726.802 637.646 725.816 637.045 724.799 636.427C723.752 635.77 722.704 635.114 721.625 634.438C720.538 633.769 719.451 633.1 718.332 632.411C716.046 631.001 713.763 629.587 711.485 628.165C708.601 626.368 705.701 624.598 702.794 622.838C700.045 621.172 697.304 619.491 694.562 617.812C693.018 616.878 693.018 616.878 691.442 615.926C690.493 615.338 689.544 614.75 688.566 614.145C687.731 613.633 686.895 613.121 686.033 612.593C683.855 610.887 683.009 609.547 682 607C692.842 600.133 703.806 593.483 714.832 586.916C715.876 586.293 716.92 585.669 717.996 585.027C718.936 584.468 719.877 583.908 720.845 583.332C722.902 582.175 722.902 582.175 724 581Z" fill="#A57F3A"/>
<path d="M739 416C745.744 417.124 745.744 417.124 748.758 419.125C749.453 419.576 750.148 420.027 750.864 420.492C751.61 420.99 752.356 421.487 753.125 422C759.151 425.93 765.218 429.762 771.402 433.438C772.035 433.815 772.668 434.193 773.32 434.582C775.865 436.1 778.41 437.617 780.966 439.116C782.765 440.173 784.557 441.241 786.348 442.312C787.389 442.927 788.431 443.542 789.504 444.176C792.002 446.002 792.953 447.135 794 450C792.329 450.186 792.329 450.186 790.625 450.375C786.969 450.647 786.969 450.647 785 453C783.579 453.582 782.137 454.117 780.688 454.625C775.305 456.718 770.66 459.555 765.785 462.629C761.235 465.496 756.629 468.262 752 471C750.78 471.74 750.78 471.74 749.535 472.494C748.373 473.178 748.373 473.178 747.188 473.875C746.5 474.285 745.813 474.695 745.105 475.117C743 476 743 476 738 476C738.495 446.3 738.495 446.3 739 416Z" fill="#A37D38"/>
<path d="M575 465C575 475.56 575 486.12 575 497C572.03 497.495 572.03 497.495 569 498C569 498.66 569 499.32 569 500C567.378 500.838 565.752 501.67 564.125 502.5C563.22 502.964 562.315 503.428 561.383 503.906C559 505 559 505 557 505C557 505.66 557 506.32 557 507C555.711 507.671 554.419 508.337 553.125 509C552.406 509.371 551.686 509.742 550.945 510.125C549 511 549 511 547 511C547 511.66 547 512.32 547 513C544 515 544 515 540 515C540 515.66 540 516.32 540 517C536.261 518.653 532.983 520.004 529 521C529 511.1 529 501.2 529 491C529.66 491 530.32 491 531 491C531.178 490.269 531.356 489.538 531.539 488.785C533.576 484.902 536.647 483.457 540.375 481.437C541.91 480.577 543.444 479.715 544.977 478.851C545.789 478.397 546.601 477.942 547.438 477.474C550.132 475.924 552.766 474.3 555.398 472.648C556.29 472.093 557.182 471.539 558.1 470.967C559.843 469.879 561.58 468.78 563.31 467.672C564.11 467.178 564.91 466.684 565.734 466.176C566.438 465.731 567.141 465.287 567.866 464.829C570 464 570 464 575 465Z" fill="#AB8640"/>
<path d="M792 569C792 569.99 792 570.98 792 572C792.66 572 793.32 572 794 572C794 588.83 794 605.66 794 623C790.586 623 789.658 622.398 786.812 620.625C785.926 620.076 785.039 619.527 784.125 618.961C783.094 618.314 782.062 617.667 781 617C779.771 616.241 778.542 615.484 777.312 614.727C769.765 610.063 762.313 605.277 754.96 600.312C752.37 598.564 749.793 596.883 747.074 595.34C746.39 594.898 745.705 594.456 745 594C745 593.34 745 592.68 745 592C745.99 591.67 746.98 591.34 748 591C748.428 590.558 748.856 590.116 749.297 589.66C751.672 587.345 754.334 586.007 757.25 584.438C758.348 583.838 759.447 583.239 760.578 582.621C764.07 580.967 767.27 579.951 771 579C771 578.34 771 577.68 771 577C771.701 576.758 772.402 576.515 773.125 576.266C777.732 574.638 782.215 572.992 786.562 570.75C790 569 790 569 792 569Z" fill="#A58039"/>
<path d="M566 861C564.876 865.16 563.144 868.468 560.937 872.125C557.61 878.01 557.023 883.318 557 890C555.344 890.382 553.675 890.714 552 891C550.38 889.38 550.88 887.426 550.812 885.188C550.183 877.163 546.401 870.601 542 864C541.01 864.66 540.02 865.32 539 866C536.52 866.195 536.52 866.195 533.812 866.125C532.911 866.107 532.01 866.089 531.082 866.07C530.395 866.047 529.708 866.024 529 866C529 867.98 529 869.96 529 872C532.3 872 535.6 872 539 872C539.382 873.656 539.714 875.325 540 877C539 878 539 878 536.715 878.098C535.34 878.08 535.34 878.08 533.937 878.062C533.018 878.053 532.099 878.044 531.152 878.035C530.442 878.024 529.732 878.012 529 878C528.67 880.64 528.34 883.28 528 886C531.96 886 535.92 886 540 886C540.33 886.99 540.66 887.98 541 889C539 891 539 891 535.559 891.23C534.185 891.226 532.811 891.212 531.437 891.188C530.739 891.187 530.041 891.186 529.322 891.186C524.14 891.14 524.14 891.14 523 890C522.912 887.854 522.893 885.706 522.902 883.559C522.906 882.253 522.909 880.948 522.912 879.604C522.92 878.215 522.929 876.826 522.937 875.438C522.943 874.045 522.947 872.652 522.951 871.26C522.963 867.84 522.979 864.42 523 861C526.895 860.767 530.788 860.625 534.687 860.5C535.79 860.433 536.893 860.366 538.029 860.297C541.203 860.22 543.913 860.245 547 861C548.946 862.87 549.938 864.525 551.046 866.975C552.067 869.143 553.229 870.409 555 872C555.268 871.113 555.536 870.226 555.812 869.312C556.931 866.193 558.077 863.692 560 861C563 860 563 860 566 861Z" fill="#FDFDFC"/>
<path d="M505 627C505.543 627.349 506.085 627.699 506.645 628.059C507.36 628.514 508.075 628.969 508.812 629.438C509.874 630.116 509.874 630.116 510.957 630.809C513.081 632.141 513.081 632.141 516 633C516 633.66 516 634.32 516 635C517.98 635.66 519.96 636.32 522 637C522 637.66 522 638.32 522 639C522.969 639.186 523.939 639.371 524.938 639.562C529.327 640.793 532.255 643.404 535.73 646.258C538.929 648.713 542.363 650.308 546 652C549 653.625 549 653.625 551 655C551 655.66 551 656.32 551 657C551.99 657 552.98 657 554 657C554 657.66 554 658.32 554 659C556.64 659.66 559.28 660.32 562 661C562 661.66 562 662.32 562 663C562.66 663 563.32 663 564 663C564 663.66 564 664.32 564 665C566.343 666.262 568.505 667.155 571.062 667.938C574 669 574 669 575.262 670.289C577.792 672.779 580.763 674.55 583.75 676.438C584.346 676.82 584.941 677.202 585.555 677.596C589.634 680.196 593.791 682.615 598 685C600.563 686.533 603.116 688.082 605.668 689.633C607.744 690.85 609.834 691.954 612 693C612 693.66 612 694.32 612 695C612.715 695.276 613.431 695.552 614.168 695.836C616.957 696.982 619.623 698.262 622.312 699.625C623.637 700.294 623.637 700.294 624.988 700.977C625.652 701.314 626.316 701.652 627 702C627 702.66 627 703.32 627 704C627.66 704.227 628.32 704.454 629 704.688C632.289 706.126 635.137 707.915 638.133 709.879C640.107 711.157 640.107 711.157 643 712C644 713 645 714 646 715C648.731 717.067 650.301 717.984 653.75 718.062C657.547 716.821 660.261 714.963 663.512 712.68C667.813 709.776 672.422 707.434 677 705C678.67 704.11 680.337 703.214 682 702.312C682.701 701.937 683.402 701.562 684.125 701.176C686.04 700.078 686.04 700.078 687.465 698.492C689.34 696.67 691.167 695.843 693.562 694.812C694.348 694.468 695.133 694.124 695.941 693.77C698 693 698 693 700 693C699.67 692.01 699.34 691.02 699 690C699.66 690 700.32 690 701 690C701 690.66 701 691.32 701 692C701.99 692.33 702.98 692.66 704 693C702.938 693.579 702.938 693.579 701.855 694.171C699.12 695.666 696.388 697.166 693.659 698.67C692.43 699.347 691.2 700.024 689.971 700.699C680.636 705.836 671.53 711.227 662.714 717.225C659.236 719.494 656.85 720.925 652.672 721.293C646.947 719.277 642.092 716.078 637 712.812C635.845 712.084 634.689 711.357 633.533 710.632C631.168 709.147 628.805 707.657 626.445 706.165C621.359 702.958 616.209 699.858 611.062 696.75C600.963 690.621 590.967 684.34 581 678C569.276 670.548 557.488 663.21 545.648 655.943C537.405 650.878 529.201 645.758 521.043 640.559C518.523 638.954 515.99 637.381 513.426 635.848C512.419 635.238 511.412 634.628 510.375 634C509.118 633.257 509.118 633.257 507.836 632.5C505.696 630.752 505.337 629.698 505 627Z" fill="#B78E42"/>
<path d="M493 861C495.799 860.754 495.799 860.754 499 861C500.783 862.652 500.783 862.652 502.211 864.938C502.994 866.156 502.994 866.156 503.793 867.398C504.315 868.257 504.837 869.115 505.375 870C505.92 870.859 506.466 871.717 507.027 872.602C508.371 874.722 509.688 876.86 511 879C511.33 873.39 511.66 867.78 512 862C513.65 861.67 515.3 861.34 517 861C518.83 862.83 518.13 865.732 518.133 868.188C518.135 870.071 518.135 870.071 518.137 871.992C518.134 872.978 518.134 872.978 518.13 873.983C518.125 875.992 518.13 878 518.137 880.008C518.135 881.263 518.134 882.519 518.133 883.812C518.132 884.974 518.131 886.135 518.129 887.332C518 890 518 890 517 891C514.652 891.336 514.652 891.336 512 891C510.191 889.164 510.191 889.164 508.562 886.625C507.975 885.723 507.387 884.82 506.781 883.891C504.147 879.615 501.538 875.334 499 871C498.67 877.27 498.34 883.54 498 890C496.68 890.33 495.36 890.66 494 891C493 890 493 890 492.886 887.224C492.892 886.015 492.897 884.805 492.902 883.559C492.906 882.253 492.909 880.948 492.912 879.604C492.92 878.215 492.929 876.826 492.938 875.438C492.943 874.045 492.947 872.652 492.951 871.26C492.963 867.84 492.979 864.42 493 861Z" fill="#FEFEFD"/>
<path d="M675.25 861.125C678.808 863.551 680.219 865.026 682 869C682.754 875.733 683.085 881.346 679 887C675.488 890.417 672.918 891.807 668 892C663.435 891.578 660.14 890.639 657.063 887.125C653.701 882.031 653.301 877.002 654 871C655.342 866.567 656.985 863.738 660.75 861C666.007 859.382 670.039 859.321 675.25 861.125ZM662 867C659.275 871.466 659.36 875.917 660 881C661.263 884.248 661.263 884.248 664 886C666.835 886.697 669.165 886.691 672 886C674.756 884.309 674.756 884.309 676 881C676.599 876.343 677.083 871.886 674.688 867.715C671.239 864.21 665.844 864.01 662 867Z" fill="#FDFDFB"/>
<path d="M848.25 860.75C848.919 860.73 849.588 860.709 850.277 860.688C855.704 860.645 858.71 862.037 862.75 865.5C865.777 869.133 865.331 873.726 865.277 878.203C864.849 882.523 863.703 884.586 861 888C856.408 890.863 852.99 891.34 847.625 891.188C846.38 891.161 845.135 891.134 843.852 891.106C842.911 891.071 841.97 891.036 841 891C839.623 888.247 839.87 886.012 839.867 882.934C839.866 881.727 839.865 880.52 839.863 879.276C839.869 877.376 839.869 877.376 839.875 875.438C839.871 874.167 839.867 872.897 839.863 871.588C839.865 870.382 839.866 869.176 839.867 867.934C839.868 866.821 839.869 865.708 839.871 864.561C840.13 859.419 844.082 860.782 848.25 860.75ZM847 865C845.784 865.995 845.784 865.995 845.886 867.95C845.892 868.782 845.897 869.615 845.902 870.473C845.906 871.372 845.909 872.271 845.912 873.198C845.92 874.143 845.929 875.089 845.937 876.063C845.942 877.012 845.947 877.962 845.951 878.94C845.963 881.293 845.979 883.647 846 886C851.241 886.294 851.241 886.294 855.875 884.125C858.909 881.091 859.194 879.317 859.312 875.125C859.26 871.823 859.19 870.325 857.5 867.438C853.936 865.389 851.105 865.202 847 865Z" fill="#FDFDFC"/>
<path d="M828.688 861C833.031 863.623 834.592 866.181 836 871C836.899 876.955 836.006 881.714 833 887C830.324 889.825 828.488 890.86 824.75 891.938C819.957 892.018 816.216 891.328 812 889C807.423 883.865 807.385 878.772 807.617 872.036C808.123 868.026 809.139 865.861 812 863C817.633 859.245 822.273 859.261 828.688 861ZM816.063 867.063C813.764 870.337 813.08 872.02 813 876C813.678 879.334 814.407 882.033 816.188 884.938C819.165 886.683 821.638 886.354 825 886C828.185 884.24 828.833 883.502 830 880C830.412 875.773 830.348 872.045 829 868C826.441 865.441 824.569 864.968 821.004 864.739C818.683 864.884 818.683 864.884 816.063 867.063Z" fill="#FDFDFC"/>
<path d="M429 862.813C433.669 867.919 433.54 872.832 433.449 879.567C432.891 883.832 431.763 885.921 428.629 888.793C425.469 891.135 423.664 892.116 419.641 891.836C415.353 891.189 412.537 890.392 409 887.813C405.081 882.301 404.492 877.006 405.324 870.442C406.434 866.433 408.713 863.518 412 861C417.527 858.968 424.055 859.825 429 862.813ZM411.914 869.086C410.206 872.662 410.327 876.155 411 880C412.159 882.419 413.123 884.124 415 886C420.493 886.524 420.493 886.524 425.437 884.563C428.192 880.046 428.533 875.23 427.312 870.125C425.757 867.607 424.627 866.387 422 865C417.213 864.084 414.839 865.104 411.914 869.086Z" fill="#FEFEFD"/>
<path d="M765 860C765.99 860.33 766.98 860.66 768 861C768 870.57 768 880.14 768 890C766.35 890.33 764.7 890.66 763 891C762 890 762 890 761.902 887.277C761.935 884.185 761.967 881.092 762 878C757.71 878 753.42 878 749 878C749.33 878.66 749.66 879.32 750 880C750.07 881.707 750.084 883.417 750.062 885.125C750.053 886.035 750.044 886.945 750.035 887.883C750.018 888.931 750.018 888.931 750 890C748.344 890.382 746.675 890.714 745 891C744 890 744 890 743.886 887.316C743.892 886.148 743.897 884.981 743.902 883.777C743.906 882.517 743.909 881.257 743.912 879.959C743.92 878.618 743.929 877.278 743.938 875.938C743.943 874.593 743.947 873.249 743.951 871.904C743.963 868.603 743.979 865.301 744 862C745.656 861.618 747.325 861.286 749 861C750 862 750 862 750.098 864.285C750.065 866.857 750.033 869.428 750 872C753.96 872 757.92 872 762 872C761.938 870.391 761.876 868.783 761.812 867.125C761.707 864.383 761.707 864.383 762 862C762.99 861.34 763.98 860.68 765 860Z" fill="#FBFAF9"/>
<path d="M606 861C606 864.63 606 868.26 606 872C609.96 872 613.92 872 618 872C617.979 870.556 617.959 869.112 617.938 867.625C617.875 863.25 617.875 863.25 619 861C620.65 861 622.3 861 624 861C624 870.57 624 880.14 624 890C622.35 890.33 620.7 890.66 619 891C618.203 886.818 618 883.34 618 879C614.04 878.67 610.08 878.34 606 878C606 881.96 606 885.92 606 890C604.35 890.33 602.7 890.66 601 891C599.591 888.182 599.888 885.827 599.902 882.68C599.906 881.423 599.909 880.166 599.912 878.871C599.921 877.552 599.929 876.234 599.938 874.875C599.943 873.535 599.947 872.195 599.951 870.855C599.963 867.57 599.979 864.285 600 861C603 860 603 860 606 861Z" fill="#FBFAF8"/>
<path d="M640.33 860.545C643.219 860.615 645.545 860.768 648.141 862.094C650.694 864.853 651 867.006 651 870.688C650.007 873.979 649.353 874.754 647 877C647.106 879.968 648.628 882.085 650.125 884.563C651.053 886.264 651.053 886.264 652 888C651.67 888.99 651.34 889.98 651 891C648.691 890.813 648.691 890.813 646 890C644.34 887.75 644.34 887.75 642.938 885C641.61 882.273 641.61 882.273 640 880C638.68 879.67 637.36 879.34 636 879C636 882.63 636 886.26 636 890C634.35 890.33 632.7 890.66 631 891C629.927 887.782 629.871 885.437 629.867 882.055C629.866 880.896 629.865 879.737 629.863 878.543C629.867 877.333 629.871 876.122 629.875 874.875C629.871 873.657 629.867 872.439 629.863 871.184C629.865 870.028 629.866 868.871 629.867 867.68C629.868 866.615 629.869 865.55 629.871 864.453C630.156 859.045 636.074 860.582 640.33 860.545ZM636 866C636 868.64 636 871.28 636 874C638.333 874.043 640.667 874.041 643 874C644.344 872.882 644.344 872.882 644.125 870C644.344 867.119 644.344 867.119 643 866C640.667 865.959 638.333 865.958 636 866Z" fill="#FEFEFD"/>
<path d="M739 862C738.625 863.938 738.625 863.938 738 866C735.378 867.311 734.05 866.748 731.188 866.25C727.343 865.844 726.338 865.804 722.875 867.813C720.258 872.262 720.114 875.959 721 881C722.25 883.75 722.25 883.75 725 885C727.997 885.594 730.95 885.87 734 886C733.67 884.02 733.34 882.04 733 880C731.35 879.67 729.7 879.34 728 879C728.33 877.35 728.66 875.7 729 874C730.479 873.974 731.958 873.954 733.438 873.938C734.261 873.926 735.085 873.915 735.934 873.903C738 874 738 874 739 875C739.073 877.531 739.092 880.033 739.063 882.563C739.058 883.274 739.053 883.985 739.049 884.717C739.037 886.478 739.019 888.239 739 890C736.013 891.494 732.962 891.266 729.688 891.313C728.371 891.35 727.055 891.388 725.699 891.426C721.477 890.94 719.958 889.975 717 887C713.518 881.957 713.145 876.94 714 871C715.563 866.705 717.968 863.269 722 861C727.696 858.84 733.48 859.846 739 862Z" fill="#FCFCFB"/>
<path d="M645 364C644.01 364.33 643.02 364.66 642 365C641.331 366.332 640.665 367.665 640 369C636.664 371.798 633.355 373.859 629 374.312C628.01 374.158 628.01 374.158 627 374C627 374.66 627 375.32 627 376C621.577 380.024 615.571 383.329 609.645 386.554C606.791 388.114 603.956 389.706 601.124 391.303C599.023 392.487 596.92 393.667 594.816 394.847C592.606 396.09 590.407 397.345 588.215 398.621C584.831 400.577 581.803 402.168 578 403.125C577.01 403.414 576.02 403.702 575 404C574.67 404.99 574.34 405.98 574 407C569.726 410.199 565.017 412.789 559.938 414.437C555.654 415.877 552.682 418.53 549.223 421.367C546.576 423.311 544.089 424.258 540.988 425.246C537.938 426.402 535.357 428.193 532.664 430.012C531 431 531 431 529 431C529.66 432.32 530.32 433.64 531 435C528.532 433.848 526.952 432.952 525 431C525.709 430.593 526.418 430.185 527.149 429.766C543.808 420.213 543.808 420.213 560.321 410.411C575.44 401.281 590.782 392.51 606.095 383.712C611.237 380.757 616.369 377.79 621.474 374.772C623.879 373.351 626.288 371.937 628.698 370.524C630.407 369.518 632.111 368.5 633.814 367.482C634.843 366.88 635.873 366.277 636.934 365.656C637.842 365.118 638.75 364.58 639.685 364.025C642 363 642 363 645 364Z" fill="#DDC271"/>
<path d="M796 625C800.31 626.288 803.829 627.933 807.625 630.336C809.18 631.314 809.18 631.314 810.766 632.312C811.833 632.993 812.9 633.674 814 634.375C815.067 635.048 816.135 635.721 817.234 636.414C822.197 639.55 827.139 642.709 832 646C830.511 649.912 828.455 651.263 824.898 653.355C823.858 653.974 822.817 654.593 821.745 655.231C820.633 655.876 819.521 656.522 818.375 657.188C817.247 657.849 816.118 658.511 814.956 659.193C812.691 660.519 810.423 661.84 808.153 663.157C805.413 664.759 802.7 666.394 799.996 668.055C798.602 668.891 797.208 669.727 795.812 670.562C795.197 670.95 794.582 671.338 793.949 671.737C791.033 673.439 789.417 674.068 786.047 673.516C782.309 671.657 778.896 669.518 775.438 667.188C767.794 662.132 760.042 657.279 752.22 652.505C747.336 649.507 742.62 646.393 738 643C741.732 641.903 741.732 641.903 744.141 642.777C745.185 643.352 745.185 643.352 746.25 643.938C746.956 644.318 747.663 644.698 748.391 645.09C748.922 645.39 749.453 645.691 750 646C750 646.66 750 647.32 750 648C750.722 648.083 751.444 648.165 752.188 648.25C755.589 649.157 757.455 650.6 760 653C760 653.66 760 654.32 760 655C760.887 655.103 761.774 655.206 762.688 655.312C766.083 656.017 768.219 656.955 771 659C771 659.66 771 660.32 771 661C772.65 661.33 774.3 661.66 776 662C776 662.99 776 663.98 776 665C777.114 665.268 778.227 665.536 779.375 665.812C783 667 783 667 785 670C788.375 669.453 790.082 668.945 793 667C794.32 667 795.64 667 797 667C797.33 666.01 797.66 665.02 798 664C800.258 662.5 800.258 662.5 803.125 661C804.616 660.217 804.616 660.217 806.137 659.418C808.385 658.304 810.619 657.267 812.938 656.312C815.987 655.149 815.987 655.149 818.25 653.312C820 652 820 652 823 652C823.495 650.515 823.495 650.515 824 649C824.66 649 825.32 649 826 649C825.67 647.35 825.34 645.7 825 644C823.917 643.907 823.917 643.907 822.812 643.812C820 643 820 643 817.766 640.711C814.703 637.709 811.672 635.844 807.938 633.812C807.02 633.299 807.02 633.299 806.084 632.775C803.632 631.41 801.196 630.087 798.629 628.949C797 628 797 628 796 625Z" fill="#D7B25E"/>
<path d="M468 861C471.594 860.844 471.594 860.844 475.188 860.687C475.925 860.642 476.663 860.596 477.423 860.55C481.25 860.469 482.901 860.926 485.988 863.227C488 866 488 866 488.375 868.387C488.251 869.146 488.127 869.905 488 870.687C487.897 871.454 487.794 872.221 487.688 873.012C487 875 487 875 484 877C485.687 881.498 487.817 885.729 490 890C488.35 890.33 486.7 890.66 485 891C484.019 889.543 483.041 888.084 482.062 886.625C481.517 885.813 480.972 885.001 480.41 884.164C479 882 479 882 478 880C476.35 879.67 474.7 879.34 473 879C473 882.63 473 886.26 473 890C471.68 890.33 470.36 890.66 469 891C468 890 468 890 467.886 887.224C467.892 886.015 467.897 884.805 467.902 883.559C467.906 882.253 467.909 880.948 467.912 879.603C467.92 878.215 467.929 876.826 467.938 875.437C467.943 874.045 467.947 872.652 467.951 871.26C467.963 867.84 467.979 864.42 468 861ZM473 866C473 868.64 473 871.28 473 874C476.417 874.167 476.417 874.167 480 874C482.287 872.161 482.287 872.161 482.125 869.375C482.084 868.591 482.043 867.807 482 867C477.569 865.187 477.569 865.187 473 866Z" fill="#FEFEFD"/>
<path d="M687 861C688.65 861 690.3 861 692 861C692.02 861.656 692.04 862.312 692.06 862.988C692.155 865.951 692.265 868.913 692.375 871.875C692.406 872.908 692.437 873.94 692.469 875.004C692.507 875.99 692.546 876.976 692.586 877.992C692.617 878.903 692.649 879.815 692.681 880.753C692.799 883.199 692.799 883.199 695 885C699.145 885.286 699.145 885.286 703 884C704.373 879.391 704.333 874.464 704.562 869.688C704.606 868.852 704.649 868.016 704.693 867.154C704.799 865.103 704.9 863.052 705 861C706.65 861 708.3 861 710 861C711.741 864.482 711.227 868.414 711.25 872.25C711.271 873.097 711.291 873.944 711.312 874.816C711.35 880.82 710.597 885.31 706.25 889.812C703.069 891.492 700.599 891.878 697 892C692.997 890.666 689.572 889.424 687 886C686.659 883.365 686.659 883.365 686.707 880.238C686.717 879.12 686.726 878.002 686.736 876.85C686.761 875.682 686.787 874.515 686.812 873.312C686.826 872.134 686.84 870.955 686.854 869.74C686.889 866.826 686.938 863.913 687 861Z" fill="#FCFBF8"/>
<path d="M438 861C439.65 861 441.3 861 443 861C443.02 861.656 443.04 862.312 443.06 862.988C443.155 865.951 443.265 868.913 443.375 871.875C443.406 872.908 443.437 873.94 443.469 875.004C443.507 875.99 443.546 876.976 443.586 877.992C443.617 878.903 443.649 879.815 443.681 880.753C443.799 883.199 443.799 883.199 446 885C449.5 885.417 449.5 885.417 453 885C455.088 881.869 455.277 880.931 455.414 877.332C455.453 876.439 455.491 875.547 455.531 874.627C455.578 873.234 455.578 873.234 455.625 871.812C455.664 870.872 455.702 869.932 455.742 868.963C455.836 866.642 455.922 864.321 456 862C457.656 861.618 459.325 861.286 461 861C463.28 863.28 462.233 868.628 462.25 871.688C462.271 872.587 462.291 873.486 462.313 874.412C462.344 879.685 462.068 883.502 459 888C456.008 890.992 453.738 891.432 449.563 891.438C445.738 891.34 444.227 891.136 440.875 889.125C437.933 885.791 437.879 883.924 437.902 879.555C437.906 878.478 437.909 877.402 437.912 876.293C437.921 875.165 437.929 874.037 437.938 872.875C437.942 871.739 437.947 870.604 437.951 869.434C437.963 866.622 437.98 863.811 438 861Z" fill="#FDFDFD"/>
<path d="M873.598 860.902C875.086 860.909 876.574 860.921 878.062 860.938C878.821 860.942 879.58 860.947 880.361 860.951C882.241 860.963 884.12 860.981 886 861C886.562 862.938 886.562 862.938 887 865C886 866 886 866 883.277 866.098C881.624 866.08 881.624 866.08 879.938 866.062C878.28 866.049 878.28 866.049 876.59 866.035C875.735 866.024 874.881 866.012 874 866C874 867.98 874 869.96 874 872C877.63 872 881.26 872 885 872C885.66 873.32 886.32 874.64 887 876C886.67 876.66 886.34 877.32 886 878C882.37 878 878.74 878 875 878C875 880.31 875 882.62 875 885C878.63 885.33 882.26 885.66 886 886C886.33 887.32 886.66 888.64 887 890C885.179 891.821 882.693 891.132 880.273 891.137C879.523 891.133 878.773 891.129 878 891.125C876.875 891.131 876.875 891.131 875.727 891.137C870.127 891.127 870.127 891.127 869 890C868.9 887.939 868.869 885.875 868.867 883.812C868.866 882.557 868.865 881.301 868.863 880.008C868.865 879.351 868.867 878.694 868.87 878.017C868.875 876.008 868.87 874 868.863 871.992C868.865 870.737 868.866 869.481 868.867 868.188C868.869 866.445 868.869 866.445 868.871 864.668C869.069 860.58 869.353 861.018 873.598 860.902Z" fill="#FDFCFB"/>
<path d="M806 862C805.67 863.32 805.34 864.64 805 866C804.408 865.965 803.817 865.93 803.207 865.894C798.281 865.725 794.996 865.753 791 869C789.78 871.439 789.798 873.153 789.75 875.875C789.724 876.738 789.698 877.602 789.672 878.492C790.079 881.602 790.691 882.869 793 885C795.956 885.699 795.956 885.699 799.188 885.75C800.274 885.806 801.361 885.863 802.48 885.922C803.728 885.96 803.728 885.96 805 886C805 887.32 805 888.64 805 890C802.323 891.338 800.176 891.205 797.188 891.25C796.15 891.275 795.112 891.301 794.043 891.328C790.587 890.955 788.782 890.044 786 888C782.009 882.632 782.245 876.403 783 870C784.295 865.606 786.313 863.402 790.313 861.062C796.101 859.394 800.543 859.354 806 862Z" fill="#FDFDFC"/>
<path d="M581.887 860.121C582.825 860.169 583.762 860.217 584.729 860.267C586.193 860.351 586.193 860.351 587.688 860.437C588.676 860.489 589.664 860.541 590.682 860.595C593.121 860.725 595.561 860.86 598 861C597.67 862.65 597.34 864.3 597 866C594.36 866 591.72 866 589 866C589 873.92 589 881.84 589 890C587.35 890.33 585.7 890.66 584 891C583 890 583 890 582.886 887.683C582.892 886.683 582.897 885.682 582.902 884.652C582.906 883.572 582.909 882.493 582.912 881.38C582.92 880.244 582.929 879.108 582.938 877.937C582.942 876.797 582.947 875.657 582.951 874.482C582.963 871.654 582.979 868.827 583 866C580.36 866 577.72 866 575 866C574.67 864.35 574.34 862.7 574 861C577.031 859.989 578.744 859.949 581.887 860.121Z" fill="#F7F6F4"/>
<path d="M656 538C656 538.66 656 539.32 656 540C654.68 540.33 653.36 540.66 652 541C652 541.99 652 542.98 652 544C649.486 545.714 647.026 547.213 644.375 548.688C643.606 549.127 642.837 549.566 642.045 550.018C640.463 550.92 638.879 551.817 637.292 552.71C635.211 553.881 633.139 555.065 631.07 556.258C626.073 559.136 621.057 561.977 616 564.75C612.526 566.685 609.157 568.572 606 571C606 571.99 606 572.98 606 574C607.114 574.454 608.227 574.907 609.375 575.375C613 577 613 577 615 579C615.66 579 616.32 579 617 579C617 579.66 617 580.32 617 581C618.32 581 619.64 581 621 581C621.33 581.99 621.66 582.98 622 584C622.969 584.309 623.939 584.619 624.938 584.938C628 586 628 586 629.375 588.125C629.581 588.744 629.787 589.363 630 590C624.938 589.48 621.415 587.015 617.25 584.312C616.544 583.863 615.838 583.413 615.111 582.95C610.03 579.701 604.98 576.403 600 573C600.09 571.242 600.09 571.242 601 569C603.176 567.525 605.239 566.324 607.562 565.125C609.02 564.34 610.475 563.552 611.93 562.762C612.734 562.328 613.538 561.894 614.366 561.447C619.36 558.704 624.27 555.814 629.188 552.938C630.735 552.035 630.735 552.035 632.313 551.115C638.883 547.274 645.387 543.348 651.805 539.258C654 538 654 538 656 538Z" fill="#BC9B50"/>
<path d="M686 642C688.223 643.226 690.099 644.442 692.125 645.938C700.361 651.734 708.957 656.898 717.586 662.077C718.814 662.814 720.04 663.552 721.267 664.29C722.914 665.282 724.564 666.27 726.214 667.258C728.581 668.738 730.802 670.282 733 672C732.839 673.771 732.839 673.771 732 676C729.655 677.831 729.655 677.831 726.574 679.672C725.468 680.336 724.361 681 723.221 681.684C722.641 682.023 722.061 682.362 721.463 682.711C719.695 683.746 717.942 684.803 716.189 685.864C707.529 691 707.529 691 703 691C703.33 690.01 703.66 689.02 704 688C706.066 687.051 706.066 687.051 708.562 686.313C709.802 685.936 709.802 685.936 711.066 685.551C711.704 685.369 712.343 685.188 713 685C713 684.34 713 683.68 713 683C713.987 682.541 714.975 682.082 715.992 681.61C717.287 680.99 718.581 680.371 719.875 679.75C720.526 679.45 721.177 679.15 721.848 678.84C725.601 677.021 727.382 675.819 729 672C727.866 671.336 726.731 670.673 725.562 669.989C724.042 669.097 722.521 668.205 721 667.313C720.256 666.878 719.512 666.443 718.746 665.994C714.371 663.426 710.063 660.793 705.824 658.005C703.897 656.943 702.149 656.438 700 656C700 655.34 700 654.68 700 654C699.402 653.897 698.804 653.794 698.188 653.688C695.661 652.894 694.847 651.847 693 650C690.401 648.81 690.401 648.81 688 648C688 647.34 688 646.68 688 646C682.66 644.63 679.852 644.689 675.02 647.457C673.27 648.554 671.535 649.674 669.812 650.813C668.071 651.926 666.327 653.037 664.582 654.145C663.821 654.643 663.06 655.142 662.277 655.656C659.918 657.048 657.564 658.049 655 659C655 658.34 655 657.68 655 657C658.306 654.589 661.841 652.541 665.352 650.441C667.106 649.387 668.846 648.312 670.586 647.235C671.695 646.567 672.803 645.899 673.945 645.211C674.961 644.595 675.977 643.98 677.024 643.345C680.331 641.85 682.412 641.616 686 642Z" fill="#E6C773"/>
<path d="M724 581C728.999 581.349 732.006 583.052 736 586C735.34 586.33 734.68 586.66 734 587C733.072 586.505 732.144 586.01 731.188 585.5C727.547 583.787 726.729 583.818 723 585C720.286 586.734 720.286 586.734 717.625 588.875C713.509 591.972 709.788 594.068 705 596C697.485 599.427 697.485 599.427 692 605C691.01 605.464 691.01 605.464 690 605.938C687.654 606.889 687.654 606.889 687 610C687.66 610 688.32 610 689 610C689 610.66 689 611.32 689 612C689.763 612.103 690.526 612.206 691.312 612.312C694.339 613.087 694.858 613.858 697 616C699.292 617.138 701.617 618.056 704 619C704 619.66 704 620.32 704 621C704.855 621.153 704.855 621.153 705.727 621.309C708.427 622.13 710.116 623.371 712.375 625.062C717.151 628.515 722.099 631.43 727.265 634.246C730.229 635.885 732.777 637.418 735 640C731.639 640 730.539 639.376 727.676 637.727C726.82 637.236 725.964 636.746 725.082 636.241C724.168 635.708 723.254 635.174 722.312 634.625C720.903 633.811 720.903 633.811 719.465 632.98C711.786 628.517 704.228 623.884 696.744 619.102C695.056 618.035 693.349 617 691.641 615.965C690.645 615.358 689.65 614.751 688.625 614.125C687.772 613.612 686.918 613.099 686.039 612.57C683.843 610.879 683.006 609.553 682 607C692.842 600.133 703.806 593.483 714.832 586.916C715.876 586.293 716.92 585.669 717.996 585.027C718.936 584.468 719.877 583.908 720.845 583.332C722.902 582.175 722.902 582.175 724 581Z" fill="#B78E44"/>
<path d="M651 418C651 418.99 651 419.98 651 421C649.525 421.766 649.525 421.766 648.02 422.547C637.22 428.188 626.629 434.149 616.074 440.231C610.757 443.291 605.431 446.334 600.105 449.377C598.297 450.411 596.488 451.446 594.68 452.481C593.554 453.125 592.427 453.77 591.266 454.434C589.662 455.352 589.662 455.352 588.025 456.289C584.579 458.238 581.101 460.125 577.601 461.977C575.828 462.918 575.828 462.918 575 465C574.01 464.67 573.02 464.34 572 464C572 462.68 572 461.36 572 460C574.309 459.062 576.608 458.131 578.973 457.34C583.379 455.833 585.728 454.371 589 451C591.037 449.733 593.129 448.615 595.246 447.488C597.909 446.049 600.517 444.531 603.126 442.998C608.628 439.777 614.05 436.943 620.109 434.887C622.351 434.034 622.351 434.034 624 431C626.066 430.043 626.066 430.043 628.562 429.188C633.188 427.454 636.978 425.226 640.992 422.367C642.938 421.043 644.875 420.005 647 419C649 418 649 418 651 418Z" fill="#E1C16D"/>
<path d="M397 861C398.65 861 400.3 861 402 861C402.099 865.626 402.172 870.252 402.22 874.879C402.24 876.453 402.267 878.026 402.302 879.599C402.35 881.863 402.373 884.126 402.391 886.391C402.411 887.092 402.432 887.793 402.453 888.515C402.455 891.951 402.236 893.695 400.109 896.451C396.683 898.967 394.145 898.276 390 898C389.67 896.68 389.34 895.36 389 894C389.969 893.711 390.939 893.423 391.938 893.125C395.107 892.358 395.107 892.358 396 890C396.155 887.823 396.25 885.642 396.316 883.461C396.358 882.159 396.4 880.857 396.443 879.516C396.483 878.135 396.523 876.755 396.562 875.375C396.606 873.987 396.649 872.599 396.693 871.211C396.8 867.807 396.902 864.404 397 861Z" fill="#FCFCFB"/>
<path d="M703 568C706.356 568.599 708.378 569.846 711 572C709.6 575.471 708.283 576.727 704.949 578.375C703.699 579.008 703.699 579.008 702.423 579.654C701.52 580.098 700.618 580.542 699.688 581C697.777 581.969 695.868 582.942 693.961 583.918C692.485 584.673 692.485 584.673 690.979 585.443C686.189 587.947 681.498 590.617 676.812 593.312C675.977 593.791 675.142 594.27 674.282 594.764C669.21 597.687 664.202 600.695 659.233 603.79C657.03 604.984 655.495 605.779 653 606C650.758 605.044 650.758 605.044 648.34 603.543C647.026 602.74 647.026 602.74 645.686 601.92C644.779 601.348 643.872 600.777 642.938 600.188C641.571 599.347 641.571 599.347 640.178 598.49C636.75 596.376 633.352 594.234 630 592C630 591.34 630 590.68 630 590C634.813 589.434 637.245 591.098 641 594C641.33 594.66 641.66 595.32 642 596C643.145 596.433 643.145 596.433 644.312 596.875C647 598 647 598 648.938 600.125C650.898 602.23 650.898 602.23 653.812 602.562C657.557 601.902 659.474 600.542 662.387 598.191C664 597 664 597 667 596C667.33 595.34 667.66 594.68 668 594C669.758 593.246 669.758 593.246 672.125 592.438C677.594 590.352 682.348 587.505 687.298 584.431C692.316 581.336 697.411 578.781 702.805 576.387C705.142 575.195 705.142 575.195 705.91 572.941C706.223 570.873 706.223 570.873 704.562 569.25C704.047 568.838 703.531 568.425 703 568Z" fill="#BF9748"/>
<path d="M739 416C745.744 417.124 745.744 417.124 748.758 419.125C749.453 419.576 750.148 420.027 750.864 420.492C751.61 420.99 752.356 421.487 753.125 422C759.151 425.93 765.218 429.762 771.402 433.438C772.035 433.815 772.668 434.193 773.32 434.582C775.865 436.1 778.41 437.617 780.966 439.116C782.765 440.173 784.557 441.241 786.348 442.312C787.389 442.927 788.431 443.542 789.504 444.176C792.002 446.002 792.953 447.135 794 450C792.68 449.67 791.36 449.34 790 449C790 448.34 790 447.68 790 447C788.68 447 787.36 447 786 447C786 446.34 786 445.68 786 445C785.01 445 784.02 445 783 445C783 444.34 783 443.68 783 443C782.464 442.897 781.928 442.794 781.375 442.688C778.35 441.812 775.75 440.528 773 439C772.505 438.01 772.505 438.01 772 437C766.819 433.724 766.819 433.724 761 432C761 431.34 761 430.68 761 430C760.34 430 759.68 430 759 430C759 429.34 759 428.68 759 428C758.426 427.885 757.853 427.771 757.262 427.652C754.793 426.94 752.98 425.933 750.812 424.562C750.118 424.131 749.423 423.699 748.707 423.254C747 422 747 422 746 420C744.067 418.908 744.067 418.908 742 418C741.34 417.67 740.68 417.34 740 417C740 436.14 740 455.28 740 475C740.99 475.33 741.98 475.66 743 476C741.35 476 739.7 476 738 476C738.495 446.3 738.495 446.3 739 416Z" fill="#B18C43"/>
<path d="M570 610C572.188 609.688 572.188 609.688 575 610C575.713 610.721 576.426 611.441 577.16 612.184C580.563 615.558 584.186 617.874 588.25 620.375C589.069 620.886 589.888 621.397 590.732 621.924C598.664 626.848 606.683 631.626 614.7 636.409C623.547 641.697 632.275 647.157 640.961 652.704C644.295 654.823 647.647 656.912 651 659C649.515 659.495 649.515 659.495 648 660C645.967 658.718 643.969 657.378 642 656C641.113 655.649 640.226 655.299 639.312 654.938C637 654 637 654 635.625 652.562C633.126 650.16 630.209 649.272 627 648C627 647.34 627 646.68 627 646C626.01 646 625.02 646 624 646C624 645.34 624 644.68 624 644C623.01 643.794 622.02 643.588 621 643.375C617.047 642.252 614.442 640.202 611.266 637.664C607.132 634.628 602.545 632.356 598 630C598 629.34 598 628.68 598 628C597.125 627.742 596.249 627.484 595.348 627.219C591.976 625.991 589.408 624.494 586.438 622.5C583.756 620.705 581.333 619.132 578.332 617.938C574.577 616.428 571.805 613.611 570 610Z" fill="#B28D42"/>
<path d="M687 861C688.65 861 690.3 861 692 861C692.009 861.64 692.019 862.281 692.028 862.94C692.082 865.857 692.166 868.772 692.25 871.688C692.264 872.695 692.278 873.702 692.293 874.74C692.48 880.413 692.653 883.917 697 888C698.006 889.329 699.008 890.661 700 892C698.58 891.769 697.164 891.515 695.75 891.25C694.961 891.111 694.172 890.972 693.359 890.828C690.321 889.762 689.027 888.499 687 886C686.546 883.251 686.546 883.251 686.609 880.141C686.622 879.026 686.635 877.911 686.648 876.762C686.682 875.603 686.715 874.444 686.75 873.25C686.768 872.076 686.786 870.901 686.805 869.691C686.852 866.793 686.918 863.897 687 861Z" fill="#FDFDFB"/>
<path d="M527 524C527.33 524 527.66 524 528 524C528.66 526.64 529.32 529.28 530 532C517.977 543 517.977 543 512 543C511.711 543.639 511.423 544.279 511.125 544.938C510 547 510 547 508 548C507.67 555.59 507.34 563.18 507 571C505.515 571.495 505.515 571.495 504 572C503.913 567.896 503.86 563.792 503.812 559.688C503.787 558.52 503.762 557.353 503.736 556.15C503.722 554.473 503.722 554.473 503.707 552.762C503.691 551.73 503.676 550.698 503.659 549.635C504 547 504 547 505.272 545.291C507.109 543.919 508.95 542.727 510.941 541.59C511.69 541.157 512.438 540.725 513.209 540.279C513.986 539.837 514.762 539.394 515.562 538.938C517.107 538.054 518.65 537.167 520.191 536.277C520.874 535.888 521.557 535.499 522.26 535.097C524.156 533.991 524.156 533.991 526 532C526.458 530.028 526.458 530.028 526.625 527.875C526.749 526.596 526.873 525.317 527 524Z" fill="#D1AD5A"/>
<path d="M457 861C458.65 861.33 460.3 861.66 462 862C462 868.6 462 875.2 462 882C461.01 882 460.02 882 459 882C457.312 883.438 457.312 883.438 456 885C455.015 882.045 454.933 880.42 455.086 877.367C455.13 876.479 455.174 875.591 455.219 874.676C455.27 873.752 455.322 872.827 455.375 871.875C455.419 870.943 455.463 870.011 455.508 869.051C455.871 862.13 455.871 862.13 457 861Z" fill="#F5F5F3"/>
<path d="M513 861C514.675 861.286 516.344 861.618 518 862C518.087 865.583 518.14 869.166 518.188 872.75C518.213 873.766 518.238 874.782 518.264 875.828C518.273 876.808 518.283 877.788 518.293 878.797C518.317 880.148 518.317 880.148 518.341 881.526C517.938 884.453 516.934 885.813 515 888C515 887.01 515 886.02 515 885C514.01 885 513.02 885 512 885C511.971 881.188 511.953 877.375 511.938 873.562C511.929 872.474 511.921 871.385 511.912 870.264C511.909 869.229 511.906 868.195 511.902 867.129C511.897 866.171 511.892 865.212 511.886 864.225C512 862 512 862 513 861Z" fill="#F8F7F6"/>
<path d="M623 559C617.824 562.223 617.824 562.223 616 563C615.01 562.67 614.02 562.34 613 562C619.625 557.875 619.625 557.875 623 559ZM613 563C613 563.66 613 564.32 613 565C612.362 565.326 611.724 565.652 611.066 565.988C610.24 566.425 609.414 566.862 608.562 567.312C607.739 567.742 606.915 568.171 606.066 568.613C603.694 569.9 603.694 569.9 603 573C604.083 573.433 604.083 573.433 605.188 573.875C606.116 574.246 607.044 574.617 608 575C609.33 575.495 609.33 575.495 610.688 576C613 577 613 577 615 579C615.66 579 616.32 579 617 579C617 579.66 617 580.32 617 581C618.32 581 619.64 581 621 581C621.33 581.99 621.66 582.98 622 584C622.969 584.309 623.939 584.619 624.938 584.937C628 586 628 586 629.375 588.125C629.581 588.744 629.787 589.362 630 590C624.938 589.48 621.415 587.015 617.25 584.312C616.544 583.863 615.838 583.413 615.111 582.95C610.03 579.701 604.98 576.403 600 573C600.191 571.203 600.191 571.203 601 569C603.215 567.297 603.215 567.297 605.938 565.75C607.281 564.969 607.281 564.969 608.652 564.172C611 563 611 563 613 563Z" fill="#C8A251"/>
<path d="M568 409C566.903 409.675 565.806 410.351 564.676 411.047C563.221 411.948 561.767 412.849 560.312 413.75C559.231 414.415 559.231 414.415 558.127 415.094C555.016 417.026 552.076 418.939 549.219 421.238C547.142 422.887 545.687 423.674 543.188 424.437C539.277 425.773 536.079 427.705 532.664 430.012C531 431 531 431 529 431C529.66 432.32 530.32 433.64 531 435C528.532 433.848 526.952 432.952 525 431C525.72 430.587 526.439 430.175 527.18 429.75C529.912 428.183 532.642 426.614 535.372 425.044C536.579 424.35 537.786 423.657 538.993 422.964C546.688 418.547 554.301 414.058 561.68 409.125C564.416 407.798 565.197 408.138 568 409Z" fill="#E4C774"/>
<path d="M652 420C655.012 420.644 657.517 421.65 660.25 423.062C660.956 423.425 661.663 423.787 662.391 424.16C662.922 424.437 663.453 424.714 664 425C664 425.66 664 426.32 664 427C664.701 427.268 665.402 427.536 666.125 427.812C669.165 429.068 672.073 430.502 675 432C675 432.66 675 433.32 675 434C676.092 434.412 676.092 434.412 677.207 434.832C685.452 438.28 692.781 443.808 700 449C699.01 449.495 699.01 449.495 698 450C696.239 449.202 696.239 449.202 694.098 447.895C693.299 447.411 692.5 446.928 691.677 446.43C690.814 445.896 689.951 445.362 689.062 444.812C687.733 444.001 687.733 444.001 686.376 443.174C683.577 441.46 680.787 439.732 678 438C677.112 437.449 676.224 436.898 675.31 436.33C672.765 434.747 670.225 433.157 667.688 431.562C666.919 431.08 666.15 430.597 665.358 430.099C660.794 427.207 656.325 424.24 652 421C652 420.67 652 420.34 652 420Z" fill="#DEB864"/>
<path d="M834 881C834.375 883.188 834.375 883.188 834 886C829.921 890.378 827.106 891.634 821 892C820.876 891.361 820.752 890.721 820.625 890.062C820.419 889.382 820.213 888.701 820 888C819.34 887.67 818.68 887.34 818 887C818.87 886.853 818.87 886.853 819.758 886.703C824.008 885.89 830.543 881 834 881Z" fill="#FBF9F7"/>
<path d="M630 590C634.813 589.434 637.245 591.098 641 594C641.33 594.66 641.66 595.32 642 596C642.763 596.289 643.526 596.578 644.312 596.875C647 598 647 598 648.812 600.063C652.035 602.917 654.757 602.717 659 603C656.816 605.184 656.017 605.692 653 606C650.758 605.044 650.758 605.044 648.34 603.543C647.464 603.007 646.588 602.472 645.686 601.92C644.779 601.348 643.872 600.777 642.938 600.188C642.027 599.627 641.116 599.067 640.178 598.49C636.75 596.376 633.352 594.234 630 592C630 591.34 630 590.68 630 590Z" fill="#C8A14F"/>
<path d="M656 539C659.184 539.639 661.541 540.758 664.309 542.441C665.133 542.939 665.957 543.437 666.806 543.95C667.674 544.482 668.543 545.014 669.438 545.562C670.325 546.102 671.213 546.642 672.128 547.199C673.915 548.287 675.701 549.376 677.486 550.468C679.718 551.828 681.959 553.171 684.207 554.504C685.388 555.211 686.569 555.918 687.75 556.625C688.776 557.236 689.802 557.847 690.859 558.477C691.566 558.979 692.272 559.482 693 560C693 560.66 693 561.32 693 562C689 562 689 562 687.438 560.562C686.963 560.047 686.489 559.531 686 559C685.01 558.67 684.02 558.34 683 558C681.983 557.017 680.984 556.016 680 555C678.853 554.196 677.681 553.429 676.488 552.695C675.812 552.276 675.136 551.857 674.439 551.426C673.738 550.997 673.036 550.567 672.312 550.125C670.934 549.273 669.555 548.422 668.176 547.57C666.02 546.241 663.861 544.916 661.697 543.601C660.965 543.152 660.234 542.704 659.48 542.242C658.479 541.633 658.479 541.633 657.458 541.011C656.977 540.678 656.496 540.344 656 540C656 539.67 656 539.34 656 539Z" fill="#B89346"/>
<path d="M527 524C527.33 524 527.66 524 528 524C528.66 526.64 529.32 529.28 530 532C517.977 543 517.977 543 512 543C512 543.66 512 544.32 512 545C511.196 545.289 510.391 545.577 509.562 545.875C506.867 546.733 506.867 546.733 506 549C505.34 549 504.68 549 504 549C504.35 546.317 504.659 545.268 506.826 543.568C507.604 543.141 508.382 542.714 509.184 542.273C510.029 541.799 510.874 541.325 511.744 540.836C512.633 540.354 513.522 539.872 514.438 539.375C516.188 538.406 517.936 537.435 519.684 536.461C520.463 536.036 521.242 535.611 522.045 535.173C524.135 534.026 524.135 534.026 526 532C526.458 530.028 526.458 530.028 526.625 527.875C526.749 526.596 526.873 525.317 527 524Z" fill="#D3B461"/>
<path d="M651.417 359.738C653.941 360.971 656.278 362.307 658.645 363.82C659.906 364.623 659.906 364.623 661.193 365.441C662.058 365.997 662.922 366.553 663.812 367.125C664.696 367.688 665.58 368.252 666.49 368.832C668.663 370.218 670.832 371.607 673 373C669.894 373.984 669.194 374.077 666 372.813C663.166 371.1 661.32 369.32 659 367C657.344 366.307 655.679 365.635 654 365C653.67 364.34 653.34 363.68 653 363C649.971 362.342 649.971 362.342 647 362C646.34 363.32 645.68 364.64 645 366C644.01 365.67 643.02 365.34 642 365C642.66 364.67 643.32 364.34 644 364C643.67 363.34 643.34 362.68 643 362C648.31 358.789 648.31 358.789 651.417 359.738Z" fill="#D7B563"/>
<path d="M622 864C622.33 864 622.66 864 623 864C623 871.92 623 879.84 623 888C621.35 888 619.7 888 618 888C618.012 887.374 618.023 886.747 618.035 886.102C618.044 885.284 618.053 884.467 618.062 883.625C618.08 882.407 618.08 882.407 618.098 881.164C618.145 878.951 618.145 878.951 617 877C617.99 876.67 618.98 876.34 620 876C620.33 876.33 620.66 876.66 621 877C621.33 872.71 621.66 868.42 622 864Z" fill="#F4F4F2"/>
<path d="M706 868C706.33 868 706.66 868 707 868C707.861 883.046 707.861 883.046 704.5 886.938C703.675 887.618 702.85 888.299 702 889C702.66 889.66 703.32 890.32 704 891C702.02 891 700.04 891 698 891C697.67 890.01 697.34 889.02 697 888C696.34 887.67 695.68 887.34 695 887C695.831 886.78 695.831 886.78 696.68 886.555C701.431 885.156 701.431 885.156 704.438 881.438C705.168 876.971 705.661 872.513 706 868Z" fill="#F6F5F2"/>
<path d="M552 878C554.475 878.99 554.475 878.99 557 880C557 883.3 557 886.6 557 890C555.344 890.382 553.675 890.714 552 891C551 890 551 890 550.867 887.785C550.87 886.887 550.872 885.988 550.875 885.062C550.872 884.167 550.87 883.271 550.867 882.348C551 880 551 880 552 878Z" fill="#F8F7F5"/>
<path d="M677 870C678.852 872.723 678.996 874.082 678.812 877.438C677.789 881.923 676.237 884.763 673 888C670.836 888.195 670.836 888.195 668.375 888.125C667.558 888.107 666.74 888.089 665.898 888.07C665.272 888.047 664.645 888.024 664 888C664 887.67 664 887.34 664 887C664.626 886.818 665.253 886.636 665.898 886.449C666.716 886.198 667.533 885.946 668.375 885.688C669.593 885.322 669.593 885.322 670.836 884.949C673.332 884.086 673.332 884.086 675 881C675.418 878.788 675.418 878.788 675.562 876.438C675.904 872.192 675.904 872.192 677 870Z" fill="#F6F4F1"/>
<path d="M589 454C589 454.66 589 455.32 589 456C588.073 456.482 587.146 456.964 586.191 457.461C584.982 458.099 583.772 458.737 582.562 459.375C581.951 459.692 581.339 460.009 580.709 460.336C577.248 462.023 577.248 462.023 575 465C574.01 464.67 573.02 464.34 572 464C572 462.68 572 461.36 572 460C572.639 459.752 573.279 459.505 573.938 459.25C577.315 457.872 580.61 456.349 583.914 454.805C586 454 586 454 589 454Z" fill="#E5C87F"/>
<path d="M699 690C699.66 690 700.32 690 701 690C701 690.66 701 691.32 701 692C701.99 692.33 702.98 692.66 704 693C701.425 694.536 698.841 696.054 696.25 697.562C695.52 698 694.791 698.438 694.039 698.889C693.33 699.298 692.621 699.707 691.891 700.129C690.917 700.702 690.917 700.702 689.923 701.287C687.559 702.163 686.341 701.822 684 701C688.119 697.28 694.207 693 700 693C699.67 692.01 699.34 691.02 699 690Z" fill="#BF9747"/>
<path d="M805 886C805 887.32 805 888.64 805 890C802.043 891.478 799.258 891.06 796 891C795.34 889.68 794.68 888.36 794 887C801.625 886 801.625 886 805 886Z" fill="#F7F7F5"/>
<path d="M457 864C457.33 864 457.66 864 458 864C458 870.6 458 877.2 458 884C457.34 884.33 456.68 884.66 456 885C454.686 881.058 455.106 877.454 455.375 873.375C455.441 872.192 455.441 872.192 455.508 870.984C455.87 865.13 455.87 865.13 457 864Z" fill="#EEEDEB"/>
<path d="M673 374C677.235 375.531 680.992 377.649 684.812 380C685.41 380.356 686.007 380.712 686.623 381.078C688.119 381.994 689.565 382.991 691 384C691 384.66 691 385.32 691 386C686.659 384.935 684.069 384.179 681 381C678.917 379.658 676.789 378.424 674.645 377.184C674.102 376.793 673.559 376.402 673 376C673 375.34 673 374.68 673 374Z" fill="#D7B560"/>
<path d="M572 600C572.66 600 573.32 600 574 600C575.607 603.215 575.057 606.436 575 610C574.01 610.33 573.02 610.66 572 611C571.34 610.67 570.68 610.34 570 610C570.66 606.7 571.32 603.4 572 600Z" fill="#D2AB5B"/>
<path d="M881 872C882.65 872.33 884.3 872.66 886 873C886.33 873.99 886.66 874.98 887 876C886.67 876.66 886.34 877.32 886 878C883.03 878 880.06 878 877 878C877 877.34 877 876.68 877 876C879.31 876 881.62 876 884 876C884 875.34 884 874.68 884 874C883.01 874 882.02 874 881 874C881 873.34 881 872.68 881 872Z" fill="#EFEFED"/>
<path d="M570 464C571.65 464.33 573.3 464.66 575 465C575 469.95 575 474.9 575 480C574.67 480 574.34 480 574 480C573.856 478.928 573.711 477.855 573.562 476.75C573.106 473.215 573.106 473.215 572.375 470.688C572 469 572 469 573 467C571.68 466.34 570.36 465.68 569 465C569.33 464.67 569.66 464.34 570 464Z" fill="#B99851"/>
<path d="M829 883C829.66 883.33 830.32 883.66 831 884C829.188 886 829.188 886 827 888C826.01 888 825.02 888 824 888C824 888.66 824 889.32 824 890C822.68 890 821.36 890 820 890C820 889.34 820 888.68 820 888C819.34 887.67 818.68 887.34 818 887C818.626 886.879 819.253 886.758 819.898 886.633C820.716 886.465 821.533 886.298 822.375 886.125C823.187 885.963 823.999 885.8 824.836 885.633C827.187 885.133 827.187 885.133 829 883Z" fill="#F4F4F2"/>
<path d="M538 426C535.147 428.325 532.459 429.751 529 431C529.66 432.32 530.32 433.64 531 435C528.532 433.848 526.952 432.952 525 431C526.596 429.967 528.202 428.949 529.812 427.938C530.706 427.369 531.599 426.801 532.52 426.215C535 425 535 425 538 426Z" fill="#E0CA84"/>
<path d="M416 887C418.31 887 420.62 887 423 887C423.66 888.32 424.32 889.64 425 891C423.02 891.33 421.04 891.66 419 892C418.01 890.35 417.02 888.7 416 887Z" fill="#F5F5F2"/>
<path d="M706 868C706.33 868 706.66 868 707 868C707 872.95 707 877.9 707 883C706.01 883.33 705.02 883.66 704 884C703.957 882.334 703.959 880.666 704 879C704.33 878.67 704.66 878.34 705 878C705.233 876.318 705.413 874.629 705.563 872.938C705.646 872.018 705.73 871.099 705.816 870.152C705.877 869.442 705.938 868.732 706 868Z" fill="#EDEDEB"/>
<path d="M710 871C710.33 871 710.66 871 711 871C711 873.97 711 876.94 711 880C710.01 880.33 709.02 880.66 708 881C707.805 874.945 707.805 874.945 708 873C708.66 872.34 709.32 871.68 710 871Z" fill="#F4F3F2"/>
<path d="M796 625C800.615 626.319 804.099 628.214 808 631C805 632 805 632 802.992 631.328C802.294 630.972 801.595 630.617 800.875 630.25C800.171 629.905 799.467 629.559 798.742 629.203C797 628 797 628 796 625Z" fill="#D7B25C"/>
<path d="M651 359C651 359.99 651 360.98 651 362C649.68 362 648.36 362 647 362C646.34 363.32 645.68 364.64 645 366C644.01 365.67 643.02 365.34 642 365C642.66 364.67 643.32 364.34 644 364C643.67 363.34 643.34 362.68 643 362C648.75 359 648.75 359 651 359Z" fill="#DBBA6B"/>
<path d="M644 866C644.66 866 645.32 866 646 866C646.33 868.31 646.66 870.62 647 873C646.01 873 645.02 873 644 873C644 870.69 644 868.38 644 866Z" fill="#F0F1EE"/>
<path d="M513 543C511.61 545.78 509.813 545.875 507 547C506.67 547.66 506.34 548.32 506 549C505.34 549 504.68 549 504 549C504.188 547.187 504.188 547.187 505 545C509.256 541.752 509.256 541.752 513 543Z" fill="#DAB867"/>
<path d="M828 645C829.98 645.495 829.98 645.495 832 646C831.34 647.32 830.68 648.64 830 650C829.01 649.67 828.02 649.34 827 649C827.33 647.68 827.66 646.36 828 645Z" fill="#E3BC5E"/>
</svg>
