<svg xmlns="http://www.w3.org/2000/svg" width="144" height="80" fill="none" viewBox="0 0 144 80">
  <mask id="a" width="145" height="29" x="-1" y="45" fill="#000" maskUnits="userSpaceOnUse">
    <path fill="#fff" d="M-1 45h145v29H-1z"/>
    <path d="m18.24 49.71 2.1 2.13c2.19 2.19 3.42 5.34 3.42 8.73 0 6.15-4.74 11.91-11.1 11.91H2.73L.6 70.35v-23.7h9.93c3.18 0 5.79 1.17 7.71 3.06ZM1.95 48v21h8.58c5.76 0 9.75-5.31 9.75-10.56 0-5.22-3.33-10.44-9.75-10.44H1.95Zm7.98 16.65H6.9v-12.3h3.03c3.57 0 5.37 3 5.37 5.97 0 3.12-1.8 6.33-5.37 6.33Zm3.6-8.55c-.45-.18-.96-.27-1.47-.27h-1.68v7.44c2.46-.27 3.57-2.7 3.57-4.95 0-.84-.15-1.59-.42-2.22Zm22.419-1.32 2.13 2.13c.84.84 1.53 1.92 1.98 3.21l.45 1.62.09.66v1.53l.45.45-.27 1.56c-.69 4.35-4.86 6.84-9.06 6.84-2.73 0-5.01-.93-6.63-2.55l-2.1-2.13c-1.62-1.59-2.55-3.9-2.55-6.6 0-5.4 3.75-9.15 9.15-9.15 2.49 0 4.74.81 6.36 2.43Zm1.38 8.82h-4.83c-.24.33-1.05 1.5-2.91 1.5-1.8 0-2.67-1.11-2.91-2.58h10.44v-2.25c-.6-4.11-3.39-6.57-7.53-6.57-4.68 0-7.8 3.12-7.8 7.8s3.12 7.8 7.8 7.8c4.26 0 7.23-2.58 7.74-5.7Zm-5.07-3.63h-5.46c.36-1.2 1.2-2.07 2.79-2.07 1.53 0 2.25.78 2.58 1.5.06.15.06.3.09.57Zm16.164-7.32h8.1l2.13 2.13-7.08 17.7h-7.02l-2.1-2.13-7.08-17.7h8.07l2.13 2.13 1.02 2.52 1.83-4.65Zm.12 16.35 6-15h-5.19l-3.39 8.52-3.42-8.52h-5.19l6 15h5.19Zm17.708-22.65c3.6 0 6.66 1.23 8.79 3.36l2.1 2.13c2.16 2.13 3.39 5.16 3.39 8.79 0 2.43-.57 4.95-1.98 7.08l4.74 4.77h-8.73l-.75-.78c-1.74.75-3.63 1.08-5.43 1.08-3.63 0-6.66-1.23-8.79-3.39l-2.13-2.1c-2.13-2.13-3.36-5.19-3.36-8.79 0-7.23 4.92-12.15 12.15-12.15ZM55.45 58.5c0 6.48 4.32 10.8 10.8 10.8 2.16 0 4.11-.48 5.7-1.35L73 69h4.92l-3.27-3.27c1.53-1.83 2.4-4.32 2.4-7.23 0-6.48-4.32-10.8-10.8-10.8s-10.8 4.32-10.8 10.8Zm4.95 0c0-3.78 2.16-6.45 5.85-6.45 3.72 0 5.85 2.64 5.85 6.45 0 1.47-.3 2.76-.9 3.78h-4.92l2.28 2.28c-.69.27-1.47.39-2.31.39-3.69 0-5.85-2.67-5.85-6.45Zm9.87-2.64a5.43 5.43 0 0 0-1.89-.33c-3.09 0-4.5 2.19-4.5 5.1v.3h6.48c.27-.72.39-1.56.39-2.43 0-1.02-.18-1.89-.48-2.64Zm-4.62 7.71-1.68-1.68c.09.48.21.96.39 1.35.39.18.84.27 1.29.33Zm22.043-10.92h7.5l2.13 2.13v17.7h-7.5l-.15-.15c-.93.36-1.95.45-2.82.45-1.83 0-3.75-.9-5.01-2.16l-2.13-2.13a6.328 6.328 0 0 1-1.92-4.59V52.65h7.5l2.13 2.13v8.43c.21-.21.27-.51.27-.96v-9.6ZM93.844 69V54h-4.8v8.25c0 1.77-.96 2.52-2.55 2.52-1.59 0-2.55-.75-2.55-2.52V54h-4.8v9.9c.24 4.53 4.35 5.4 5.58 5.4 2.67 0 3.75-.99 4.32-1.98V69h4.8Zm16.724-14.22 2.13 2.13c.84.84 1.53 1.92 1.98 3.21l.45 1.62.09.66v1.53l.45.45-.27 1.56c-.69 4.35-4.86 6.84-9.06 6.84-2.73 0-5.01-.93-6.63-2.55l-2.1-2.13c-1.62-1.59-2.55-3.9-2.55-6.6 0-5.4 3.75-9.15 9.15-9.15 2.49 0 4.74.81 6.36 2.43Zm1.38 8.82h-4.83c-.24.33-1.05 1.5-2.91 1.5-1.8 0-2.67-1.11-2.91-2.58h10.44v-2.25c-.6-4.11-3.39-6.57-7.53-6.57-4.68 0-7.8 3.12-7.8 7.8s3.12 7.8 7.8 7.8c4.26 0 7.23-2.58 7.74-5.7Zm-5.07-3.63h-5.46c.36-1.2 1.2-2.07 2.79-2.07 1.53 0 2.25.78 2.58 1.5.06.15.06.3.09.57Zm18.408-5.55 2.13 2.13c.99.99 1.65 2.43 1.65 4.38v1.35l-1.95.03.72.72c.87.87 1.47 2.04 1.47 3.6 0 4.5-3.75 6.15-7.77 6.15-2.1 0-4.56-.69-6.18-2.31l-2.13-2.13c-1.02-1.02-1.71-2.43-1.71-4.29V62.7h2.64c-1.23-1.05-2.01-2.55-2.01-4.5 0-4.14 3.48-5.85 7.23-5.85 2.13 0 4.41.57 5.91 2.07Zm.54 10.08c0-2.31-1.53-3.69-5.25-4.47-1.71-.36-2.31-.75-2.31-1.47s.36-1.23 1.11-1.23c.75 0 1.41.57 1.41 1.47h4.8c0-3.48-2.61-5.1-6.21-5.1-3.57 0-5.88 1.62-5.88 4.5 0 2.25 1.44 4.11 4.02 4.74 2.28.57 3.57 1.11 3.57 1.77 0 .66-.57.96-1.71.96-1.05 0-1.71-.6-1.71-1.62h-4.8c0 3.27 2.94 5.25 6.54 5.25 4.02 0 6.42-1.59 6.42-4.8Zm11.9-11.85h2.04l2.13 2.13v6.9h-4.17v2.07h2.37l2.13 2.13v6.9h-3.45c-3.24 0-5.46-.42-6.81-1.77l-2.13-2.13c-1.2-1.2-1.74-3.12-1.74-6.18v-1.02h-.45l-2.13-2.13v-6.9h2.58V48.9h7.5l2.13 2.13v1.62Zm-3.48 10.05v-4.5h4.17V54h-4.17v-3.75h-4.8V54h-2.58v4.2h2.58v4.5c0 4.98 1.02 6.6 7.2 6.6h2.1v-4.2h-2.1c-2.01 0-2.4-.78-2.4-2.4Z"/>
  </mask>
  <path fill="#000" d="m18.24 49.71 2.1 2.13c2.19 2.19 3.42 5.34 3.42 8.73 0 6.15-4.74 11.91-11.1 11.91H2.73L.6 70.35v-23.7h9.93c3.18 0 5.79 1.17 7.71 3.06ZM1.95 48v21h8.58c5.76 0 9.75-5.31 9.75-10.56 0-5.22-3.33-10.44-9.75-10.44H1.95Zm7.98 16.65H6.9v-12.3h3.03c3.57 0 5.37 3 5.37 5.97 0 3.12-1.8 6.33-5.37 6.33Zm3.6-8.55c-.45-.18-.96-.27-1.47-.27h-1.68v7.44c2.46-.27 3.57-2.7 3.57-4.95 0-.84-.15-1.59-.42-2.22Zm22.419-1.32 2.13 2.13c.84.84 1.53 1.92 1.98 3.21l.45 1.62.09.66v1.53l.45.45-.27 1.56c-.69 4.35-4.86 6.84-9.06 6.84-2.73 0-5.01-.93-6.63-2.55l-2.1-2.13c-1.62-1.59-2.55-3.9-2.55-6.6 0-5.4 3.75-9.15 9.15-9.15 2.49 0 4.74.81 6.36 2.43Zm1.38 8.82h-4.83c-.24.33-1.05 1.5-2.91 1.5-1.8 0-2.67-1.11-2.91-2.58h10.44v-2.25c-.6-4.11-3.39-6.57-7.53-6.57-4.68 0-7.8 3.12-7.8 7.8s3.12 7.8 7.8 7.8c4.26 0 7.23-2.58 7.74-5.7Zm-5.07-3.63h-5.46c.36-1.2 1.2-2.07 2.79-2.07 1.53 0 2.25.78 2.58 1.5.06.15.06.3.09.57Zm16.164-7.32h8.1l2.13 2.13-7.08 17.7h-7.02l-2.1-2.13-7.08-17.7h8.07l2.13 2.13 1.02 2.52 1.83-4.65Zm.12 16.35 6-15h-5.19l-3.39 8.52-3.42-8.52h-5.19l6 15h5.19Zm17.708-22.65c3.6 0 6.66 1.23 8.79 3.36l2.1 2.13c2.16 2.13 3.39 5.16 3.39 8.79 0 2.43-.57 4.95-1.98 7.08l4.74 4.77h-8.73l-.75-.78c-1.74.75-3.63 1.08-5.43 1.08-3.63 0-6.66-1.23-8.79-3.39l-2.13-2.1c-2.13-2.13-3.36-5.19-3.36-8.79 0-7.23 4.92-12.15 12.15-12.15ZM55.45 58.5c0 6.48 4.32 10.8 10.8 10.8 2.16 0 4.11-.48 5.7-1.35L73 69h4.92l-3.27-3.27c1.53-1.83 2.4-4.32 2.4-7.23 0-6.48-4.32-10.8-10.8-10.8s-10.8 4.32-10.8 10.8Zm4.95 0c0-3.78 2.16-6.45 5.85-6.45 3.72 0 5.85 2.64 5.85 6.45 0 1.47-.3 2.76-.9 3.78h-4.92l2.28 2.28c-.69.27-1.47.39-2.31.39-3.69 0-5.85-2.67-5.85-6.45Zm9.87-2.64a5.43 5.43 0 0 0-1.89-.33c-3.09 0-4.5 2.19-4.5 5.1v.3h6.48c.27-.72.39-1.56.39-2.43 0-1.02-.18-1.89-.48-2.64Zm-4.62 7.71-1.68-1.68c.09.48.21.96.39 1.35.39.18.84.27 1.29.33Zm22.043-10.92h7.5l2.13 2.13v17.7h-7.5l-.15-.15c-.93.36-1.95.45-2.82.45-1.83 0-3.75-.9-5.01-2.16l-2.13-2.13a6.328 6.328 0 0 1-1.92-4.59V52.65h7.5l2.13 2.13v8.43c.21-.21.27-.51.27-.96v-9.6ZM93.844 69V54h-4.8v8.25c0 1.77-.96 2.52-2.55 2.52-1.59 0-2.55-.75-2.55-2.52V54h-4.8v9.9c.24 4.53 4.35 5.4 5.58 5.4 2.67 0 3.75-.99 4.32-1.98V69h4.8Zm16.724-14.22 2.13 2.13c.84.84 1.53 1.92 1.98 3.21l.45 1.62.09.66v1.53l.45.45-.27 1.56c-.69 4.35-4.86 6.84-9.06 6.84-2.73 0-5.01-.93-6.63-2.55l-2.1-2.13c-1.62-1.59-2.55-3.9-2.55-6.6 0-5.4 3.75-9.15 9.15-9.15 2.49 0 4.74.81 6.36 2.43Zm1.38 8.82h-4.83c-.24.33-1.05 1.5-2.91 1.5-1.8 0-2.67-1.11-2.91-2.58h10.44v-2.25c-.6-4.11-3.39-6.57-7.53-6.57-4.68 0-7.8 3.12-7.8 7.8s3.12 7.8 7.8 7.8c4.26 0 7.23-2.58 7.74-5.7Zm-5.07-3.63h-5.46c.36-1.2 1.2-2.07 2.79-2.07 1.53 0 2.25.78 2.58 1.5.06.15.06.3.09.57Zm18.408-5.55 2.13 2.13c.99.99 1.65 2.43 1.65 4.38v1.35l-1.95.03.72.72c.87.87 1.47 2.04 1.47 3.6 0 4.5-3.75 6.15-7.77 6.15-2.1 0-4.56-.69-6.18-2.31l-2.13-2.13c-1.02-1.02-1.71-2.43-1.71-4.29V62.7h2.64c-1.23-1.05-2.01-2.55-2.01-4.5 0-4.14 3.48-5.85 7.23-5.85 2.13 0 4.41.57 5.91 2.07Zm.54 10.08c0-2.31-1.53-3.69-5.25-4.47-1.71-.36-2.31-.75-2.31-1.47s.36-1.23 1.11-1.23c.75 0 1.41.57 1.41 1.47h4.8c0-3.48-2.61-5.1-6.21-5.1-3.57 0-5.88 1.62-5.88 4.5 0 2.25 1.44 4.11 4.02 4.74 2.28.57 3.57 1.11 3.57 1.77 0 .66-.57.96-1.71.96-1.05 0-1.71-.6-1.71-1.62h-4.8c0 3.27 2.94 5.25 6.54 5.25 4.02 0 6.42-1.59 6.42-4.8Zm11.9-11.85h2.04l2.13 2.13v6.9h-4.17v2.07h2.37l2.13 2.13v6.9h-3.45c-3.24 0-5.46-.42-6.81-1.77l-2.13-2.13c-1.2-1.2-1.74-3.12-1.74-6.18v-1.02h-.45l-2.13-2.13v-6.9h2.58V48.9h7.5l2.13 2.13v1.62Zm-3.48 10.05v-4.5h4.17V54h-4.17v-3.75h-4.8V54h-2.58v4.2h2.58v4.5c0 4.98 1.02 6.6 7.2 6.6h2.1v-4.2h-2.1c-2.01 0-2.4-.78-2.4-2.4Z"/>
  <path fill="#000" d="m18.24 49.71.712-.702-.005-.005-.005-.006-.702.713Zm2.1 2.13-.712.702.005.005.707-.707ZM2.73 72.48l-.707.707.293.293h.414v-1ZM.6 70.35h-1v.414l.293.293.707-.707Zm0-23.7v-1h-1v1h1ZM1.95 48v-1h-1v1h1Zm0 21h-1v1h1v-1Zm4.95-4.35h-1v1h1v-1Zm0-12.3v-1h-1v1h1Zm6.63 3.75.92-.394-.164-.38-.385-.154-.371.928Zm-3.15-.27v-1h-1v1h1Zm0 7.44h-1v1.116l1.11-.122-.11-.994Zm7.148-12.858 2.1 2.13 1.424-1.404-2.1-2.13-1.424 1.404Zm2.105 2.135c1.983 1.983 3.127 4.87 3.127 8.023h2c0-3.626-1.316-7.04-3.713-9.437l-1.414 1.414Zm3.127 8.023c0 5.703-4.392 10.91-10.1 10.91v2c7.012 0 12.1-6.313 12.1-12.91h-2Zm-10.1 10.91H2.73v2h9.93v-2Zm-9.223.293-2.13-2.13-1.414 1.414 2.13 2.13 1.414-1.414ZM1.6 70.35v-23.7h-2v23.7h2Zm-1-22.7h9.93v-2H.6v2Zm9.93 0c2.917 0 5.275 1.067 7.008 2.773l1.404-1.426c-2.107-2.074-4.97-3.347-8.412-3.347v2ZM.95 48v21h2V48h-2Zm1 22h8.58v-2H1.95v2Zm8.58 0c6.443 0 10.75-5.898 10.75-11.56h-2c0 4.838-3.673 9.56-8.75 9.56v2Zm10.75-11.56c0-2.811-.895-5.657-2.7-7.819C16.757 48.438 14.04 47 10.53 47v2c2.91 0 5.068 1.172 6.515 2.904 1.465 1.753 2.235 4.127 2.235 6.536h2ZM10.53 47H1.95v2h8.58v-2Zm-.6 16.65H6.9v2h3.03v-2Zm-2.03 1v-12.3h-2v12.3h2Zm-1-11.3h3.03v-2H6.9v2Zm3.03 0c1.472 0 2.53.605 3.243 1.496.732.916 1.127 2.177 1.127 3.474h2c0-1.673-.505-3.397-1.565-4.723-1.08-1.352-2.707-2.247-4.805-2.247v2Zm4.37 4.97c0 1.384-.402 2.745-1.146 3.734-.723.962-1.779 1.596-3.224 1.596v2c2.125 0 3.754-.972 4.823-2.394 1.049-1.396 1.547-3.2 1.547-4.936h-2Zm-.399-3.148a4.998 4.998 0 0 0-1.841-.342v2c.397 0 .78.07 1.099.199l.742-1.858Zm-1.841-.342h-1.68v2h1.68v-2Zm-2.68 1v7.44h2v-7.44h-2Zm1.11 8.434c1.577-.173 2.72-1.053 3.442-2.191.707-1.114 1.018-2.48 1.018-3.753h-2c0 .977-.244 1.951-.707 2.682-.448.707-1.09 1.177-1.972 1.274l.218 1.988Zm4.46-5.944c0-.957-.17-1.844-.5-2.614l-1.84.788c.21.49.34 1.103.34 1.826h2Zm20.999-3.54.707-.707-.707.707Zm2.13 2.13-.707.707.707-.707Zm1.98 3.21.963-.268-.008-.03-.011-.031-.944.329Zm.45 1.62.99-.135-.009-.067-.018-.066-.963.268Zm.09.66h1v-.068l-.01-.067-.99.135Zm0 1.53h-1v.414l.293.293.707-.707Zm.45.45.985.17.089-.51-.367-.367-.707.707Zm-.27 1.56-.986-.17-.002.013.988.157Zm-15.69 4.29-.712.702.005.005.707-.707Zm-2.1-2.13.712-.702-.006-.006-.006-.006-.7.714Zm14.34-4.5.987.161.19-1.161h-1.177v1Zm-4.83 0v-1h-.51l-.3.412.81.588Zm-5.82-1.08v-1h-1.177l.19 1.161.987-.161Zm10.44 0v1h1v-1h-1Zm0-2.25h1v-.073l-.01-.072-.99.145Zm-4.86-.3v1h1.117l-.123-1.11-.994.11Zm-5.46 0-.958-.287-.386 1.287h1.344v-1Zm5.37-.57.928-.371-.009-.023-.01-.023-.91.417Zm3.073-3.913 2.13 2.13 1.414-1.414-2.13-2.13-1.414 1.414Zm2.13 2.13c.73.73 1.34 1.68 1.742 2.832l1.889-.658c-.498-1.428-1.267-2.638-2.217-3.588l-1.414 1.414Zm1.723 2.77.45 1.62 1.927-.535-.45-1.62-1.927.536Zm.423 1.488.09.66 1.982-.27-.09-.66-1.982.27Zm.08.525v1.53h2V62.4h-2Zm.294 2.237.45.45 1.414-1.414-.45-.45-1.414 1.414Zm.171-.427-.27 1.56 1.971.34.27-1.56-1.97-.34Zm-.272 1.573c-.589 3.713-4.193 5.997-8.072 5.997v2c4.52 0 9.256-2.696 10.047-7.683l-1.975-.314Zm-8.072 5.997c-2.495 0-4.511-.845-5.923-2.257l-1.414 1.414c1.827 1.828 4.371 2.843 7.337 2.843v-2ZM25.8 69.528l-2.1-2.13-1.424 1.404 2.1 2.13 1.424-1.404Zm-2.112-2.142c-1.403-1.377-2.25-3.417-2.25-5.886h-2c0 2.931 1.013 5.511 2.85 7.314l1.4-1.428ZM21.44 61.5c0-2.462.85-4.487 2.257-5.893 1.406-1.406 3.43-2.257 5.893-2.257v-2c-2.938 0-5.489 1.024-7.307 2.843-1.82 1.819-2.843 4.37-2.843 7.307h2Zm8.15-8.15c2.274 0 4.252.737 5.653 2.137l1.414-1.414c-1.84-1.84-4.361-2.723-7.067-2.723v2Zm7.74 9.25H32.5v2h4.83v-2Zm-5.64.412c-.204.281-.753 1.088-2.1 1.088v2c2.372 0 3.443-1.533 3.718-1.912l-1.617-1.176Zm-2.1 1.088c-.68 0-1.084-.202-1.342-.454-.275-.27-.484-.693-.581-1.287l-1.974.322c.143.876.489 1.742 1.158 2.396.687.67 1.619 1.023 2.739 1.023v-2Zm-2.91-.58h10.44v-2H26.68v2Zm11.44-1v-2.25h-2v2.25h2Zm-.01-2.395c-.33-2.248-1.27-4.123-2.77-5.434-1.5-1.312-3.477-1.991-5.75-1.991v2c1.867 0 3.354.551 4.434 1.496 1.081.947 1.834 2.357 2.106 4.218l1.98-.288ZM29.59 52.7c-2.568 0-4.785.86-6.362 2.438-1.578 1.578-2.438 3.795-2.438 6.362h2c0-2.113.7-3.796 1.852-4.948C25.794 55.4 27.477 54.7 29.59 54.7v-2Zm-8.8 8.8c0 2.567.86 4.784 2.438 6.362 1.577 1.578 3.794 2.438 6.362 2.438v-2c-2.113 0-3.796-.7-4.948-1.852-1.152-1.152-1.852-2.835-1.852-4.948h-2Zm8.8 8.8c4.667 0 8.125-2.857 8.727-6.539l-1.974-.322c-.419 2.558-2.9 4.861-6.753 4.861v2Zm2.67-11.33H26.8v2h5.46v-2Zm-4.503 1.287c.14-.462.348-.786.606-.995.248-.201.623-.362 1.227-.362v-2c-.987 0-1.827.274-2.486.808-.65.526-1.04 1.237-1.262 1.975l1.915.574ZM29.59 58.9c.586 0 .945.146 1.171.303.233.16.392.379.5.614l1.818-.834a3.474 3.474 0 0 0-1.18-1.426c-.6-.413-1.366-.657-2.31-.657v2Zm1.651.871c-.015-.037-.014-.057-.007-.007l.012.118c.005.053.011.122.02.198l1.988-.22c-.007-.059-.027-.27-.036-.344-.016-.13-.045-.3-.12-.487l-1.857.742Zm17.183-7.121v-1h-.68l-.25.634.93.366Zm8.1 0 .708-.707-.293-.293h-.415v1Zm2.13 2.13.929.371.245-.612-.466-.466-.707.707Zm-7.08 17.7v1h.678l.251-.629-.928-.371Zm-7.02 0-.712.702.294.298h.419v-1Zm-2.1-2.13-.928.371.075.188.141.143.712-.702Zm-7.08-17.7v-1h-1.476l.548 1.371.928-.371Zm8.07 0 .708-.707-.293-.293h-.414v1Zm2.13 2.13.928-.375-.077-.188-.143-.144-.707.707Zm1.02 2.52-.926.375.94 2.323.917-2.332-.93-.366Zm1.95 11.7v1h.678l.251-.629-.928-.371Zm6-15 .929.371L56.02 53h-1.477v1Zm-5.19 0v-1h-.678l-.25.63.928.37Zm-3.39 8.52-.928.372.933 2.323.925-2.325-.93-.37ZM42.544 54l.928-.373L43.22 53h-.676v1Zm-5.19 0v-1h-1.477l.549 1.371.928-.371Zm6 15-.928.371.252.629h.676v-1Zm5.07-15.35h8.1v-2h-8.1v2Zm7.393-.293 2.13 2.13 1.415-1.414-2.13-2.13-1.415 1.414Zm1.909 1.052-7.08 17.7 1.857.742 7.08-17.7-1.857-.742ZM51.574 71.48h-7.02v2h7.02v-2Zm-6.308.298-2.1-2.13-1.425 1.404 2.1 2.13 1.425-1.404Zm-1.884-1.8-7.08-17.7-1.857.743 7.08 17.7 1.857-.742ZM35.374 53.65h8.07v-2h-8.07v2Zm7.362-.293 2.13 2.13 1.415-1.414-2.13-2.13-1.415 1.414Zm1.91 1.798 1.02 2.52 1.855-.75-1.02-2.52-1.854.75Zm2.878 2.511 1.83-4.65-1.861-.732-1.83 4.65 1.861.732Zm1.948 11.705 6-15-1.857-.742-6 15 1.857.742ZM54.544 53h-5.19v2h5.19v-2Zm-6.12.63-3.39 8.52 1.859.74 3.39-8.52-1.859-.74Zm-1.532 8.517-3.42-8.52-1.857.745 3.42 8.52 1.857-.745ZM42.543 53h-5.19v2h5.19v-2Zm-6.118 1.371 6 15 1.857-.742-6-15-1.857.742ZM43.353 70h5.19v-2h-5.19v2Zm31.688-20.29.712-.702-.005-.005-.707.707Zm2.1 2.13-.712.702.01.01.702-.712Zm1.41 15.87-.834-.552-.45.68.574.577.71-.705Zm4.74 4.77v1h2.403L84 71.775l-.71.705Zm-8.73 0-.721.693.295.307h.426v-1Zm-.75-.78.72-.693-.48-.5-.636.275.396.918Zm-14.22-2.31.712-.702-.01-.01-.702.712Zm-2.13-2.1-.707.707.005.005.702-.712Zm14.49.66.707-.707-.53-.53-.657.36.48.877ZM73 69l-.707.707.293.293H73v-1Zm4.92 0v1h2.414l-1.707-1.707-.707.707Zm-3.27-3.27-.767-.641-.587.701.647.647.707-.707Zm-3.45-3.45v1h.572l.29-.493-.862-.507Zm-4.92 0v-1h-2.414l1.707 1.707.707-.707Zm2.28 2.28.364.931 1.424-.557-1.081-1.081-.707.707Zm1.71-8.7.928-.371-.165-.413-.418-.154-.345.938Zm-6.39 5.07h-1v1h1v-1Zm6.48 0v1h.693l.243-.649-.936-.351Zm-4.71 2.64-.132.991 2.928.39-2.09-2.088-.706.707Zm-1.68-1.68.707-.707-2.286-2.286.596 3.177.983-.184Zm.39 1.35-.908.42.154.334.335.154.419-.908Zm1.89-15.89c3.369 0 6.163 1.148 8.083 3.067l1.414-1.414c-2.34-2.34-5.666-3.653-9.497-3.653v2Zm8.078 3.062 2.1 2.13 1.424-1.404-2.1-2.13-1.424 1.404Zm2.11 2.14c1.946 1.919 3.092 4.68 3.092 8.078h2c0-3.863-1.314-7.16-3.688-9.502l-1.404 1.424Zm3.092 8.078c0 2.282-.536 4.598-1.814 6.528l1.668 1.104c1.542-2.33 2.146-5.054 2.146-7.632h-2Zm-1.69 7.785 4.74 4.77 1.42-1.41-4.74-4.77-1.42 1.41Zm5.45 3.065h-8.73v2h8.73v-2Zm-8.01.307-.75-.78-1.441 1.386.75.78 1.442-1.386Zm-1.866-1.005c-1.6.689-3.352.998-5.034.998v2c1.917 0 3.945-.35 5.826-1.162l-.792-1.836Zm-5.034.998c-3.398 0-6.16-1.146-8.078-3.092l-1.424 1.404c2.34 2.374 5.64 3.688 9.502 3.688v-2Zm-8.088-3.102-2.13-2.1-1.404 1.424 2.13 2.1 1.404-1.424Zm-2.125-2.095c-1.92-1.92-3.067-4.714-3.067-8.083h-2c0 3.83 1.312 7.157 3.653 9.497l1.414-1.414ZM55.1 58.5c0-3.383 1.146-6.155 3.07-8.08 1.925-1.923 4.697-3.07 8.08-3.07v-2c-3.848 0-7.15 1.313-9.494 3.657C54.413 51.35 53.1 54.653 53.1 58.5h2Zm-.65 0c0 3.467 1.16 6.434 3.263 8.537 2.102 2.103 5.07 3.263 8.537 3.263v-2c-3.013 0-5.446-1-7.123-2.677-1.677-1.677-2.677-4.11-2.677-7.123h-2Zm11.8 11.8c2.305 0 4.424-.512 6.18-1.473l-.96-1.754c-1.425.78-3.206 1.227-5.22 1.227v2Zm4.993-1.643 1.05 1.05 1.414-1.414-1.05-1.05-1.414 1.414ZM73 70h4.92v-2H73v2Zm5.627-1.707-3.27-3.27-1.414 1.414 3.27 3.27 1.414-1.414Zm-3.21-1.922c1.701-2.034 2.633-4.761 2.633-7.871h-2c0 2.71-.809 4.963-2.167 6.589l1.534 1.282ZM78.05 58.5c0-3.467-1.16-6.434-3.263-8.537-2.103-2.103-5.07-3.263-8.537-3.263v2c3.012 0 5.445 1 7.123 2.677 1.677 1.677 2.677 4.11 2.677 7.123h2Zm-11.8-11.8c-3.468 0-6.435 1.16-8.537 3.263-2.103 2.103-3.263 5.07-3.263 8.537h2c0-3.013 1-5.446 2.677-7.123 1.677-1.677 4.11-2.677 7.123-2.677v-2ZM61.4 58.5c0-1.706.486-3.065 1.292-3.983.793-.902 1.97-1.467 3.558-1.467v-2c-2.103 0-3.85.77-5.06 2.148-1.197 1.362-1.79 3.228-1.79 5.302h2Zm4.85-5.45c1.607 0 2.783.561 3.568 1.456.8.911 1.282 2.268 1.282 3.994h2c0-2.084-.584-3.952-1.779-5.313-1.21-1.378-2.959-2.137-5.071-2.137v2Zm4.85 5.45c0 1.34-.275 2.444-.762 3.273l1.724 1.014c.712-1.211 1.038-2.688 1.038-4.287h-2Zm.1 2.78h-4.92v2h4.92v-2Zm-5.627 1.707 2.28 2.28 1.414-1.414-2.28-2.28-1.414 1.414Zm2.622.642c-.546.214-1.197.321-1.945.321v2c.931 0 1.84-.133 2.674-.459l-.729-1.862Zm-1.945.321c-1.587 0-2.765-.565-3.558-1.467-.806-.918-1.292-2.277-1.292-3.983h-2c0 2.074.593 3.94 1.79 5.302 1.21 1.378 2.957 2.148 5.06 2.148v-2Zm4.365-9.028a6.43 6.43 0 0 0-2.235-.392v2c.572 0 1.085.099 1.544.268l.692-1.876Zm-2.235-.392c-1.804 0-3.232.652-4.186 1.829-.928 1.145-1.314 2.67-1.314 4.271h2c0-1.31.319-2.334.868-3.012.523-.645 1.346-1.088 2.632-1.088v-2Zm-5.5 6.1v.3h2v-.3h-2Zm1 1.3h6.48v-2h-6.48v2Zm7.416-.649c.323-.861.454-1.827.454-2.781h-2c0 .786-.11 1.5-.327 2.079l1.873.702Zm.454-2.781c0-1.141-.202-2.138-.552-3.011l-1.857.742c.25.627.409 1.37.409 2.269h2Zm-5.393 4.363-1.68-1.68-1.414 1.414 1.68 1.68 1.414-1.414Zm-3.37-.789c.095.505.233 1.082.465 1.585l1.816-.838c-.128-.277-.23-.66-.315-1.115l-1.966.368Zm.954 2.074c.528.244 1.098.35 1.577.413l.264-1.982c-.421-.056-.752-.13-1.003-.247l-.838 1.816ZM87.694 52.65v-1h-1v1h1Zm7.5 0 .707-.707-.293-.293h-.414v1Zm2.13 2.13h1v-.414l-.293-.293-.707.707Zm0 17.7v1h1v-1h-1Zm-7.5 0-.707.707.292.293h.415v-1Zm-.15-.15.707-.707-.46-.46-.608.234.36.933Zm-7.83-1.71.707-.707-.707.707Zm-2.13-2.13.707-.707-.01-.01-.697.717Zm-1.92-15.84v-1h-1v1h1Zm7.5 0 .707-.707-.293-.293h-.414v1Zm2.13 2.13h1v-.414l-.293-.293-.707.707Zm0 8.43h-1v2.414l1.707-1.707-.707-.707Zm6.42 5.79v1h1v-1h-1Zm0-15h1v-1h-1v1Zm-4.8 0v-1h-1v1h1Zm-5.1 0h1v-1h-1v1Zm-4.8 0v-1h-1v1h1Zm0 9.9h-1v.026l.001.027.999-.053Zm9.9 3.42h1v-3.741l-1.867 3.242.867.499Zm0 1.68h-1v1h1v-1Zm-1.35-15.35h7.5v-2h-7.5v2Zm6.793-.293 2.13 2.13 1.414-1.414-2.13-2.13-1.414 1.414Zm1.837 1.423v17.7h2v-17.7h-2Zm1 16.7h-7.5v2h7.5v-2Zm-6.793.293-.15-.15-1.414 1.414.15.15 1.414-1.414Zm-1.218-.376c-.765.296-1.644.383-2.46.383v2c.926 0 2.087-.094 3.182-.517l-.722-1.866Zm-2.46.383c-1.532 0-3.205-.77-4.302-1.867l-1.414 1.414c1.423 1.423 3.59 2.453 5.717 2.453v-2Zm-4.302-1.867-2.13-2.13-1.414 1.414 2.13 2.13 1.414-1.414Zm-2.14-2.14a5.329 5.329 0 0 1-1.617-3.873h-2c0 2.142.868 3.987 2.222 5.306l1.396-1.432ZM78.795 63.9V52.65h-2V63.9h2Zm-1-10.25h7.5v-2h-7.5v2Zm6.793-.293 2.13 2.13 1.414-1.414-2.13-2.13-1.414 1.414Zm1.837 1.423v8.43h2v-8.43h-2Zm1.707 9.137c.513-.513.563-1.18.563-1.667h-2c0 .092-.003.162-.008.217a.656.656 0 0 1-.016.1c-.003.013-.003.007.006-.01a.245.245 0 0 1 .04-.054l1.415 1.414Zm.563-1.667v-9.6h-2v9.6h2Zm6.15 6.75V54h-2v15h2Zm-1-16h-4.8v2h4.8v-2Zm-5.8 1v8.25h2V54h-2Zm0 8.25c0 .71-.189 1.032-.36 1.192-.186.172-.535.328-1.19.328v2c.935 0 1.86-.22 2.553-.865.705-.657.997-1.594.997-2.655h-2Zm-1.55 1.52c-.655 0-1.005-.156-1.19-.328-.172-.16-.36-.483-.36-1.192h-2c0 1.06.291 1.998.997 2.655.692.646 1.618.865 2.553.865v-2Zm-1.55-1.52V54h-2v8.25h2Zm-1-9.25h-4.8v2h4.8v-2Zm-5.8 1v9.9h2V54h-2Zm.001 9.953c.139 2.618 1.423 4.247 2.874 5.185 1.398.905 2.93 1.162 3.705 1.162v-2c-.455 0-1.594-.178-2.618-.84-.972-.63-1.862-1.701-1.964-3.613l-1.997.106Zm6.579 6.347c1.456 0 2.57-.27 3.43-.742a4.486 4.486 0 0 0 1.756-1.739l-1.733-.998c-.215.374-.507.72-.988.984-.49.27-1.252.495-2.465.495v2Zm3.32-2.98V69h2v-1.68h-2Zm1 2.68h4.8v-2h-4.8v2Zm21.524-15.22.707-.707-.707.707Zm2.13 2.13-.707.707.707-.707Zm1.98 3.21.963-.268-.008-.03-.011-.031-.944.329Zm.45 1.62.991-.135-.01-.067-.018-.066-.963.268Zm.09.66h1v-.068l-.009-.067-.991.135Zm0 1.53h-1v.414l.293.293.707-.707Zm.45.45.985.17.089-.51-.367-.367-.707.707Zm-.27 1.56-.986-.17-.002.013.988.157Zm-15.69 4.29-.712.702.005.005.707-.707Zm-2.1-2.13.712-.702-.006-.006-.006-.006-.7.714Zm14.34-4.5.987.161.19-1.161h-1.177v1Zm-4.83 0v-1h-.509l-.3.412.809.588Zm-5.82-1.08v-1h-1.177l.19 1.161.987-.161Zm10.44 0v1h1v-1h-1Zm0-2.25h1v-.073l-.011-.072-.989.145Zm-4.86-.3v1h1.117l-.123-1.11-.994.11Zm-5.46 0-.958-.287-.386 1.287h1.344v-1Zm5.37-.57.928-.371-.009-.023-.01-.023-.909.417Zm3.073-3.913 2.13 2.13 1.414-1.414-2.13-2.13-1.414 1.414Zm2.13 2.13c.73.73 1.34 1.68 1.743 2.832l1.888-.658c-.498-1.428-1.267-2.638-2.217-3.588l-1.414 1.414Zm1.723 2.77.45 1.62 1.927-.535-.45-1.62-1.927.536Zm.423 1.488.09.66 1.982-.27-.09-.66-1.982.27Zm.081.525v1.53h2V62.4h-2Zm.293 2.237.45.45 1.414-1.414-.45-.45-1.414 1.414Zm.171-.427-.27 1.56 1.971.34.27-1.56-1.971-.34Zm-.272 1.573c-.589 3.713-4.193 5.997-8.072 5.997v2c4.521 0 9.256-2.696 10.047-7.683l-1.975-.314Zm-8.072 5.997c-2.495 0-4.511-.845-5.923-2.257l-1.414 1.414c1.827 1.828 4.372 2.843 7.337 2.843v-2Zm-5.918-2.252-2.1-2.13-1.424 1.404 2.1 2.13 1.424-1.404Zm-2.112-2.142c-1.403-1.377-2.25-3.417-2.25-5.886h-2c0 2.931 1.013 5.511 2.85 7.314l1.4-1.428Zm-2.25-5.886c0-2.462.85-4.487 2.257-5.893 1.406-1.406 3.43-2.257 5.893-2.257v-2c-2.938 0-5.489 1.024-7.307 2.843-1.819 1.819-2.843 4.37-2.843 7.307h2Zm8.15-8.15c2.274 0 4.252.737 5.653 2.137l1.414-1.414c-1.84-1.84-4.361-2.723-7.067-2.723v2Zm7.74 9.25h-4.83v2h4.83v-2Zm-5.639.412c-.204.281-.753 1.088-2.101 1.088v2c2.372 0 3.443-1.533 3.719-1.912l-1.618-1.176Zm-2.101 1.088c-.68 0-1.083-.202-1.342-.454-.275-.27-.484-.693-.581-1.287l-1.974.322c.143.876.489 1.742 1.158 2.396.687.67 1.619 1.023 2.739 1.023v-2Zm-2.91-.58h10.44v-2h-10.44v2Zm11.44-1v-2.25h-2v2.25h2Zm-.011-2.395c-.328-2.248-1.27-4.123-2.768-5.434-1.5-1.312-3.478-1.991-5.751-1.991v2c1.867 0 3.354.551 4.434 1.496 1.081.947 1.835 2.357 2.106 4.218l1.979-.288Zm-8.519-7.425c-2.567 0-4.784.86-6.362 2.438-1.578 1.578-2.438 3.795-2.438 6.362h2c0-2.113.7-3.796 1.852-4.948 1.152-1.152 2.835-1.852 4.948-1.852v-2Zm-8.8 8.8c0 2.567.86 4.784 2.438 6.362 1.578 1.578 3.795 2.438 6.362 2.438v-2c-2.113 0-3.796-.7-4.948-1.852-1.152-1.152-1.852-2.835-1.852-4.948h-2Zm8.8 8.8c4.667 0 8.125-2.857 8.727-6.539l-1.974-.322c-.418 2.558-2.9 4.861-6.753 4.861v2Zm2.67-11.33h-5.46v2h5.46v-2Zm-4.502 1.287c.138-.462.347-.786.605-.995.249-.201.624-.362 1.227-.362v-2c-.987 0-1.827.274-2.486.808-.649.526-1.041 1.237-1.262 1.975l1.916.574Zm1.832-1.357c.586 0 .945.146 1.171.303.233.16.392.379.5.614l1.818-.834a3.473 3.473 0 0 0-1.181-1.426c-.598-.413-1.365-.657-2.308-.657v2Zm1.651.871c-.015-.037-.013-.057-.007-.007l.012.118c.005.053.011.122.02.198l1.988-.22c-.007-.059-.026-.27-.036-.344-.016-.13-.045-.3-.12-.487l-1.857.742Zm19.427-5.351.707-.707-.707.707Zm2.13 2.13-.707.707.707-.707Zm1.65 5.73.015 1 .985-.015v-.985h-1Zm-1.95.03-.016-1-2.362.036 1.671 1.671.707-.707Zm.72.72.707-.707-.707.707Zm-12.48 7.44.707-.707-.707.707Zm-2.13-2.13.707-.707-.707.707Zm-1.71-5.64v-1h-1v1h1Zm2.64 0v1h2.711l-2.062-1.76-.649.76Zm6.42-2.67-.206.978.206-.978Zm.21-1.23h-1v1h1v-1Zm4.8 0v1h1v-1h-1Zm-8.07 4.14.242-.97-.005-.002-.237.972Zm.15 1.11h1v-1h-1v1Zm-4.8 0v-1h-1v1h1Zm11.713-8.923 2.13 2.13 1.414-1.414-2.13-2.13-1.414 1.414Zm2.13 2.13c.787.788 1.357 1.966 1.357 3.673h2c0-2.193-.751-3.895-1.943-5.087l-1.414 1.414Zm1.357 3.673v1.35h2v-1.35h-2Zm.984.35-1.95.03.031 2 1.95-.03-.031-2Zm-2.641 1.737.72.72 1.414-1.414-.72-.72-1.414 1.414Zm.72.72c.699.7 1.177 1.622 1.177 2.893h2c0-1.849-.723-3.267-1.763-4.307l-1.414 1.414Zm1.177 2.893c0 1.923-.778 3.148-1.939 3.934-1.214.823-2.934 1.216-4.831 1.216v2c2.123 0 4.288-.432 5.953-1.56 1.719-1.163 2.817-3.013 2.817-5.59h-2Zm-6.77 5.15c-1.925 0-4.096-.64-5.473-2.017l-1.414 1.414c1.863 1.863 4.612 2.603 6.887 2.603v-2Zm-5.473-2.017-2.13-2.13-1.414 1.414 2.13 2.13 1.414-1.414Zm-2.13-2.13c-.839-.839-1.417-1.997-1.417-3.583h-2c0 2.134.801 3.796 2.003 4.997l1.414-1.414Zm-1.417-3.583V62.7h-2v1.35h2Zm-1-.35h2.64v-2h-2.64v2Zm3.289-1.76c-1.011-.864-1.659-2.087-1.659-3.74h-2c0 2.247.911 4.024 2.36 5.26l1.299-1.52Zm-1.659-3.74c0-1.745.712-2.903 1.785-3.66 1.118-.79 2.701-1.19 4.445-1.19v-2c-2.007 0-4.039.455-5.598 1.556-1.604 1.132-2.632 2.899-2.632 5.294h2Zm6.23-4.85c1.992 0 3.964.539 5.203 1.777l1.414-1.414c-1.762-1.762-4.35-2.363-6.617-2.363v2Zm7.45 11.15c0-1.413-.486-2.624-1.577-3.566-1.037-.895-2.546-1.48-4.468-1.883l-.411 1.958c1.798.377 2.914.872 3.572 1.44.604.52.884 1.154.884 2.051h2Zm-6.044-5.449c-.844-.177-1.265-.336-1.464-.464-.083-.052-.082-.072-.066-.045.019.033.014.052.014.018h-2c0 .326.07.664.254.983.182.315.44.55.721.73.528.337 1.262.553 2.129.735l.412-1.957Zm-1.516-.491c0-.207.052-.258.037-.24a.084.084 0 0 1-.027.022.259.259 0 0 1 .1-.012v-2c-.619 0-1.196.221-1.601.7-.382.453-.509 1.017-.509 1.53h2Zm.11-.23a.4.4 0 0 1 .284.11c.06.059.126.166.126.36h2c0-1.466-1.122-2.47-2.41-2.47v2Zm1.41 1.47h4.8v-2h-4.8v2Zm5.8-1c0-2.02-.774-3.603-2.149-4.65-1.336-1.018-3.13-1.45-5.061-1.45v2c1.668 0 2.979.378 3.849 1.04.829.633 1.361 1.6 1.361 3.06h2Zm-7.21-6.1c-1.92 0-3.626.433-4.878 1.369-1.288.962-2.002 2.39-2.002 4.131h2c0-1.14.44-1.961 1.199-2.529.796-.594 2.03-.971 3.681-.971v-2Zm-6.88 5.5c0 2.753 1.797 4.982 4.782 5.711l.475-1.943c-2.175-.53-3.257-2.021-3.257-3.768h-2Zm4.777 5.71c1.129.282 1.941.54 2.453.784.259.123.381.215.425.258.037.036-.065-.049-.065-.242h2c0-.523-.264-.923-.54-1.191-.269-.262-.612-.465-.961-.63-.702-.335-1.676-.632-2.827-.92l-.485 1.941Zm2.813.8c0 .018-.003-.022.031-.08.034-.057.07-.075.057-.068a.792.792 0 0 1-.227.067 3.32 3.32 0 0 1-.571.041v2c.622 0 1.256-.076 1.766-.357a1.81 1.81 0 0 0 .698-.667c.177-.3.246-.624.246-.936h-2Zm-.71-.04c-.339 0-.499-.095-.565-.157-.059-.055-.145-.176-.145-.463h-2c0 .733.243 1.422.777 1.922.526.493 1.221.698 1.933.698v-2Zm-1.71-1.62h-4.8v2h4.8v-2Zm-5.8 1c0 1.97.899 3.568 2.313 4.646 1.393 1.063 3.254 1.604 5.227 1.604v-2c-1.628 0-3.037-.449-4.014-1.194-.955-.728-1.526-1.755-1.526-3.056h-2Zm7.54 6.25c2.118 0 3.963-.415 5.304-1.386 1.391-1.009 2.116-2.527 2.116-4.414h-2c0 1.323-.476 2.205-1.29 2.794-.864.626-2.228 1.006-4.13 1.006v2Zm18.32-17.65h-1v1h1v-1Zm2.04 0 .707-.707-.293-.293h-.414v1Zm2.13 2.13h1v-.414l-.293-.293-.707.707Zm0 6.9v1h1v-1h-1Zm-4.17 0v-1h-1v1h1Zm0 2.07h-1v1h1v-1Zm2.37 0 .707-.707-.293-.293h-.414v1Zm2.13 2.13h1v-.414l-.293-.293-.707.707Zm0 6.9v1h1v-1h-1Zm-10.26-1.77-.707.707.707-.707Zm-2.13-2.13.707-.707-.707.707Zm-1.74-7.2h1v-1h-1v1Zm-.45 0-.707.707.293.293h.414v-1Zm-2.13-2.13h-1v.414l.293.293.707-.707Zm0-6.9v-1h-1v1h1Zm2.58 0v1h1v-1h-1Zm0-3.75v-1h-1v1h1Zm7.5 0 .707-.707-.293-.293h-.414v1Zm2.13 2.13h1v-.414l-.293-.293-.707.707Zm-3.48 7.17v-1h-1v1h1Zm4.17 0v1h1v-1h-1Zm0-4.2h1v-1h-1v1Zm-4.17 0h-1v1h1v-1Zm0-3.75h1v-1h-1v1Zm-4.8 0v-1h-1v1h1Zm0 3.75v1h1v-1h-1Zm-2.58 0v-1h-1v1h1Zm0 4.2h-1v1h1v-1Zm2.58 0h1v-1h-1v1Zm9.3 11.1v1h1v-1h-1Zm0-4.2h1v-1h-1v1Zm-1.02-11.45h2.04v-2h-2.04v2Zm1.333-.293 2.13 2.13 1.414-1.414-2.13-2.13-1.414 1.414Zm1.837 1.423v6.9h2v-6.9h-2Zm1 5.9h-4.17v2h4.17v-2Zm-5.17 1v2.07h2v-2.07h-2Zm1 3.07h2.37v-2h-2.37v2Zm1.663-.293 2.13 2.13 1.414-1.414-2.13-2.13-1.414 1.414Zm1.837 1.423v6.9h2v-6.9h-2Zm1 5.9h-3.45v2h3.45v-2Zm-3.45 0c-3.239 0-5.068-.442-6.103-1.477l-1.414 1.414c1.665 1.665 4.276 2.063 7.517 2.063v-2Zm-6.103-1.477-2.13-2.13-1.414 1.414 2.13 2.13 1.414-1.414Zm-2.13-2.13c-.909-.91-1.447-2.484-1.447-5.473h-2c0 3.13.542 5.396 2.033 6.887l1.414-1.414Zm-1.447-5.473v-1.02h-2v1.02h2Zm-1-2.02h-.45v2h.45v-2Zm.257.293-2.13-2.13-1.414 1.414 2.13 2.13 1.414-1.414Zm-1.837-1.423v-6.9h-2v6.9h2Zm-1-5.9h2.58v-2h-2.58v2Zm3.58-1V48.9h-2v3.75h2Zm-1-2.75h7.5v-2h-7.5v2Zm6.793-.293 2.13 2.13 1.414-1.414-2.13-2.13-1.414 1.414Zm1.837 1.423v1.62h2v-1.62h-2Zm-1.48 11.67v-4.5h-2v4.5h2Zm-1-3.5h4.17v-2h-4.17v2Zm5.17-1V54h-2v4.2h2Zm-1-5.2h-4.17v2h4.17v-2Zm-3.17 1v-3.75h-2V54h2Zm-1-4.75h-4.8v2h4.8v-2Zm-5.8 1V54h2v-3.75h-2Zm1 2.75h-2.58v2h2.58v-2Zm-3.58 1v4.2h2V54h-2Zm1 5.2h2.58v-2h-2.58v2Zm1.58-1v4.5h2v-4.5h-2Zm0 4.5c0 2.459.223 4.522 1.575 5.875 1.346 1.345 3.542 1.725 6.625 1.725v-2c-3.097 0-4.501-.43-5.21-1.14-.703-.702-.99-1.939-.99-4.46h-2Zm8.2 7.6h2.1v-2h-2.1v2Zm3.1-1v-4.2h-2v4.2h2Zm-1-5.2h-2.1v2h2.1v-2Zm-2.1 0c-.927 0-1.148-.19-1.202-.252-.083-.095-.198-.349-.198-1.148h-2c0 .82.08 1.767.695 2.467.643.733 1.622.933 2.705.933v-2Z" mask="url(#a)"/>
  <path fill="#000" stroke="#000" stroke-width=".6" d="M16.769 8.538c.397-.228.492-.35.492-1.007v-.948c.002-.562-.146-.714-.574-.472m.082 2.427-2.39 1.646.1-.054 2.276 1.235m.014-2.827-.15-.26.003-.002m.147.262-.144-.263-.003.001m.065-2.165L12.14 8.847m4.547-2.736.155.257-.003.003m-.152-.26.148.261a.271.271 0 0 1 .004-.001m-4.7 2.476c-.34.228-.45.366-.45.776v.76c0 .41.108.531.45.759m0-2.295.167.25-.005.004m-.161-.254.155.257.006-.003m-.161 2.041 4.547 2.746c.425.244.574.091.574-.471v-1.045c0-.653-.082-.775-.506-1.007m-4.615-.223.155-.257.006.004m-.161.253.166-.25-.005-.003m4.454.476-.143.264c.21.115.262.167.29.22.034.068.06.191.06.523v1.045c0 .12-.008.206-.02.264m-.187-2.316-.144.264-2.52-1.368-.156-.086v-.432l.156-.085 2.531-1.382m0 0c.196-.112.246-.163.275-.219.036-.07.064-.196.064-.526v-.95c0-.12-.007-.204-.018-.262m0 0a.28.28 0 0 1 .06-.019h.003l-.017-.002a.12.12 0 0 1-.05-.026c-.01-.009-.015-.016-.015-.016s.008.013.015.048l.004.015Zm0 0a.934.934 0 0 0-.104.052m0 0L12.3 9.1m0 0c-.164.11-.227.17-.26.223-.028.046-.053.118-.053.299v.76c0 .181.025.247.05.287.033.05.094.106.263.219m0 0 4.538 2.74m0 0-.002-.001-.15.26.155-.257-.003-.002Zm0 0a.93.93 0 0 0 .103.052m0 0a.798.798 0 0 1-.003.014c-.008.035-.016.048-.015.048 0 0 .003-.007.014-.016a.12.12 0 0 1 .05-.025c.015-.003.02-.001.013-.002a.272.272 0 0 1-.059-.02Zm4.905-9.06.002-.01c.055-.192.103-.248.128-.268.02-.016.068-.042.23-.042h1.056c.027 0 .048.001.065.003a.9.9 0 0 1-.034.135L19.835 15.38l-.002.008c-.055.193-.103.25-.128.27-.02.016-.068.042-.23.042h-1.056c-.024 0-.044 0-.059-.002a.99.99 0 0 1 .03-.142l3.456-10.937Zm5.756 5.099L25.09 8.352c-.213-.116-.268-.169-.299-.225-.036-.067-.064-.189-.064-.517V6.578c0-.123.01-.207.025-.261.024.01.057.028.099.056l.009.005 4.529 2.74c.16.106.224.17.258.226.03.047.053.117.053.279v.759c0 .162-.023.238-.055.29-.034.059-.1.126-.256.23l-4.529 2.73h-.001a.692.692 0 0 1-.107.055 1.02 1.02 0 0 1-.025-.255v-.987c0-.308.03-.437.07-.511.034-.065.094-.124.282-.233l2.524-1.38.156-.085v-.432l-.157-.085Z"/>
  <mask id="b" fill="#fff">
    <path d="M50.283 0v2.596c0 .688-.386 1.348-1.07 1.835-.684.487-1.612.76-2.58.761H36.9c-1.613 0-3.16.456-4.302 1.268-1.14.811-1.781 1.912-1.781 3.06 0 1.147.64 2.247 1.781 3.059 1.141.811 2.689 1.267 4.302 1.267h29.2c.968.001 1.895.275 2.58.761.684.487 1.069 1.147 1.07 1.835v2.596H17.433c-.645.001-1.263.183-1.72.508-.456.325-.712.764-.713 1.223v22.5c0 .46.257.899.714 1.224.456.324 1.074.506 1.72.507h68.133c.645 0 1.263-.183 1.72-.508.456-.324.712-.764.713-1.223v-22.5c0-.459-.257-.898-.713-1.223-.457-.325-1.075-.507-1.72-.508H72.183v-2.596c-.002-1.147-.643-2.247-1.783-3.058-1.14-.811-2.687-1.267-4.3-1.269H36.9c-.968 0-1.896-.273-2.58-.76-.685-.487-1.07-1.147-1.07-1.836 0-.688.385-1.349 1.07-1.836.684-.486 1.612-.76 2.58-.76h9.733c1.613-.001 3.16-.458 4.3-1.269 1.14-.81 1.782-1.91 1.784-3.058V0h-2.434ZM17.432 20.77h68.135v19.038H17.433l-.001-19.039Zm2.435 1.73v1.73H22.3V22.5h-2.433Zm4.866 0v1.73h2.434V22.5h-2.434Zm4.867 0v1.73h2.433V22.5H29.6Zm4.867 0v1.73H36.9V22.5h-2.433Zm4.866 0v1.73h2.434V22.5h-2.434Zm4.867 0v1.73h2.433V22.5H44.2Zm4.867 0v1.73H51.5V22.5h-2.433Zm4.866 0v1.73h2.434V22.5h-2.434Zm4.867 0v1.73h2.433V22.5H58.8Zm4.867 0v1.73H66.1V22.5h-2.433Zm4.866 0v1.73h2.434V22.5h-2.434Zm4.867 0v1.73h2.433V22.5H73.4Zm4.867 0v1.73h4.866V22.5h-4.866Zm-58.4 3.462v1.73h3.65v-1.73h-3.65Zm6.083 0v1.73h2.433v-1.73H25.95Zm4.867 0v1.73h2.433v-1.73h-2.433Zm4.866 0v1.73h2.434v-1.73h-2.434Zm4.867 0v1.73h2.433v-1.73H40.55Zm4.867 0v1.73h2.433v-1.73h-2.433Zm4.866 0v1.73h2.434v-1.73h-2.434Zm4.867 0v1.73h2.433v-1.73H55.15Zm4.867 0v1.73h2.433v-1.73h-2.433Zm4.866 0v1.73h2.434v-1.73h-2.434Zm4.867 0v1.73h2.433v-1.73H69.75Zm4.867 0v1.73h2.433v-1.73h-2.433Zm4.866 0v1.73h3.65v-1.73h-3.65Zm-59.616 3.461v1.73h4.866v-1.73h-4.866Zm7.3 0v1.73H29.6v-1.73h-2.433Zm4.866 0v1.73h2.434v-1.73h-2.434Zm4.867 0v1.73h2.433v-1.73H36.9Zm4.867 0v1.73H44.2v-1.73h-2.433Zm4.866 0v1.73h2.434v-1.73h-2.434Zm4.867 0v1.73h2.433v-1.73H51.5Zm4.867 0v1.73H58.8v-1.73h-2.433Zm4.866 0v1.73h2.434v-1.73h-2.434Zm4.867 0v1.73h2.433v-1.73H66.1Zm4.867 0v1.73H73.4v-1.73h-2.433Zm4.866 0v1.73H80.7v1.732h2.433v-3.462h-7.3Zm-55.966 3.462v1.73h7.3v-1.73h-7.3Zm9.733 0v1.73h2.433v-1.73H29.6Zm4.867 0v1.73H36.9v-1.73h-2.433Zm4.866 0v1.73h2.434v-1.73h-2.434Zm4.867 0v1.73h2.433v-1.73H44.2Zm4.867 0v1.73H51.5v-1.73h-2.433Zm4.866 0v1.73h2.434v-1.73h-2.434Zm4.867 0v1.73h2.433v-1.73H58.8Zm4.867 0v1.73H66.1v-1.73h-2.433Zm4.866 0v1.73h2.434v-1.73h-2.434Zm4.867 0v1.73h2.433v-1.73H73.4Zm4.867 1.73v1.731h-2.434v1.73h7.3v-1.73H80.7v-1.73h-2.433Zm-58.4 1.731v1.73H22.3v-1.73h-2.433Zm4.866 0v1.73h2.434v-1.73h-2.434Zm4.867 0v1.73h2.433v-1.73H29.6Zm4.867 0v1.73h29.2v-1.73h-29.2Zm31.633 0v1.73h2.433v-1.73H66.1Zm4.867 0v1.73H73.4v-1.73h-2.433ZM17.433 41.54h68.134v1.73H17.433v-1.73Z"/>
  </mask>
  <path fill="#000" stroke="#000" stroke-width="2" d="M50.283 0v2.596c0 .688-.386 1.348-1.07 1.835-.684.487-1.612.76-2.58.761H36.9c-1.613 0-3.16.456-4.302 1.268-1.14.811-1.781 1.912-1.781 3.06 0 1.147.64 2.247 1.781 3.059 1.141.811 2.689 1.267 4.302 1.267h29.2c.968.001 1.895.275 2.58.761.684.487 1.069 1.147 1.07 1.835v2.596H17.433c-.645.001-1.263.183-1.72.508-.456.325-.712.764-.713 1.223v22.5c0 .46.257.899.714 1.224.456.324 1.074.506 1.72.507h68.133c.645 0 1.263-.183 1.72-.508.456-.324.712-.764.713-1.223v-22.5c0-.459-.257-.898-.713-1.223-.457-.325-1.075-.507-1.72-.508H72.183v-2.596c-.002-1.147-.643-2.247-1.783-3.058-1.14-.811-2.687-1.267-4.3-1.269H36.9c-.968 0-1.896-.273-2.58-.76-.685-.487-1.07-1.147-1.07-1.836 0-.688.385-1.349 1.07-1.836.684-.486 1.612-.76 2.58-.76h9.733c1.613-.001 3.16-.458 4.3-1.269 1.14-.81 1.782-1.91 1.784-3.058V0h-2.434ZM17.432 20.77h68.135v19.038H17.433l-.001-19.039Zm2.435 1.73v1.73H22.3V22.5h-2.433Zm4.866 0v1.73h2.434V22.5h-2.434Zm4.867 0v1.73h2.433V22.5H29.6Zm4.867 0v1.73H36.9V22.5h-2.433Zm4.866 0v1.73h2.434V22.5h-2.434Zm4.867 0v1.73h2.433V22.5H44.2Zm4.867 0v1.73H51.5V22.5h-2.433Zm4.866 0v1.73h2.434V22.5h-2.434Zm4.867 0v1.73h2.433V22.5H58.8Zm4.867 0v1.73H66.1V22.5h-2.433Zm4.866 0v1.73h2.434V22.5h-2.434Zm4.867 0v1.73h2.433V22.5H73.4Zm4.867 0v1.73h4.866V22.5h-4.866Zm-58.4 3.462v1.73h3.65v-1.73h-3.65Zm6.083 0v1.73h2.433v-1.73H25.95Zm4.867 0v1.73h2.433v-1.73h-2.433Zm4.866 0v1.73h2.434v-1.73h-2.434Zm4.867 0v1.73h2.433v-1.73H40.55Zm4.867 0v1.73h2.433v-1.73h-2.433Zm4.866 0v1.73h2.434v-1.73h-2.434Zm4.867 0v1.73h2.433v-1.73H55.15Zm4.867 0v1.73h2.433v-1.73h-2.433Zm4.866 0v1.73h2.434v-1.73h-2.434Zm4.867 0v1.73h2.433v-1.73H69.75Zm4.867 0v1.73h2.433v-1.73h-2.433Zm4.866 0v1.73h3.65v-1.73h-3.65Zm-59.616 3.461v1.73h4.866v-1.73h-4.866Zm7.3 0v1.73H29.6v-1.73h-2.433Zm4.866 0v1.73h2.434v-1.73h-2.434Zm4.867 0v1.73h2.433v-1.73H36.9Zm4.867 0v1.73H44.2v-1.73h-2.433Zm4.866 0v1.73h2.434v-1.73h-2.434Zm4.867 0v1.73h2.433v-1.73H51.5Zm4.867 0v1.73H58.8v-1.73h-2.433Zm4.866 0v1.73h2.434v-1.73h-2.434Zm4.867 0v1.73h2.433v-1.73H66.1Zm4.867 0v1.73H73.4v-1.73h-2.433Zm4.866 0v1.73H80.7v1.732h2.433v-3.462h-7.3Zm-55.966 3.462v1.73h7.3v-1.73h-7.3Zm9.733 0v1.73h2.433v-1.73H29.6Zm4.867 0v1.73H36.9v-1.73h-2.433Zm4.866 0v1.73h2.434v-1.73h-2.434Zm4.867 0v1.73h2.433v-1.73H44.2Zm4.867 0v1.73H51.5v-1.73h-2.433Zm4.866 0v1.73h2.434v-1.73h-2.434Zm4.867 0v1.73h2.433v-1.73H58.8Zm4.867 0v1.73H66.1v-1.73h-2.433Zm4.866 0v1.73h2.434v-1.73h-2.434Zm4.867 0v1.73h2.433v-1.73H73.4Zm4.867 1.73v1.731h-2.434v1.73h7.3v-1.73H80.7v-1.73h-2.433Zm-58.4 1.731v1.73H22.3v-1.73h-2.433Zm4.866 0v1.73h2.434v-1.73h-2.434Zm4.867 0v1.73h2.433v-1.73H29.6Zm4.867 0v1.73h29.2v-1.73h-29.2Zm31.633 0v1.73h2.433v-1.73H66.1Zm4.867 0v1.73H73.4v-1.73h-2.433ZM17.433 41.54h68.134v1.73H17.433v-1.73Z" mask="url(#b)"/>
</svg>
